<?xml version="1.0" encoding="utf-8" standalone="no"?>
<!DOCTYPE svg PUBLIC "-//W3C//DTD SVG 1.1//EN"
  "http://www.w3.org/Graphics/SVG/1.1/DTD/svg11.dtd">
<!-- Created with matplotlib (https://matplotlib.org/) -->
<svg height="432pt" version="1.1" viewBox="0 0 1008 432" width="1008pt" xmlns="http://www.w3.org/2000/svg" xmlns:xlink="http://www.w3.org/1999/xlink">
 <metadata>
  <rdf:RDF xmlns:cc="http://creativecommons.org/ns#" xmlns:dc="http://purl.org/dc/elements/1.1/" xmlns:rdf="http://www.w3.org/1999/02/22-rdf-syntax-ns#">
   <cc:Work>
    <dc:type rdf:resource="http://purl.org/dc/dcmitype/StillImage"/>
    <dc:date>2021-01-02T10:05:52.345369</dc:date>
    <dc:format>image/svg+xml</dc:format>
    <dc:creator>
     <cc:Agent>
      <dc:title>Matplotlib v3.3.2, https://matplotlib.org/</dc:title>
     </cc:Agent>
    </dc:creator>
   </cc:Work>
  </rdf:RDF>
 </metadata>
 <defs>
  <style type="text/css">*{stroke-linecap:butt;stroke-linejoin:round;}</style>
 </defs>
 <g id="figure_1">
  <g id="patch_1">
   <path d="M 0 432 
L 1008 432 
L 1008 0 
L 0 0 
z
" style="fill:#ffffff;"/>
  </g>
  <g id="axes_1">
   <g id="patch_2">
    <path d="M 126 384.48 
L 481.090909 384.48 
L 481.090909 51.84 
L 126 51.84 
z
" style="fill:#ffffff;"/>
   </g>
   <g id="QuadMesh_1">
    <path clip-path="url(#pff4a207ef0)" d="M 126 51.84 
L 170.386364 51.84 
L 170.386364 99.36 
L 126 99.36 
L 126 51.84 
" style="fill:#3b4cc0;stroke:#ffffff;stroke-width:0.2;"/>
    <path clip-path="url(#pff4a207ef0)" d="M 170.386364 51.84 
L 214.772727 51.84 
L 214.772727 99.36 
L 170.386364 99.36 
L 170.386364 51.84 
" style="fill:#3b4cc0;stroke:#ffffff;stroke-width:0.2;"/>
    <path clip-path="url(#pff4a207ef0)" d="M 214.772727 51.84 
L 259.159091 51.84 
L 259.159091 99.36 
L 214.772727 99.36 
L 214.772727 51.84 
" style="fill:#3b4cc0;stroke:#ffffff;stroke-width:0.2;"/>
    <path clip-path="url(#pff4a207ef0)" d="M 259.159091 51.84 
L 303.545455 51.84 
L 303.545455 99.36 
L 259.159091 99.36 
L 259.159091 51.84 
" style="fill:#3b4cc0;stroke:#ffffff;stroke-width:0.2;"/>
    <path clip-path="url(#pff4a207ef0)" d="M 303.545455 51.84 
L 347.931818 51.84 
L 347.931818 99.36 
L 303.545455 99.36 
L 303.545455 51.84 
" style="fill:#3b4cc0;stroke:#ffffff;stroke-width:0.2;"/>
    <path clip-path="url(#pff4a207ef0)" d="M 347.931818 51.84 
L 392.318182 51.84 
L 392.318182 99.36 
L 347.931818 99.36 
L 347.931818 51.84 
" style="fill:#3b4cc0;stroke:#ffffff;stroke-width:0.2;"/>
    <path clip-path="url(#pff4a207ef0)" d="M 392.318182 51.84 
L 436.704545 51.84 
L 436.704545 99.36 
L 392.318182 99.36 
L 392.318182 51.84 
" style="fill:#3b4cc0;stroke:#ffffff;stroke-width:0.2;"/>
    <path clip-path="url(#pff4a207ef0)" d="M 436.704545 51.84 
L 481.090909 51.84 
L 481.090909 99.36 
L 436.704545 99.36 
L 436.704545 51.84 
" style="fill:#3b4cc0;stroke:#ffffff;stroke-width:0.2;"/>
    <path clip-path="url(#pff4a207ef0)" d="M 126 99.36 
L 170.386364 99.36 
L 170.386364 146.88 
L 126 146.88 
L 126 99.36 
" style="fill:#3b4cc0;stroke:#ffffff;stroke-width:0.2;"/>
    <path clip-path="url(#pff4a207ef0)" d="M 170.386364 99.36 
L 214.772727 99.36 
L 214.772727 146.88 
L 170.386364 146.88 
L 170.386364 99.36 
" style="fill:#3b4cc0;stroke:#ffffff;stroke-width:0.2;"/>
    <path clip-path="url(#pff4a207ef0)" d="M 214.772727 99.36 
L 259.159091 99.36 
L 259.159091 146.88 
L 214.772727 146.88 
L 214.772727 99.36 
" style="fill:#3b4cc0;stroke:#ffffff;stroke-width:0.2;"/>
    <path clip-path="url(#pff4a207ef0)" d="M 259.159091 99.36 
L 303.545455 99.36 
L 303.545455 146.88 
L 259.159091 146.88 
L 259.159091 99.36 
" style="fill:#3b4cc0;stroke:#ffffff;stroke-width:0.2;"/>
    <path clip-path="url(#pff4a207ef0)" d="M 303.545455 99.36 
L 347.931818 99.36 
L 347.931818 146.88 
L 303.545455 146.88 
L 303.545455 99.36 
" style="fill:#dddcdc;stroke:#ffffff;stroke-width:0.2;"/>
    <path clip-path="url(#pff4a207ef0)" d="M 347.931818 99.36 
L 392.318182 99.36 
L 392.318182 146.88 
L 347.931818 146.88 
L 347.931818 99.36 
" style="fill:#3b4cc0;stroke:#ffffff;stroke-width:0.2;"/>
    <path clip-path="url(#pff4a207ef0)" d="M 392.318182 99.36 
L 436.704545 99.36 
L 436.704545 146.88 
L 392.318182 146.88 
L 392.318182 99.36 
" style="fill:#3b4cc0;stroke:#ffffff;stroke-width:0.2;"/>
    <path clip-path="url(#pff4a207ef0)" d="M 436.704545 99.36 
L 481.090909 99.36 
L 481.090909 146.88 
L 436.704545 146.88 
L 436.704545 99.36 
" style="fill:#3b4cc0;stroke:#ffffff;stroke-width:0.2;"/>
    <path clip-path="url(#pff4a207ef0)" d="M 126 146.88 
L 170.386364 146.88 
L 170.386364 194.4 
L 126 194.4 
L 126 146.88 
" style="fill:#3b4cc0;stroke:#ffffff;stroke-width:0.2;"/>
    <path clip-path="url(#pff4a207ef0)" d="M 170.386364 146.88 
L 214.772727 146.88 
L 214.772727 194.4 
L 170.386364 194.4 
L 170.386364 146.88 
" style="fill:#3b4cc0;stroke:#ffffff;stroke-width:0.2;"/>
    <path clip-path="url(#pff4a207ef0)" d="M 214.772727 146.88 
L 259.159091 146.88 
L 259.159091 194.4 
L 214.772727 194.4 
L 214.772727 146.88 
" style="fill:#dddcdc;stroke:#ffffff;stroke-width:0.2;"/>
    <path clip-path="url(#pff4a207ef0)" d="M 259.159091 146.88 
L 303.545455 146.88 
L 303.545455 194.4 
L 259.159091 194.4 
L 259.159091 146.88 
" style="fill:#3b4cc0;stroke:#ffffff;stroke-width:0.2;"/>
    <path clip-path="url(#pff4a207ef0)" d="M 303.545455 146.88 
L 347.931818 146.88 
L 347.931818 194.4 
L 303.545455 194.4 
L 303.545455 146.88 
" style="fill:#3b4cc0;stroke:#ffffff;stroke-width:0.2;"/>
    <path clip-path="url(#pff4a207ef0)" d="M 347.931818 146.88 
L 392.318182 146.88 
L 392.318182 194.4 
L 347.931818 194.4 
L 347.931818 146.88 
" style="fill:#3b4cc0;stroke:#ffffff;stroke-width:0.2;"/>
    <path clip-path="url(#pff4a207ef0)" d="M 392.318182 146.88 
L 436.704545 146.88 
L 436.704545 194.4 
L 392.318182 194.4 
L 392.318182 146.88 
" style="fill:#3b4cc0;stroke:#ffffff;stroke-width:0.2;"/>
    <path clip-path="url(#pff4a207ef0)" d="M 436.704545 146.88 
L 481.090909 146.88 
L 481.090909 194.4 
L 436.704545 194.4 
L 436.704545 146.88 
" style="fill:#dddcdc;stroke:#ffffff;stroke-width:0.2;"/>
    <path clip-path="url(#pff4a207ef0)" d="M 126 194.4 
L 170.386364 194.4 
L 170.386364 241.92 
L 126 241.92 
L 126 194.4 
" style="fill:#3b4cc0;stroke:#ffffff;stroke-width:0.2;"/>
    <path clip-path="url(#pff4a207ef0)" d="M 170.386364 194.4 
L 214.772727 194.4 
L 214.772727 241.92 
L 170.386364 241.92 
L 170.386364 194.4 
" style="fill:#3b4cc0;stroke:#ffffff;stroke-width:0.2;"/>
    <path clip-path="url(#pff4a207ef0)" d="M 214.772727 194.4 
L 259.159091 194.4 
L 259.159091 241.92 
L 214.772727 241.92 
L 214.772727 194.4 
" style="fill:#3b4cc0;stroke:#ffffff;stroke-width:0.2;"/>
    <path clip-path="url(#pff4a207ef0)" d="M 259.159091 194.4 
L 303.545455 194.4 
L 303.545455 241.92 
L 259.159091 241.92 
L 259.159091 194.4 
" style="fill:#3b4cc0;stroke:#ffffff;stroke-width:0.2;"/>
    <path clip-path="url(#pff4a207ef0)" d="M 303.545455 194.4 
L 347.931818 194.4 
L 347.931818 241.92 
L 303.545455 241.92 
L 303.545455 194.4 
" style="fill:#3b4cc0;stroke:#ffffff;stroke-width:0.2;"/>
    <path clip-path="url(#pff4a207ef0)" d="M 347.931818 194.4 
L 392.318182 194.4 
L 392.318182 241.92 
L 347.931818 241.92 
L 347.931818 194.4 
" style="fill:#3b4cc0;stroke:#ffffff;stroke-width:0.2;"/>
    <path clip-path="url(#pff4a207ef0)" d="M 392.318182 194.4 
L 436.704545 194.4 
L 436.704545 241.92 
L 392.318182 241.92 
L 392.318182 194.4 
" style="fill:#3b4cc0;stroke:#ffffff;stroke-width:0.2;"/>
    <path clip-path="url(#pff4a207ef0)" d="M 436.704545 194.4 
L 481.090909 194.4 
L 481.090909 241.92 
L 436.704545 241.92 
L 436.704545 194.4 
" style="fill:#dddcdc;stroke:#ffffff;stroke-width:0.2;"/>
    <path clip-path="url(#pff4a207ef0)" d="M 126 241.92 
L 170.386364 241.92 
L 170.386364 289.44 
L 126 289.44 
L 126 241.92 
" style="fill:#dddcdc;stroke:#ffffff;stroke-width:0.2;"/>
    <path clip-path="url(#pff4a207ef0)" d="M 170.386364 241.92 
L 214.772727 241.92 
L 214.772727 289.44 
L 170.386364 289.44 
L 170.386364 241.92 
" style="fill:#dddcdc;stroke:#ffffff;stroke-width:0.2;"/>
    <path clip-path="url(#pff4a207ef0)" d="M 214.772727 241.92 
L 259.159091 241.92 
L 259.159091 289.44 
L 214.772727 289.44 
L 214.772727 241.92 
" style="fill:#3b4cc0;stroke:#ffffff;stroke-width:0.2;"/>
    <path clip-path="url(#pff4a207ef0)" d="M 259.159091 241.92 
L 303.545455 241.92 
L 303.545455 289.44 
L 259.159091 289.44 
L 259.159091 241.92 
" style="fill:#3b4cc0;stroke:#ffffff;stroke-width:0.2;"/>
    <path clip-path="url(#pff4a207ef0)" d="M 303.545455 241.92 
L 347.931818 241.92 
L 347.931818 289.44 
L 303.545455 289.44 
L 303.545455 241.92 
" style="fill:#3b4cc0;stroke:#ffffff;stroke-width:0.2;"/>
    <path clip-path="url(#pff4a207ef0)" d="M 347.931818 241.92 
L 392.318182 241.92 
L 392.318182 289.44 
L 347.931818 289.44 
L 347.931818 241.92 
" style="fill:#3b4cc0;stroke:#ffffff;stroke-width:0.2;"/>
    <path clip-path="url(#pff4a207ef0)" d="M 392.318182 241.92 
L 436.704545 241.92 
L 436.704545 289.44 
L 392.318182 289.44 
L 392.318182 241.92 
" style="fill:#3b4cc0;stroke:#ffffff;stroke-width:0.2;"/>
    <path clip-path="url(#pff4a207ef0)" d="M 436.704545 241.92 
L 481.090909 241.92 
L 481.090909 289.44 
L 436.704545 289.44 
L 436.704545 241.92 
" style="fill:#3b4cc0;stroke:#ffffff;stroke-width:0.2;"/>
    <path clip-path="url(#pff4a207ef0)" d="M 126 289.44 
L 170.386364 289.44 
L 170.386364 336.96 
L 126 336.96 
L 126 289.44 
" style="fill:#3b4cc0;stroke:#ffffff;stroke-width:0.2;"/>
    <path clip-path="url(#pff4a207ef0)" d="M 170.386364 289.44 
L 214.772727 289.44 
L 214.772727 336.96 
L 170.386364 336.96 
L 170.386364 289.44 
" style="fill:#3b4cc0;stroke:#ffffff;stroke-width:0.2;"/>
    <path clip-path="url(#pff4a207ef0)" d="M 214.772727 289.44 
L 259.159091 289.44 
L 259.159091 336.96 
L 214.772727 336.96 
L 214.772727 289.44 
" style="fill:#dddcdc;stroke:#ffffff;stroke-width:0.2;"/>
    <path clip-path="url(#pff4a207ef0)" d="M 259.159091 289.44 
L 303.545455 289.44 
L 303.545455 336.96 
L 259.159091 336.96 
L 259.159091 289.44 
" style="fill:#3b4cc0;stroke:#ffffff;stroke-width:0.2;"/>
    <path clip-path="url(#pff4a207ef0)" d="M 303.545455 289.44 
L 347.931818 289.44 
L 347.931818 336.96 
L 303.545455 336.96 
L 303.545455 289.44 
" style="fill:#dddcdc;stroke:#ffffff;stroke-width:0.2;"/>
    <path clip-path="url(#pff4a207ef0)" d="M 347.931818 289.44 
L 392.318182 289.44 
L 392.318182 336.96 
L 347.931818 336.96 
L 347.931818 289.44 
" style="fill:#dddcdc;stroke:#ffffff;stroke-width:0.2;"/>
    <path clip-path="url(#pff4a207ef0)" d="M 392.318182 289.44 
L 436.704545 289.44 
L 436.704545 336.96 
L 392.318182 336.96 
L 392.318182 289.44 
" style="fill:#dddcdc;stroke:#ffffff;stroke-width:0.2;"/>
    <path clip-path="url(#pff4a207ef0)" d="M 436.704545 289.44 
L 481.090909 289.44 
L 481.090909 336.96 
L 436.704545 336.96 
L 436.704545 289.44 
" style="fill:#dddcdc;stroke:#ffffff;stroke-width:0.2;"/>
    <path clip-path="url(#pff4a207ef0)" d="M 126 336.96 
L 170.386364 336.96 
L 170.386364 384.48 
L 126 384.48 
L 126 336.96 
" style="fill:#3b4cc0;stroke:#ffffff;stroke-width:0.2;"/>
    <path clip-path="url(#pff4a207ef0)" d="M 170.386364 336.96 
L 214.772727 336.96 
L 214.772727 384.48 
L 170.386364 384.48 
L 170.386364 336.96 
" style="fill:#3b4cc0;stroke:#ffffff;stroke-width:0.2;"/>
    <path clip-path="url(#pff4a207ef0)" d="M 214.772727 336.96 
L 259.159091 336.96 
L 259.159091 384.48 
L 214.772727 384.48 
L 214.772727 336.96 
" style="fill:#3b4cc0;stroke:#ffffff;stroke-width:0.2;"/>
    <path clip-path="url(#pff4a207ef0)" d="M 259.159091 336.96 
L 303.545455 336.96 
L 303.545455 384.48 
L 259.159091 384.48 
L 259.159091 336.96 
" style="fill:#3b4cc0;stroke:#ffffff;stroke-width:0.2;"/>
    <path clip-path="url(#pff4a207ef0)" d="M 303.545455 336.96 
L 347.931818 336.96 
L 347.931818 384.48 
L 303.545455 384.48 
L 303.545455 336.96 
" style="fill:#dddcdc;stroke:#ffffff;stroke-width:0.2;"/>
    <path clip-path="url(#pff4a207ef0)" d="M 347.931818 336.96 
L 392.318182 336.96 
L 392.318182 384.48 
L 347.931818 384.48 
L 347.931818 336.96 
" style="fill:#3b4cc0;stroke:#ffffff;stroke-width:0.2;"/>
    <path clip-path="url(#pff4a207ef0)" d="M 392.318182 336.96 
L 436.704545 336.96 
L 436.704545 384.48 
L 392.318182 384.48 
L 392.318182 336.96 
" style="fill:#3b4cc0;stroke:#ffffff;stroke-width:0.2;"/>
    <path clip-path="url(#pff4a207ef0)" d="M 436.704545 336.96 
L 481.090909 336.96 
L 481.090909 384.48 
L 436.704545 384.48 
L 436.704545 336.96 
" style="fill:#dddcdc;stroke:#ffffff;stroke-width:0.2;"/>
   </g>
   <g id="matplotlib.axis_1">
    <g id="xtick_1">
     <g id="line2d_1">
      <defs>
       <path d="M 0 0 
L 0 3.5 
" id="mddce05443c" style="stroke:#000000;stroke-width:0.8;"/>
      </defs>
      <g>
       <use style="stroke:#000000;stroke-width:0.8;" x="148.193182" xlink:href="#mddce05443c" y="384.48"/>
      </g>
     </g>
     <g id="text_1">
      <!-- 16 -->
      <g transform="translate(150.952557 404.205)rotate(-90)scale(0.1 -0.1)">
       <defs>
        <path d="M 12.40625 8.296875 
L 28.515625 8.296875 
L 28.515625 63.921875 
L 10.984375 60.40625 
L 10.984375 69.390625 
L 28.421875 72.90625 
L 38.28125 72.90625 
L 38.28125 8.296875 
L 54.390625 8.296875 
L 54.390625 0 
L 12.40625 0 
z
" id="DejaVuSans-49"/>
        <path d="M 33.015625 40.375 
Q 26.375 40.375 22.484375 35.828125 
Q 18.609375 31.296875 18.609375 23.390625 
Q 18.609375 15.53125 22.484375 10.953125 
Q 26.375 6.390625 33.015625 6.390625 
Q 39.65625 6.390625 43.53125 10.953125 
Q 47.40625 15.53125 47.40625 23.390625 
Q 47.40625 31.296875 43.53125 35.828125 
Q 39.65625 40.375 33.015625 40.375 
z
M 52.59375 71.296875 
L 52.59375 62.3125 
Q 48.875 64.0625 45.09375 64.984375 
Q 41.3125 65.921875 37.59375 65.921875 
Q 27.828125 65.921875 22.671875 59.328125 
Q 17.53125 52.734375 16.796875 39.40625 
Q 19.671875 43.65625 24.015625 45.921875 
Q 28.375 48.1875 33.59375 48.1875 
Q 44.578125 48.1875 50.953125 41.515625 
Q 57.328125 34.859375 57.328125 23.390625 
Q 57.328125 12.15625 50.6875 5.359375 
Q 44.046875 -1.421875 33.015625 -1.421875 
Q 20.359375 -1.421875 13.671875 8.265625 
Q 6.984375 17.96875 6.984375 36.375 
Q 6.984375 53.65625 15.1875 63.9375 
Q 23.390625 74.21875 37.203125 74.21875 
Q 40.921875 74.21875 44.703125 73.484375 
Q 48.484375 72.75 52.59375 71.296875 
z
" id="DejaVuSans-54"/>
       </defs>
       <use xlink:href="#DejaVuSans-49"/>
       <use x="63.623047" xlink:href="#DejaVuSans-54"/>
      </g>
     </g>
    </g>
    <g id="xtick_2">
     <g id="line2d_2">
      <g>
       <use style="stroke:#000000;stroke-width:0.8;" x="192.579545" xlink:href="#mddce05443c" y="384.48"/>
      </g>
     </g>
     <g id="text_2">
      <!-- 24 -->
      <g transform="translate(195.33892 404.205)rotate(-90)scale(0.1 -0.1)">
       <defs>
        <path d="M 19.1875 8.296875 
L 53.609375 8.296875 
L 53.609375 0 
L 7.328125 0 
L 7.328125 8.296875 
Q 12.9375 14.109375 22.625 23.890625 
Q 32.328125 33.6875 34.8125 36.53125 
Q 39.546875 41.84375 41.421875 45.53125 
Q 43.3125 49.21875 43.3125 52.78125 
Q 43.3125 58.59375 39.234375 62.25 
Q 35.15625 65.921875 28.609375 65.921875 
Q 23.96875 65.921875 18.8125 64.3125 
Q 13.671875 62.703125 7.8125 59.421875 
L 7.8125 69.390625 
Q 13.765625 71.78125 18.9375 73 
Q 24.125 74.21875 28.421875 74.21875 
Q 39.75 74.21875 46.484375 68.546875 
Q 53.21875 62.890625 53.21875 53.421875 
Q 53.21875 48.921875 51.53125 44.890625 
Q 49.859375 40.875 45.40625 35.40625 
Q 44.1875 33.984375 37.640625 27.21875 
Q 31.109375 20.453125 19.1875 8.296875 
z
" id="DejaVuSans-50"/>
        <path d="M 37.796875 64.3125 
L 12.890625 25.390625 
L 37.796875 25.390625 
z
M 35.203125 72.90625 
L 47.609375 72.90625 
L 47.609375 25.390625 
L 58.015625 25.390625 
L 58.015625 17.1875 
L 47.609375 17.1875 
L 47.609375 0 
L 37.796875 0 
L 37.796875 17.1875 
L 4.890625 17.1875 
L 4.890625 26.703125 
z
" id="DejaVuSans-52"/>
       </defs>
       <use xlink:href="#DejaVuSans-50"/>
       <use x="63.623047" xlink:href="#DejaVuSans-52"/>
      </g>
     </g>
    </g>
    <g id="xtick_3">
     <g id="line2d_3">
      <g>
       <use style="stroke:#000000;stroke-width:0.8;" x="236.965909" xlink:href="#mddce05443c" y="384.48"/>
      </g>
     </g>
     <g id="text_3">
      <!-- 72 -->
      <g transform="translate(239.725284 404.205)rotate(-90)scale(0.1 -0.1)">
       <defs>
        <path d="M 8.203125 72.90625 
L 55.078125 72.90625 
L 55.078125 68.703125 
L 28.609375 0 
L 18.3125 0 
L 43.21875 64.59375 
L 8.203125 64.59375 
z
" id="DejaVuSans-55"/>
       </defs>
       <use xlink:href="#DejaVuSans-55"/>
       <use x="63.623047" xlink:href="#DejaVuSans-50"/>
      </g>
     </g>
    </g>
    <g id="xtick_4">
     <g id="line2d_4">
      <g>
       <use style="stroke:#000000;stroke-width:0.8;" x="281.352273" xlink:href="#mddce05443c" y="384.48"/>
      </g>
     </g>
     <g id="text_4">
      <!-- 143 -->
      <g transform="translate(284.111648 410.5675)rotate(-90)scale(0.1 -0.1)">
       <defs>
        <path d="M 40.578125 39.3125 
Q 47.65625 37.796875 51.625 33 
Q 55.609375 28.21875 55.609375 21.1875 
Q 55.609375 10.40625 48.1875 4.484375 
Q 40.765625 -1.421875 27.09375 -1.421875 
Q 22.515625 -1.421875 17.65625 -0.515625 
Q 12.796875 0.390625 7.625 2.203125 
L 7.625 11.71875 
Q 11.71875 9.328125 16.59375 8.109375 
Q 21.484375 6.890625 26.8125 6.890625 
Q 36.078125 6.890625 40.9375 10.546875 
Q 45.796875 14.203125 45.796875 21.1875 
Q 45.796875 27.640625 41.28125 31.265625 
Q 36.765625 34.90625 28.71875 34.90625 
L 20.21875 34.90625 
L 20.21875 43.015625 
L 29.109375 43.015625 
Q 36.375 43.015625 40.234375 45.921875 
Q 44.09375 48.828125 44.09375 54.296875 
Q 44.09375 59.90625 40.109375 62.90625 
Q 36.140625 65.921875 28.71875 65.921875 
Q 24.65625 65.921875 20.015625 65.03125 
Q 15.375 64.15625 9.8125 62.3125 
L 9.8125 71.09375 
Q 15.4375 72.65625 20.34375 73.4375 
Q 25.25 74.21875 29.59375 74.21875 
Q 40.828125 74.21875 47.359375 69.109375 
Q 53.90625 64.015625 53.90625 55.328125 
Q 53.90625 49.265625 50.4375 45.09375 
Q 46.96875 40.921875 40.578125 39.3125 
z
" id="DejaVuSans-51"/>
       </defs>
       <use xlink:href="#DejaVuSans-49"/>
       <use x="63.623047" xlink:href="#DejaVuSans-52"/>
       <use x="127.246094" xlink:href="#DejaVuSans-51"/>
      </g>
     </g>
    </g>
    <g id="xtick_5">
     <g id="line2d_5">
      <g>
       <use style="stroke:#000000;stroke-width:0.8;" x="325.738636" xlink:href="#mddce05443c" y="384.48"/>
      </g>
     </g>
     <g id="text_5">
      <!-- 264 -->
      <g transform="translate(328.498011 410.5675)rotate(-90)scale(0.1 -0.1)">
       <use xlink:href="#DejaVuSans-50"/>
       <use x="63.623047" xlink:href="#DejaVuSans-54"/>
       <use x="127.246094" xlink:href="#DejaVuSans-52"/>
      </g>
     </g>
    </g>
    <g id="xtick_6">
     <g id="line2d_6">
      <g>
       <use style="stroke:#000000;stroke-width:0.8;" x="370.125" xlink:href="#mddce05443c" y="384.48"/>
      </g>
     </g>
     <g id="text_6">
      <!-- 276 -->
      <g transform="translate(372.884375 410.5675)rotate(-90)scale(0.1 -0.1)">
       <use xlink:href="#DejaVuSans-50"/>
       <use x="63.623047" xlink:href="#DejaVuSans-55"/>
       <use x="127.246094" xlink:href="#DejaVuSans-54"/>
      </g>
     </g>
    </g>
    <g id="xtick_7">
     <g id="line2d_7">
      <g>
       <use style="stroke:#000000;stroke-width:0.8;" x="414.511364" xlink:href="#mddce05443c" y="384.48"/>
      </g>
     </g>
     <g id="text_7">
      <!-- 279 -->
      <g transform="translate(417.270739 410.5675)rotate(-90)scale(0.1 -0.1)">
       <defs>
        <path d="M 10.984375 1.515625 
L 10.984375 10.5 
Q 14.703125 8.734375 18.5 7.8125 
Q 22.3125 6.890625 25.984375 6.890625 
Q 35.75 6.890625 40.890625 13.453125 
Q 46.046875 20.015625 46.78125 33.40625 
Q 43.953125 29.203125 39.59375 26.953125 
Q 35.25 24.703125 29.984375 24.703125 
Q 19.046875 24.703125 12.671875 31.3125 
Q 6.296875 37.9375 6.296875 49.421875 
Q 6.296875 60.640625 12.9375 67.421875 
Q 19.578125 74.21875 30.609375 74.21875 
Q 43.265625 74.21875 49.921875 64.515625 
Q 56.59375 54.828125 56.59375 36.375 
Q 56.59375 19.140625 48.40625 8.859375 
Q 40.234375 -1.421875 26.421875 -1.421875 
Q 22.703125 -1.421875 18.890625 -0.6875 
Q 15.09375 0.046875 10.984375 1.515625 
z
M 30.609375 32.421875 
Q 37.25 32.421875 41.125 36.953125 
Q 45.015625 41.5 45.015625 49.421875 
Q 45.015625 57.28125 41.125 61.84375 
Q 37.25 66.40625 30.609375 66.40625 
Q 23.96875 66.40625 20.09375 61.84375 
Q 16.21875 57.28125 16.21875 49.421875 
Q 16.21875 41.5 20.09375 36.953125 
Q 23.96875 32.421875 30.609375 32.421875 
z
" id="DejaVuSans-57"/>
       </defs>
       <use xlink:href="#DejaVuSans-50"/>
       <use x="63.623047" xlink:href="#DejaVuSans-55"/>
       <use x="127.246094" xlink:href="#DejaVuSans-57"/>
      </g>
     </g>
    </g>
    <g id="xtick_8">
     <g id="line2d_8">
      <g>
       <use style="stroke:#000000;stroke-width:0.8;" x="458.897727" xlink:href="#mddce05443c" y="384.48"/>
      </g>
     </g>
     <g id="text_8">
      <!-- 293 -->
      <g transform="translate(461.657102 410.5675)rotate(-90)scale(0.1 -0.1)">
       <use xlink:href="#DejaVuSans-50"/>
       <use x="63.623047" xlink:href="#DejaVuSans-57"/>
       <use x="127.246094" xlink:href="#DejaVuSans-51"/>
      </g>
     </g>
    </g>
   </g>
   <g id="matplotlib.axis_2">
    <g id="ytick_1">
     <g id="line2d_9">
      <defs>
       <path d="M 0 0 
L -3.5 0 
" id="mc50d39d80e" style="stroke:#000000;stroke-width:0.8;"/>
      </defs>
      <g>
       <use style="stroke:#000000;stroke-width:0.8;" x="126" xlink:href="#mc50d39d80e" y="75.6"/>
      </g>
     </g>
     <g id="text_9">
      <!-- G1 -->
      <g transform="translate(104.889062 79.399219)scale(0.1 -0.1)">
       <defs>
        <path d="M 59.515625 10.40625 
L 59.515625 29.984375 
L 43.40625 29.984375 
L 43.40625 38.09375 
L 69.28125 38.09375 
L 69.28125 6.78125 
Q 63.578125 2.734375 56.6875 0.65625 
Q 49.8125 -1.421875 42 -1.421875 
Q 24.90625 -1.421875 15.25 8.5625 
Q 5.609375 18.5625 5.609375 36.375 
Q 5.609375 54.25 15.25 64.234375 
Q 24.90625 74.21875 42 74.21875 
Q 49.125 74.21875 55.546875 72.453125 
Q 61.96875 70.703125 67.390625 67.28125 
L 67.390625 56.78125 
Q 61.921875 61.421875 55.765625 63.765625 
Q 49.609375 66.109375 42.828125 66.109375 
Q 29.4375 66.109375 22.71875 58.640625 
Q 16.015625 51.171875 16.015625 36.375 
Q 16.015625 21.625 22.71875 14.15625 
Q 29.4375 6.6875 42.828125 6.6875 
Q 48.046875 6.6875 52.140625 7.59375 
Q 56.25 8.5 59.515625 10.40625 
z
" id="DejaVuSans-71"/>
       </defs>
       <use xlink:href="#DejaVuSans-71"/>
       <use x="77.490234" xlink:href="#DejaVuSans-49"/>
      </g>
     </g>
    </g>
    <g id="ytick_2">
     <g id="line2d_10">
      <g>
       <use style="stroke:#000000;stroke-width:0.8;" x="126" xlink:href="#mc50d39d80e" y="123.12"/>
      </g>
     </g>
     <g id="text_10">
      <!-- G2 -->
      <g transform="translate(104.889062 126.919219)scale(0.1 -0.1)">
       <use xlink:href="#DejaVuSans-71"/>
       <use x="77.490234" xlink:href="#DejaVuSans-50"/>
      </g>
     </g>
    </g>
    <g id="ytick_3">
     <g id="line2d_11">
      <g>
       <use style="stroke:#000000;stroke-width:0.8;" x="126" xlink:href="#mc50d39d80e" y="170.64"/>
      </g>
     </g>
     <g id="text_11">
      <!-- G3 -->
      <g transform="translate(104.889062 174.439219)scale(0.1 -0.1)">
       <use xlink:href="#DejaVuSans-71"/>
       <use x="77.490234" xlink:href="#DejaVuSans-51"/>
      </g>
     </g>
    </g>
    <g id="ytick_4">
     <g id="line2d_12">
      <g>
       <use style="stroke:#000000;stroke-width:0.8;" x="126" xlink:href="#mc50d39d80e" y="218.16"/>
      </g>
     </g>
     <g id="text_12">
      <!-- G4 -->
      <g transform="translate(104.889062 221.959219)scale(0.1 -0.1)">
       <use xlink:href="#DejaVuSans-71"/>
       <use x="77.490234" xlink:href="#DejaVuSans-52"/>
      </g>
     </g>
    </g>
    <g id="ytick_5">
     <g id="line2d_13">
      <g>
       <use style="stroke:#000000;stroke-width:0.8;" x="126" xlink:href="#mc50d39d80e" y="265.68"/>
      </g>
     </g>
     <g id="text_13">
      <!-- G5 -->
      <g transform="translate(104.889062 269.479219)scale(0.1 -0.1)">
       <defs>
        <path d="M 10.796875 72.90625 
L 49.515625 72.90625 
L 49.515625 64.59375 
L 19.828125 64.59375 
L 19.828125 46.734375 
Q 21.96875 47.46875 24.109375 47.828125 
Q 26.265625 48.1875 28.421875 48.1875 
Q 40.625 48.1875 47.75 41.5 
Q 54.890625 34.8125 54.890625 23.390625 
Q 54.890625 11.625 47.5625 5.09375 
Q 40.234375 -1.421875 26.90625 -1.421875 
Q 22.3125 -1.421875 17.546875 -0.640625 
Q 12.796875 0.140625 7.71875 1.703125 
L 7.71875 11.625 
Q 12.109375 9.234375 16.796875 8.0625 
Q 21.484375 6.890625 26.703125 6.890625 
Q 35.15625 6.890625 40.078125 11.328125 
Q 45.015625 15.765625 45.015625 23.390625 
Q 45.015625 31 40.078125 35.4375 
Q 35.15625 39.890625 26.703125 39.890625 
Q 22.75 39.890625 18.8125 39.015625 
Q 14.890625 38.140625 10.796875 36.28125 
z
" id="DejaVuSans-53"/>
       </defs>
       <use xlink:href="#DejaVuSans-71"/>
       <use x="77.490234" xlink:href="#DejaVuSans-53"/>
      </g>
     </g>
    </g>
    <g id="ytick_6">
     <g id="line2d_14">
      <g>
       <use style="stroke:#000000;stroke-width:0.8;" x="126" xlink:href="#mc50d39d80e" y="313.2"/>
      </g>
     </g>
     <g id="text_14">
      <!-- G6 -->
      <g transform="translate(104.889062 316.999219)scale(0.1 -0.1)">
       <use xlink:href="#DejaVuSans-71"/>
       <use x="77.490234" xlink:href="#DejaVuSans-54"/>
      </g>
     </g>
    </g>
    <g id="ytick_7">
     <g id="line2d_15">
      <g>
       <use style="stroke:#000000;stroke-width:0.8;" x="126" xlink:href="#mc50d39d80e" y="360.72"/>
      </g>
     </g>
     <g id="text_15">
      <!-- G7 -->
      <g transform="translate(104.889062 364.519219)scale(0.1 -0.1)">
       <use xlink:href="#DejaVuSans-71"/>
       <use x="77.490234" xlink:href="#DejaVuSans-55"/>
      </g>
     </g>
    </g>
   </g>
   <g id="text_16">
    <!-- G -->
    <g style="fill:#ffffff;" transform="translate(145.868651 77.255625)scale(0.06 -0.06)">
     <use xlink:href="#DejaVuSans-71"/>
    </g>
   </g>
   <g id="text_17">
    <!-- G -->
    <g style="fill:#ffffff;" transform="translate(190.255014 77.255625)scale(0.06 -0.06)">
     <use xlink:href="#DejaVuSans-71"/>
    </g>
   </g>
   <g id="text_18">
    <!-- C -->
    <g style="fill:#ffffff;" transform="translate(234.871065 77.255625)scale(0.06 -0.06)">
     <defs>
      <path d="M 64.40625 67.28125 
L 64.40625 56.890625 
Q 59.421875 61.53125 53.78125 63.8125 
Q 48.140625 66.109375 41.796875 66.109375 
Q 29.296875 66.109375 22.65625 58.46875 
Q 16.015625 50.828125 16.015625 36.375 
Q 16.015625 21.96875 22.65625 14.328125 
Q 29.296875 6.6875 41.796875 6.6875 
Q 48.140625 6.6875 53.78125 8.984375 
Q 59.421875 11.28125 64.40625 15.921875 
L 64.40625 5.609375 
Q 59.234375 2.09375 53.4375 0.328125 
Q 47.65625 -1.421875 41.21875 -1.421875 
Q 24.65625 -1.421875 15.125 8.703125 
Q 5.609375 18.84375 5.609375 36.375 
Q 5.609375 53.953125 15.125 64.078125 
Q 24.65625 74.21875 41.21875 74.21875 
Q 47.75 74.21875 53.53125 72.484375 
Q 59.328125 70.75 64.40625 67.28125 
z
" id="DejaVuSans-67"/>
     </defs>
     <use xlink:href="#DejaVuSans-67"/>
    </g>
   </g>
   <g id="text_19">
    <!-- T -->
    <g style="fill:#ffffff;" transform="translate(279.519929 77.255625)scale(0.06 -0.06)">
     <defs>
      <path d="M -0.296875 72.90625 
L 61.375 72.90625 
L 61.375 64.59375 
L 35.5 64.59375 
L 35.5 0 
L 25.59375 0 
L 25.59375 64.59375 
L -0.296875 64.59375 
z
" id="DejaVuSans-84"/>
     </defs>
     <use xlink:href="#DejaVuSans-84"/>
    </g>
   </g>
   <g id="text_20">
    <!-- T -->
    <g style="fill:#ffffff;" transform="translate(323.906293 77.255625)scale(0.06 -0.06)">
     <use xlink:href="#DejaVuSans-84"/>
    </g>
   </g>
   <g id="text_21">
    <!-- T -->
    <g style="fill:#ffffff;" transform="translate(368.292656 77.255625)scale(0.06 -0.06)">
     <use xlink:href="#DejaVuSans-84"/>
    </g>
   </g>
   <g id="text_22">
    <!-- G -->
    <g style="fill:#ffffff;" transform="translate(412.186832 77.255625)scale(0.06 -0.06)">
     <use xlink:href="#DejaVuSans-71"/>
    </g>
   </g>
   <g id="text_23">
    <!-- G -->
    <g style="fill:#ffffff;" transform="translate(456.573196 77.255625)scale(0.06 -0.06)">
     <use xlink:href="#DejaVuSans-71"/>
    </g>
   </g>
   <g id="text_24">
    <!-- G -->
    <g style="fill:#ffffff;" transform="translate(145.868651 124.775625)scale(0.06 -0.06)">
     <use xlink:href="#DejaVuSans-71"/>
    </g>
   </g>
   <g id="text_25">
    <!-- G -->
    <g style="fill:#ffffff;" transform="translate(190.255014 124.775625)scale(0.06 -0.06)">
     <use xlink:href="#DejaVuSans-71"/>
    </g>
   </g>
   <g id="text_26">
    <!-- C -->
    <g style="fill:#ffffff;" transform="translate(234.871065 124.775625)scale(0.06 -0.06)">
     <use xlink:href="#DejaVuSans-67"/>
    </g>
   </g>
   <g id="text_27">
    <!-- T -->
    <g style="fill:#ffffff;" transform="translate(279.519929 124.775625)scale(0.06 -0.06)">
     <use xlink:href="#DejaVuSans-84"/>
    </g>
   </g>
   <g id="text_28">
    <!-- C/T -->
    <g style="fill:#262626;" transform="translate(320.800824 124.775625)scale(0.06 -0.06)">
     <defs>
      <path d="M 25.390625 72.90625 
L 33.6875 72.90625 
L 8.296875 -9.28125 
L 0 -9.28125 
z
" id="DejaVuSans-47"/>
     </defs>
     <use xlink:href="#DejaVuSans-67"/>
     <use x="69.824219" xlink:href="#DejaVuSans-47"/>
     <use x="103.515625" xlink:href="#DejaVuSans-84"/>
    </g>
   </g>
   <g id="text_29">
    <!-- T -->
    <g style="fill:#ffffff;" transform="translate(368.292656 124.775625)scale(0.06 -0.06)">
     <use xlink:href="#DejaVuSans-84"/>
    </g>
   </g>
   <g id="text_30">
    <!-- G -->
    <g style="fill:#ffffff;" transform="translate(412.186832 124.775625)scale(0.06 -0.06)">
     <use xlink:href="#DejaVuSans-71"/>
    </g>
   </g>
   <g id="text_31">
    <!-- G -->
    <g style="fill:#ffffff;" transform="translate(456.573196 124.775625)scale(0.06 -0.06)">
     <use xlink:href="#DejaVuSans-71"/>
    </g>
   </g>
   <g id="text_32">
    <!-- G -->
    <g style="fill:#ffffff;" transform="translate(145.868651 172.295625)scale(0.06 -0.06)">
     <use xlink:href="#DejaVuSans-71"/>
    </g>
   </g>
   <g id="text_33">
    <!-- G -->
    <g style="fill:#ffffff;" transform="translate(190.255014 172.295625)scale(0.06 -0.06)">
     <use xlink:href="#DejaVuSans-71"/>
    </g>
   </g>
   <g id="text_34">
    <!-- C/G -->
    <g style="fill:#262626;" transform="translate(231.535909 172.295625)scale(0.06 -0.06)">
     <use xlink:href="#DejaVuSans-67"/>
     <use x="69.824219" xlink:href="#DejaVuSans-47"/>
     <use x="103.515625" xlink:href="#DejaVuSans-71"/>
    </g>
   </g>
   <g id="text_35">
    <!-- T -->
    <g style="fill:#ffffff;" transform="translate(279.519929 172.295625)scale(0.06 -0.06)">
     <use xlink:href="#DejaVuSans-84"/>
    </g>
   </g>
   <g id="text_36">
    <!-- T -->
    <g style="fill:#ffffff;" transform="translate(323.906293 172.295625)scale(0.06 -0.06)">
     <use xlink:href="#DejaVuSans-84"/>
    </g>
   </g>
   <g id="text_37">
    <!-- T -->
    <g style="fill:#ffffff;" transform="translate(368.292656 172.295625)scale(0.06 -0.06)">
     <use xlink:href="#DejaVuSans-84"/>
    </g>
   </g>
   <g id="text_38">
    <!-- G -->
    <g style="fill:#ffffff;" transform="translate(412.186832 172.295625)scale(0.06 -0.06)">
     <use xlink:href="#DejaVuSans-71"/>
    </g>
   </g>
   <g id="text_39">
    <!-- A/G -->
    <g style="fill:#262626;" transform="translate(453.510384 172.295625)scale(0.06 -0.06)">
     <defs>
      <path d="M 34.1875 63.1875 
L 20.796875 26.90625 
L 47.609375 26.90625 
z
M 28.609375 72.90625 
L 39.796875 72.90625 
L 67.578125 0 
L 57.328125 0 
L 50.6875 18.703125 
L 17.828125 18.703125 
L 11.1875 0 
L 0.78125 0 
z
" id="DejaVuSans-65"/>
     </defs>
     <use xlink:href="#DejaVuSans-65"/>
     <use x="68.408203" xlink:href="#DejaVuSans-47"/>
     <use x="102.099609" xlink:href="#DejaVuSans-71"/>
    </g>
   </g>
   <g id="text_40">
    <!-- G -->
    <g style="fill:#ffffff;" transform="translate(145.868651 219.815625)scale(0.06 -0.06)">
     <use xlink:href="#DejaVuSans-71"/>
    </g>
   </g>
   <g id="text_41">
    <!-- G -->
    <g style="fill:#ffffff;" transform="translate(190.255014 219.815625)scale(0.06 -0.06)">
     <use xlink:href="#DejaVuSans-71"/>
    </g>
   </g>
   <g id="text_42">
    <!-- C -->
    <g style="fill:#ffffff;" transform="translate(234.871065 219.815625)scale(0.06 -0.06)">
     <use xlink:href="#DejaVuSans-67"/>
    </g>
   </g>
   <g id="text_43">
    <!-- T -->
    <g style="fill:#ffffff;" transform="translate(279.519929 219.815625)scale(0.06 -0.06)">
     <use xlink:href="#DejaVuSans-84"/>
    </g>
   </g>
   <g id="text_44">
    <!-- T -->
    <g style="fill:#ffffff;" transform="translate(323.906293 219.815625)scale(0.06 -0.06)">
     <use xlink:href="#DejaVuSans-84"/>
    </g>
   </g>
   <g id="text_45">
    <!-- T -->
    <g style="fill:#ffffff;" transform="translate(368.292656 219.815625)scale(0.06 -0.06)">
     <use xlink:href="#DejaVuSans-84"/>
    </g>
   </g>
   <g id="text_46">
    <!-- G -->
    <g style="fill:#ffffff;" transform="translate(412.186832 219.815625)scale(0.06 -0.06)">
     <use xlink:href="#DejaVuSans-71"/>
    </g>
   </g>
   <g id="text_47">
    <!-- A/G -->
    <g style="fill:#262626;" transform="translate(453.510384 219.815625)scale(0.06 -0.06)">
     <use xlink:href="#DejaVuSans-65"/>
     <use x="68.408203" xlink:href="#DejaVuSans-47"/>
     <use x="102.099609" xlink:href="#DejaVuSans-71"/>
    </g>
   </g>
   <g id="text_48">
    <!-- C/G -->
    <g style="fill:#262626;" transform="translate(142.763182 267.335625)scale(0.06 -0.06)">
     <use xlink:href="#DejaVuSans-67"/>
     <use x="69.824219" xlink:href="#DejaVuSans-47"/>
     <use x="103.515625" xlink:href="#DejaVuSans-71"/>
    </g>
   </g>
   <g id="text_49">
    <!-- A/G -->
    <g style="fill:#262626;" transform="translate(187.192202 267.335625)scale(0.06 -0.06)">
     <use xlink:href="#DejaVuSans-65"/>
     <use x="68.408203" xlink:href="#DejaVuSans-47"/>
     <use x="102.099609" xlink:href="#DejaVuSans-71"/>
    </g>
   </g>
   <g id="text_50">
    <!-- C -->
    <g style="fill:#ffffff;" transform="translate(234.871065 267.335625)scale(0.06 -0.06)">
     <use xlink:href="#DejaVuSans-67"/>
    </g>
   </g>
   <g id="text_51">
    <!-- T -->
    <g style="fill:#ffffff;" transform="translate(279.519929 267.335625)scale(0.06 -0.06)">
     <use xlink:href="#DejaVuSans-84"/>
    </g>
   </g>
   <g id="text_52">
    <!-- T -->
    <g style="fill:#ffffff;" transform="translate(323.906293 267.335625)scale(0.06 -0.06)">
     <use xlink:href="#DejaVuSans-84"/>
    </g>
   </g>
   <g id="text_53">
    <!-- T -->
    <g style="fill:#ffffff;" transform="translate(368.292656 267.335625)scale(0.06 -0.06)">
     <use xlink:href="#DejaVuSans-84"/>
    </g>
   </g>
   <g id="text_54">
    <!-- G -->
    <g style="fill:#ffffff;" transform="translate(412.186832 267.335625)scale(0.06 -0.06)">
     <use xlink:href="#DejaVuSans-71"/>
    </g>
   </g>
   <g id="text_55">
    <!-- G -->
    <g style="fill:#ffffff;" transform="translate(456.573196 267.335625)scale(0.06 -0.06)">
     <use xlink:href="#DejaVuSans-71"/>
    </g>
   </g>
   <g id="text_56">
    <!-- G -->
    <g style="fill:#ffffff;" transform="translate(145.868651 314.855625)scale(0.06 -0.06)">
     <use xlink:href="#DejaVuSans-71"/>
    </g>
   </g>
   <g id="text_57">
    <!-- G -->
    <g style="fill:#ffffff;" transform="translate(190.255014 314.855625)scale(0.06 -0.06)">
     <use xlink:href="#DejaVuSans-71"/>
    </g>
   </g>
   <g id="text_58">
    <!-- */C -->
    <g style="fill:#262626;" transform="translate(232.36044 314.855625)scale(0.06 -0.06)">
     <defs>
      <path d="M 47.015625 60.890625 
L 29.5 51.421875 
L 47.015625 41.890625 
L 44.1875 37.109375 
L 27.78125 47.015625 
L 27.78125 28.609375 
L 22.21875 28.609375 
L 22.21875 47.015625 
L 5.8125 37.109375 
L 2.984375 41.890625 
L 20.515625 51.421875 
L 2.984375 60.890625 
L 5.8125 65.71875 
L 22.21875 55.8125 
L 22.21875 74.21875 
L 27.78125 74.21875 
L 27.78125 55.8125 
L 44.1875 65.71875 
z
" id="DejaVuSans-42"/>
     </defs>
     <use xlink:href="#DejaVuSans-42"/>
     <use x="50" xlink:href="#DejaVuSans-47"/>
     <use x="83.691406" xlink:href="#DejaVuSans-67"/>
    </g>
   </g>
   <g id="text_59">
    <!-- T -->
    <g style="fill:#ffffff;" transform="translate(279.519929 314.855625)scale(0.06 -0.06)">
     <use xlink:href="#DejaVuSans-84"/>
    </g>
   </g>
   <g id="text_60">
    <!-- C/T -->
    <g style="fill:#262626;" transform="translate(320.800824 314.855625)scale(0.06 -0.06)">
     <use xlink:href="#DejaVuSans-67"/>
     <use x="69.824219" xlink:href="#DejaVuSans-47"/>
     <use x="103.515625" xlink:href="#DejaVuSans-84"/>
    </g>
   </g>
   <g id="text_61">
    <!-- C/T -->
    <g style="fill:#262626;" transform="translate(365.187187 314.855625)scale(0.06 -0.06)">
     <use xlink:href="#DejaVuSans-67"/>
     <use x="69.824219" xlink:href="#DejaVuSans-47"/>
     <use x="103.515625" xlink:href="#DejaVuSans-84"/>
    </g>
   </g>
   <g id="text_62">
    <!-- A/G -->
    <g style="fill:#262626;" transform="translate(409.12402 314.855625)scale(0.06 -0.06)">
     <use xlink:href="#DejaVuSans-65"/>
     <use x="68.408203" xlink:href="#DejaVuSans-47"/>
     <use x="102.099609" xlink:href="#DejaVuSans-71"/>
    </g>
   </g>
   <g id="text_63">
    <!-- */G -->
    <g style="fill:#262626;" transform="translate(454.062571 314.855625)scale(0.06 -0.06)">
     <use xlink:href="#DejaVuSans-42"/>
     <use x="50" xlink:href="#DejaVuSans-47"/>
     <use x="83.691406" xlink:href="#DejaVuSans-71"/>
    </g>
   </g>
   <g id="text_64">
    <!-- G -->
    <g style="fill:#ffffff;" transform="translate(145.868651 362.375625)scale(0.06 -0.06)">
     <use xlink:href="#DejaVuSans-71"/>
    </g>
   </g>
   <g id="text_65">
    <!-- G -->
    <g style="fill:#ffffff;" transform="translate(190.255014 362.375625)scale(0.06 -0.06)">
     <use xlink:href="#DejaVuSans-71"/>
    </g>
   </g>
   <g id="text_66">
    <!-- C -->
    <g style="fill:#ffffff;" transform="translate(234.871065 362.375625)scale(0.06 -0.06)">
     <use xlink:href="#DejaVuSans-67"/>
    </g>
   </g>
   <g id="text_67">
    <!-- T -->
    <g style="fill:#ffffff;" transform="translate(279.519929 362.375625)scale(0.06 -0.06)">
     <use xlink:href="#DejaVuSans-84"/>
    </g>
   </g>
   <g id="text_68">
    <!-- C/T/T -->
    <g style="fill:#262626;" transform="translate(317.957855 362.375625)scale(0.06 -0.06)">
     <use xlink:href="#DejaVuSans-67"/>
     <use x="69.824219" xlink:href="#DejaVuSans-47"/>
     <use x="103.515625" xlink:href="#DejaVuSans-84"/>
     <use x="164.599609" xlink:href="#DejaVuSans-47"/>
     <use x="198.291016" xlink:href="#DejaVuSans-84"/>
    </g>
   </g>
   <g id="text_69">
    <!-- T -->
    <g style="fill:#ffffff;" transform="translate(368.292656 362.375625)scale(0.06 -0.06)">
     <use xlink:href="#DejaVuSans-84"/>
    </g>
   </g>
   <g id="text_70">
    <!-- G -->
    <g style="fill:#ffffff;" transform="translate(412.186832 362.375625)scale(0.06 -0.06)">
     <use xlink:href="#DejaVuSans-71"/>
    </g>
   </g>
   <g id="text_71">
    <!-- A/G/G -->
    <g style="fill:#262626;" transform="translate(450.175227 362.375625)scale(0.06 -0.06)">
     <use xlink:href="#DejaVuSans-65"/>
     <use x="68.408203" xlink:href="#DejaVuSans-47"/>
     <use x="102.099609" xlink:href="#DejaVuSans-71"/>
     <use x="179.589844" xlink:href="#DejaVuSans-47"/>
     <use x="213.28125" xlink:href="#DejaVuSans-71"/>
    </g>
   </g>
  </g>
  <g id="axes_2">
   <g id="patch_3">
    <path d="M 552.109091 384.48 
L 907.2 384.48 
L 907.2 51.84 
L 552.109091 51.84 
z
" style="fill:#ffffff;"/>
   </g>
   <g id="patch_4">
    <path clip-path="url(#p022e472724)" d="M 552.109091 56.592 
L 890.290909 56.592 
L 890.290909 94.608 
L 552.109091 94.608 
z
" style="fill:#2e8262;"/>
   </g>
   <g id="patch_5">
    <path clip-path="url(#p022e472724)" d="M 552.109091 104.112 
L 573.766055 104.112 
L 573.766055 142.128 
L 552.109091 142.128 
z
" style="fill:#4c9468;"/>
   </g>
   <g id="patch_6">
    <path clip-path="url(#p022e472724)" d="M 552.109091 151.632 
L 560.438692 151.632 
L 560.438692 189.648 
L 552.109091 189.648 
z
" style="fill:#6aa66e;"/>
   </g>
   <g id="patch_7">
    <path clip-path="url(#p022e472724)" d="M 552.109091 199.152 
L 558.772772 199.152 
L 558.772772 237.168 
L 552.109091 237.168 
z
" style="fill:#85b471;"/>
   </g>
   <g id="patch_8">
    <path clip-path="url(#p022e472724)" d="M 552.109091 246.672 
L 557.106852 246.672 
L 557.106852 284.688 
L 552.109091 284.688 
z
" style="fill:#9fc273;"/>
   </g>
   <g id="patch_9">
    <path clip-path="url(#p022e472724)" d="M 552.109091 294.192 
L 555.440931 294.192 
L 555.440931 332.208 
L 552.109091 332.208 
z
" style="fill:#b9d075;"/>
   </g>
   <g id="patch_10">
    <path clip-path="url(#p022e472724)" d="M 552.109091 341.712 
L 555.440931 341.712 
L 555.440931 379.728 
L 552.109091 379.728 
z
" style="fill:#d3de77;"/>
   </g>
   <g id="matplotlib.axis_3">
    <g id="xtick_9">
     <g id="line2d_16">
      <g>
       <use style="stroke:#000000;stroke-width:0.8;" x="552.109091" xlink:href="#mddce05443c" y="384.48"/>
      </g>
     </g>
     <g id="text_72">
      <!-- 0 -->
      <g transform="translate(548.927841 399.078438)scale(0.1 -0.1)">
       <defs>
        <path d="M 31.78125 66.40625 
Q 24.171875 66.40625 20.328125 58.90625 
Q 16.5 51.421875 16.5 36.375 
Q 16.5 21.390625 20.328125 13.890625 
Q 24.171875 6.390625 31.78125 6.390625 
Q 39.453125 6.390625 43.28125 13.890625 
Q 47.125 21.390625 47.125 36.375 
Q 47.125 51.421875 43.28125 58.90625 
Q 39.453125 66.40625 31.78125 66.40625 
z
M 31.78125 74.21875 
Q 44.046875 74.21875 50.515625 64.515625 
Q 56.984375 54.828125 56.984375 36.375 
Q 56.984375 17.96875 50.515625 8.265625 
Q 44.046875 -1.421875 31.78125 -1.421875 
Q 19.53125 -1.421875 13.0625 8.265625 
Q 6.59375 17.96875 6.59375 36.375 
Q 6.59375 54.828125 13.0625 64.515625 
Q 19.53125 74.21875 31.78125 74.21875 
z
" id="DejaVuSans-48"/>
       </defs>
       <use xlink:href="#DejaVuSans-48"/>
      </g>
     </g>
    </g>
    <g id="xtick_10">
     <g id="line2d_17">
      <g>
       <use style="stroke:#000000;stroke-width:0.8;" x="593.757098" xlink:href="#mddce05443c" y="384.48"/>
      </g>
     </g>
     <g id="text_73">
      <!-- 25 -->
      <g transform="translate(587.394598 399.078438)scale(0.1 -0.1)">
       <use xlink:href="#DejaVuSans-50"/>
       <use x="63.623047" xlink:href="#DejaVuSans-53"/>
      </g>
     </g>
    </g>
    <g id="xtick_11">
     <g id="line2d_18">
      <g>
       <use style="stroke:#000000;stroke-width:0.8;" x="635.405105" xlink:href="#mddce05443c" y="384.48"/>
      </g>
     </g>
     <g id="text_74">
      <!-- 50 -->
      <g transform="translate(629.042605 399.078438)scale(0.1 -0.1)">
       <use xlink:href="#DejaVuSans-53"/>
       <use x="63.623047" xlink:href="#DejaVuSans-48"/>
      </g>
     </g>
    </g>
    <g id="xtick_12">
     <g id="line2d_19">
      <g>
       <use style="stroke:#000000;stroke-width:0.8;" x="677.053112" xlink:href="#mddce05443c" y="384.48"/>
      </g>
     </g>
     <g id="text_75">
      <!-- 75 -->
      <g transform="translate(670.690612 399.078438)scale(0.1 -0.1)">
       <use xlink:href="#DejaVuSans-55"/>
       <use x="63.623047" xlink:href="#DejaVuSans-53"/>
      </g>
     </g>
    </g>
    <g id="xtick_13">
     <g id="line2d_20">
      <g>
       <use style="stroke:#000000;stroke-width:0.8;" x="718.70112" xlink:href="#mddce05443c" y="384.48"/>
      </g>
     </g>
     <g id="text_76">
      <!-- 100 -->
      <g transform="translate(709.15737 399.078438)scale(0.1 -0.1)">
       <use xlink:href="#DejaVuSans-49"/>
       <use x="63.623047" xlink:href="#DejaVuSans-48"/>
       <use x="127.246094" xlink:href="#DejaVuSans-48"/>
      </g>
     </g>
    </g>
    <g id="xtick_14">
     <g id="line2d_21">
      <g>
       <use style="stroke:#000000;stroke-width:0.8;" x="760.349127" xlink:href="#mddce05443c" y="384.48"/>
      </g>
     </g>
     <g id="text_77">
      <!-- 125 -->
      <g transform="translate(750.805377 399.078438)scale(0.1 -0.1)">
       <use xlink:href="#DejaVuSans-49"/>
       <use x="63.623047" xlink:href="#DejaVuSans-50"/>
       <use x="127.246094" xlink:href="#DejaVuSans-53"/>
      </g>
     </g>
    </g>
    <g id="xtick_15">
     <g id="line2d_22">
      <g>
       <use style="stroke:#000000;stroke-width:0.8;" x="801.997134" xlink:href="#mddce05443c" y="384.48"/>
      </g>
     </g>
     <g id="text_78">
      <!-- 150 -->
      <g transform="translate(792.453384 399.078438)scale(0.1 -0.1)">
       <use xlink:href="#DejaVuSans-49"/>
       <use x="63.623047" xlink:href="#DejaVuSans-53"/>
       <use x="127.246094" xlink:href="#DejaVuSans-48"/>
      </g>
     </g>
    </g>
    <g id="xtick_16">
     <g id="line2d_23">
      <g>
       <use style="stroke:#000000;stroke-width:0.8;" x="843.645141" xlink:href="#mddce05443c" y="384.48"/>
      </g>
     </g>
     <g id="text_79">
      <!-- 175 -->
      <g transform="translate(834.101391 399.078438)scale(0.1 -0.1)">
       <use xlink:href="#DejaVuSans-49"/>
       <use x="63.623047" xlink:href="#DejaVuSans-55"/>
       <use x="127.246094" xlink:href="#DejaVuSans-53"/>
      </g>
     </g>
    </g>
    <g id="xtick_17">
     <g id="line2d_24">
      <g>
       <use style="stroke:#000000;stroke-width:0.8;" x="885.293148" xlink:href="#mddce05443c" y="384.48"/>
      </g>
     </g>
     <g id="text_80">
      <!-- 200 -->
      <g transform="translate(875.749398 399.078438)scale(0.1 -0.1)">
       <use xlink:href="#DejaVuSans-50"/>
       <use x="63.623047" xlink:href="#DejaVuSans-48"/>
       <use x="127.246094" xlink:href="#DejaVuSans-48"/>
      </g>
     </g>
    </g>
    <g id="text_81">
     <!-- # individuals -->
     <g transform="translate(697.005327 412.756563)scale(0.1 -0.1)">
      <defs>
       <path d="M 51.125 44 
L 36.921875 44 
L 32.8125 27.6875 
L 47.125 27.6875 
z
M 43.796875 71.78125 
L 38.71875 51.515625 
L 52.984375 51.515625 
L 58.109375 71.78125 
L 65.921875 71.78125 
L 60.890625 51.515625 
L 76.125 51.515625 
L 76.125 44 
L 58.984375 44 
L 54.984375 27.6875 
L 70.515625 27.6875 
L 70.515625 20.21875 
L 53.078125 20.21875 
L 48 0 
L 40.1875 0 
L 45.21875 20.21875 
L 30.90625 20.21875 
L 25.875 0 
L 18.015625 0 
L 23.09375 20.21875 
L 7.71875 20.21875 
L 7.71875 27.6875 
L 24.90625 27.6875 
L 29 44 
L 13.28125 44 
L 13.28125 51.515625 
L 30.90625 51.515625 
L 35.890625 71.78125 
z
" id="DejaVuSans-35"/>
       <path id="DejaVuSans-32"/>
       <path d="M 9.421875 54.6875 
L 18.40625 54.6875 
L 18.40625 0 
L 9.421875 0 
z
M 9.421875 75.984375 
L 18.40625 75.984375 
L 18.40625 64.59375 
L 9.421875 64.59375 
z
" id="DejaVuSans-105"/>
       <path d="M 54.890625 33.015625 
L 54.890625 0 
L 45.90625 0 
L 45.90625 32.71875 
Q 45.90625 40.484375 42.875 44.328125 
Q 39.84375 48.1875 33.796875 48.1875 
Q 26.515625 48.1875 22.3125 43.546875 
Q 18.109375 38.921875 18.109375 30.90625 
L 18.109375 0 
L 9.078125 0 
L 9.078125 54.6875 
L 18.109375 54.6875 
L 18.109375 46.1875 
Q 21.34375 51.125 25.703125 53.5625 
Q 30.078125 56 35.796875 56 
Q 45.21875 56 50.046875 50.171875 
Q 54.890625 44.34375 54.890625 33.015625 
z
" id="DejaVuSans-110"/>
       <path d="M 45.40625 46.390625 
L 45.40625 75.984375 
L 54.390625 75.984375 
L 54.390625 0 
L 45.40625 0 
L 45.40625 8.203125 
Q 42.578125 3.328125 38.25 0.953125 
Q 33.9375 -1.421875 27.875 -1.421875 
Q 17.96875 -1.421875 11.734375 6.484375 
Q 5.515625 14.40625 5.515625 27.296875 
Q 5.515625 40.1875 11.734375 48.09375 
Q 17.96875 56 27.875 56 
Q 33.9375 56 38.25 53.625 
Q 42.578125 51.265625 45.40625 46.390625 
z
M 14.796875 27.296875 
Q 14.796875 17.390625 18.875 11.75 
Q 22.953125 6.109375 30.078125 6.109375 
Q 37.203125 6.109375 41.296875 11.75 
Q 45.40625 17.390625 45.40625 27.296875 
Q 45.40625 37.203125 41.296875 42.84375 
Q 37.203125 48.484375 30.078125 48.484375 
Q 22.953125 48.484375 18.875 42.84375 
Q 14.796875 37.203125 14.796875 27.296875 
z
" id="DejaVuSans-100"/>
       <path d="M 2.984375 54.6875 
L 12.5 54.6875 
L 29.59375 8.796875 
L 46.6875 54.6875 
L 56.203125 54.6875 
L 35.6875 0 
L 23.484375 0 
z
" id="DejaVuSans-118"/>
       <path d="M 8.5 21.578125 
L 8.5 54.6875 
L 17.484375 54.6875 
L 17.484375 21.921875 
Q 17.484375 14.15625 20.5 10.265625 
Q 23.53125 6.390625 29.59375 6.390625 
Q 36.859375 6.390625 41.078125 11.03125 
Q 45.3125 15.671875 45.3125 23.6875 
L 45.3125 54.6875 
L 54.296875 54.6875 
L 54.296875 0 
L 45.3125 0 
L 45.3125 8.40625 
Q 42.046875 3.421875 37.71875 1 
Q 33.40625 -1.421875 27.6875 -1.421875 
Q 18.265625 -1.421875 13.375 4.4375 
Q 8.5 10.296875 8.5 21.578125 
z
M 31.109375 56 
z
" id="DejaVuSans-117"/>
       <path d="M 34.28125 27.484375 
Q 23.390625 27.484375 19.1875 25 
Q 14.984375 22.515625 14.984375 16.5 
Q 14.984375 11.71875 18.140625 8.90625 
Q 21.296875 6.109375 26.703125 6.109375 
Q 34.1875 6.109375 38.703125 11.40625 
Q 43.21875 16.703125 43.21875 25.484375 
L 43.21875 27.484375 
z
M 52.203125 31.203125 
L 52.203125 0 
L 43.21875 0 
L 43.21875 8.296875 
Q 40.140625 3.328125 35.546875 0.953125 
Q 30.953125 -1.421875 24.3125 -1.421875 
Q 15.921875 -1.421875 10.953125 3.296875 
Q 6 8.015625 6 15.921875 
Q 6 25.140625 12.171875 29.828125 
Q 18.359375 34.515625 30.609375 34.515625 
L 43.21875 34.515625 
L 43.21875 35.40625 
Q 43.21875 41.609375 39.140625 45 
Q 35.0625 48.390625 27.6875 48.390625 
Q 23 48.390625 18.546875 47.265625 
Q 14.109375 46.140625 10.015625 43.890625 
L 10.015625 52.203125 
Q 14.9375 54.109375 19.578125 55.046875 
Q 24.21875 56 28.609375 56 
Q 40.484375 56 46.34375 49.84375 
Q 52.203125 43.703125 52.203125 31.203125 
z
" id="DejaVuSans-97"/>
       <path d="M 9.421875 75.984375 
L 18.40625 75.984375 
L 18.40625 0 
L 9.421875 0 
z
" id="DejaVuSans-108"/>
       <path d="M 44.28125 53.078125 
L 44.28125 44.578125 
Q 40.484375 46.53125 36.375 47.5 
Q 32.28125 48.484375 27.875 48.484375 
Q 21.1875 48.484375 17.84375 46.4375 
Q 14.5 44.390625 14.5 40.28125 
Q 14.5 37.15625 16.890625 35.375 
Q 19.28125 33.59375 26.515625 31.984375 
L 29.59375 31.296875 
Q 39.15625 29.25 43.1875 25.515625 
Q 47.21875 21.78125 47.21875 15.09375 
Q 47.21875 7.46875 41.1875 3.015625 
Q 35.15625 -1.421875 24.609375 -1.421875 
Q 20.21875 -1.421875 15.453125 -0.5625 
Q 10.6875 0.296875 5.421875 2 
L 5.421875 11.28125 
Q 10.40625 8.6875 15.234375 7.390625 
Q 20.0625 6.109375 24.8125 6.109375 
Q 31.15625 6.109375 34.5625 8.28125 
Q 37.984375 10.453125 37.984375 14.40625 
Q 37.984375 18.0625 35.515625 20.015625 
Q 33.0625 21.96875 24.703125 23.78125 
L 21.578125 24.515625 
Q 13.234375 26.265625 9.515625 29.90625 
Q 5.8125 33.546875 5.8125 39.890625 
Q 5.8125 47.609375 11.28125 51.796875 
Q 16.75 56 26.8125 56 
Q 31.78125 56 36.171875 55.265625 
Q 40.578125 54.546875 44.28125 53.078125 
z
" id="DejaVuSans-115"/>
      </defs>
      <use xlink:href="#DejaVuSans-35"/>
      <use x="83.789062" xlink:href="#DejaVuSans-32"/>
      <use x="115.576172" xlink:href="#DejaVuSans-105"/>
      <use x="143.359375" xlink:href="#DejaVuSans-110"/>
      <use x="206.738281" xlink:href="#DejaVuSans-100"/>
      <use x="270.214844" xlink:href="#DejaVuSans-105"/>
      <use x="297.998047" xlink:href="#DejaVuSans-118"/>
      <use x="357.177734" xlink:href="#DejaVuSans-105"/>
      <use x="384.960938" xlink:href="#DejaVuSans-100"/>
      <use x="448.4375" xlink:href="#DejaVuSans-117"/>
      <use x="511.816406" xlink:href="#DejaVuSans-97"/>
      <use x="573.095703" xlink:href="#DejaVuSans-108"/>
      <use x="600.878906" xlink:href="#DejaVuSans-115"/>
     </g>
    </g>
   </g>
   <g id="matplotlib.axis_4"/>
   <g id="line2d_25">
    <path clip-path="url(#p022e472724)" d="M 0 0 
" style="fill:none;stroke:#424242;stroke-linecap:square;stroke-width:2.7;"/>
   </g>
   <g id="line2d_26">
    <path clip-path="url(#p022e472724)" d="M 0 0 
" style="fill:none;stroke:#424242;stroke-linecap:square;stroke-width:2.7;"/>
   </g>
   <g id="line2d_27">
    <path clip-path="url(#p022e472724)" d="M 0 0 
" style="fill:none;stroke:#424242;stroke-linecap:square;stroke-width:2.7;"/>
   </g>
   <g id="line2d_28">
    <path clip-path="url(#p022e472724)" d="M 0 0 
" style="fill:none;stroke:#424242;stroke-linecap:square;stroke-width:2.7;"/>
   </g>
   <g id="line2d_29">
    <path clip-path="url(#p022e472724)" d="M 0 0 
" style="fill:none;stroke:#424242;stroke-linecap:square;stroke-width:2.7;"/>
   </g>
   <g id="line2d_30">
    <path clip-path="url(#p022e472724)" d="M 0 0 
" style="fill:none;stroke:#424242;stroke-linecap:square;stroke-width:2.7;"/>
   </g>
   <g id="line2d_31">
    <path clip-path="url(#p022e472724)" d="M 0 0 
" style="fill:none;stroke:#424242;stroke-linecap:square;stroke-width:2.7;"/>
   </g>
   <g id="patch_11">
    <path d="M 552.109091 384.48 
L 552.109091 51.84 
" style="fill:none;stroke:#000000;stroke-linecap:square;stroke-linejoin:miter;stroke-width:0.8;"/>
   </g>
   <g id="patch_12">
    <path d="M 907.2 384.48 
L 907.2 51.84 
" style="fill:none;stroke:#000000;stroke-linecap:square;stroke-linejoin:miter;stroke-width:0.8;"/>
   </g>
   <g id="patch_13">
    <path d="M 552.109091 384.48 
L 907.2 384.48 
" style="fill:none;stroke:#000000;stroke-linecap:square;stroke-linejoin:miter;stroke-width:0.8;"/>
   </g>
   <g id="patch_14">
    <path d="M 552.109091 51.84 
L 907.2 51.84 
" style="fill:none;stroke:#000000;stroke-linecap:square;stroke-linejoin:miter;stroke-width:0.8;"/>
   </g>
  </g>
  <g id="text_82">
   <!-- IGHV3-30-3 -->
   <g transform="translate(469.365 17.758125)scale(0.12 -0.12)">
    <defs>
     <path d="M 9.8125 72.90625 
L 19.671875 72.90625 
L 19.671875 0 
L 9.8125 0 
z
" id="DejaVuSans-73"/>
     <path d="M 9.8125 72.90625 
L 19.671875 72.90625 
L 19.671875 43.015625 
L 55.515625 43.015625 
L 55.515625 72.90625 
L 65.375 72.90625 
L 65.375 0 
L 55.515625 0 
L 55.515625 34.71875 
L 19.671875 34.71875 
L 19.671875 0 
L 9.8125 0 
z
" id="DejaVuSans-72"/>
     <path d="M 28.609375 0 
L 0.78125 72.90625 
L 11.078125 72.90625 
L 34.1875 11.53125 
L 57.328125 72.90625 
L 67.578125 72.90625 
L 39.796875 0 
z
" id="DejaVuSans-86"/>
     <path d="M 4.890625 31.390625 
L 31.203125 31.390625 
L 31.203125 23.390625 
L 4.890625 23.390625 
z
" id="DejaVuSans-45"/>
    </defs>
    <use xlink:href="#DejaVuSans-73"/>
    <use x="29.492188" xlink:href="#DejaVuSans-71"/>
    <use x="106.982422" xlink:href="#DejaVuSans-72"/>
    <use x="182.177734" xlink:href="#DejaVuSans-86"/>
    <use x="250.585938" xlink:href="#DejaVuSans-51"/>
    <use x="314.208984" xlink:href="#DejaVuSans-45"/>
    <use x="350.292969" xlink:href="#DejaVuSans-51"/>
    <use x="413.916016" xlink:href="#DejaVuSans-48"/>
    <use x="477.539062" xlink:href="#DejaVuSans-45"/>
    <use x="513.623047" xlink:href="#DejaVuSans-51"/>
   </g>
  </g>
 </g>
 <defs>
  <clipPath id="pff4a207ef0">
   <rect height="332.64" width="355.090909" x="126" y="51.84"/>
  </clipPath>
  <clipPath id="p022e472724">
   <rect height="332.64" width="355.090909" x="552.109091" y="51.84"/>
  </clipPath>
 </defs>
</svg>
