<?xml version="1.0" encoding="utf-8" standalone="no"?>
<!DOCTYPE svg PUBLIC "-//W3C//DTD SVG 1.1//EN"
  "http://www.w3.org/Graphics/SVG/1.1/DTD/svg11.dtd">
<!-- Created with matplotlib (https://matplotlib.org/) -->
<svg height="432pt" version="1.1" viewBox="0 0 1008 432" width="1008pt" xmlns="http://www.w3.org/2000/svg" xmlns:xlink="http://www.w3.org/1999/xlink">
 <metadata>
  <rdf:RDF xmlns:cc="http://creativecommons.org/ns#" xmlns:dc="http://purl.org/dc/elements/1.1/" xmlns:rdf="http://www.w3.org/1999/02/22-rdf-syntax-ns#">
   <cc:Work>
    <dc:type rdf:resource="http://purl.org/dc/dcmitype/StillImage"/>
    <dc:date>2021-01-02T10:07:16.442838</dc:date>
    <dc:format>image/svg+xml</dc:format>
    <dc:creator>
     <cc:Agent>
      <dc:title>Matplotlib v3.3.2, https://matplotlib.org/</dc:title>
     </cc:Agent>
    </dc:creator>
   </cc:Work>
  </rdf:RDF>
 </metadata>
 <defs>
  <style type="text/css">*{stroke-linecap:butt;stroke-linejoin:round;}</style>
 </defs>
 <g id="figure_1">
  <g id="patch_1">
   <path d="M 0 432 
L 1008 432 
L 1008 0 
L 0 0 
z
" style="fill:#ffffff;"/>
  </g>
  <g id="axes_1">
   <g id="patch_2">
    <path d="M 126 384.48 
L 481.090909 384.48 
L 481.090909 51.84 
L 126 51.84 
z
" style="fill:#ffffff;"/>
   </g>
   <g id="QuadMesh_1">
    <path clip-path="url(#pca8ba48515)" d="M 126 51.84 
L 197.018182 51.84 
L 197.018182 79.56 
L 126 79.56 
L 126 51.84 
" style="fill:#3b4cc0;stroke:#ffffff;stroke-width:0.2;"/>
    <path clip-path="url(#pca8ba48515)" d="M 197.018182 51.84 
L 268.036364 51.84 
L 268.036364 79.56 
L 197.018182 79.56 
L 197.018182 51.84 
" style="fill:#dddcdc;stroke:#ffffff;stroke-width:0.2;"/>
    <path clip-path="url(#pca8ba48515)" d="M 268.036364 51.84 
L 339.054545 51.84 
L 339.054545 79.56 
L 268.036364 79.56 
L 268.036364 51.84 
" style="fill:#3b4cc0;stroke:#ffffff;stroke-width:0.2;"/>
    <path clip-path="url(#pca8ba48515)" d="M 339.054545 51.84 
L 410.072727 51.84 
L 410.072727 79.56 
L 339.054545 79.56 
L 339.054545 51.84 
" style="fill:#3b4cc0;stroke:#ffffff;stroke-width:0.2;"/>
    <path clip-path="url(#pca8ba48515)" d="M 410.072727 51.84 
L 481.090909 51.84 
L 481.090909 79.56 
L 410.072727 79.56 
L 410.072727 51.84 
" style="fill:#3b4cc0;stroke:#ffffff;stroke-width:0.2;"/>
    <path clip-path="url(#pca8ba48515)" d="M 126 79.56 
L 197.018182 79.56 
L 197.018182 107.28 
L 126 107.28 
L 126 79.56 
" style="fill:#3b4cc0;stroke:#ffffff;stroke-width:0.2;"/>
    <path clip-path="url(#pca8ba48515)" d="M 197.018182 79.56 
L 268.036364 79.56 
L 268.036364 107.28 
L 197.018182 107.28 
L 197.018182 79.56 
" style="fill:#3b4cc0;stroke:#ffffff;stroke-width:0.2;"/>
    <path clip-path="url(#pca8ba48515)" d="M 268.036364 79.56 
L 339.054545 79.56 
L 339.054545 107.28 
L 268.036364 107.28 
L 268.036364 79.56 
" style="fill:#3b4cc0;stroke:#ffffff;stroke-width:0.2;"/>
    <path clip-path="url(#pca8ba48515)" d="M 339.054545 79.56 
L 410.072727 79.56 
L 410.072727 107.28 
L 339.054545 107.28 
L 339.054545 79.56 
" style="fill:#3b4cc0;stroke:#ffffff;stroke-width:0.2;"/>
    <path clip-path="url(#pca8ba48515)" d="M 410.072727 79.56 
L 481.090909 79.56 
L 481.090909 107.28 
L 410.072727 107.28 
L 410.072727 79.56 
" style="fill:#3b4cc0;stroke:#ffffff;stroke-width:0.2;"/>
    <path clip-path="url(#pca8ba48515)" d="M 126 107.28 
L 197.018182 107.28 
L 197.018182 135 
L 126 135 
L 126 107.28 
" style="fill:#3b4cc0;stroke:#ffffff;stroke-width:0.2;"/>
    <path clip-path="url(#pca8ba48515)" d="M 197.018182 107.28 
L 268.036364 107.28 
L 268.036364 135 
L 197.018182 135 
L 197.018182 107.28 
" style="fill:#b40426;stroke:#ffffff;stroke-width:0.2;"/>
    <path clip-path="url(#pca8ba48515)" d="M 268.036364 107.28 
L 339.054545 107.28 
L 339.054545 135 
L 268.036364 135 
L 268.036364 107.28 
" style="fill:#3b4cc0;stroke:#ffffff;stroke-width:0.2;"/>
    <path clip-path="url(#pca8ba48515)" d="M 339.054545 107.28 
L 410.072727 107.28 
L 410.072727 135 
L 339.054545 135 
L 339.054545 107.28 
" style="fill:#3b4cc0;stroke:#ffffff;stroke-width:0.2;"/>
    <path clip-path="url(#pca8ba48515)" d="M 410.072727 107.28 
L 481.090909 107.28 
L 481.090909 135 
L 410.072727 135 
L 410.072727 107.28 
" style="fill:#3b4cc0;stroke:#ffffff;stroke-width:0.2;"/>
    <path clip-path="url(#pca8ba48515)" d="M 126 135 
L 197.018182 135 
L 197.018182 162.72 
L 126 162.72 
L 126 135 
" style="fill:#dddcdc;stroke:#ffffff;stroke-width:0.2;"/>
    <path clip-path="url(#pca8ba48515)" d="M 197.018182 135 
L 268.036364 135 
L 268.036364 162.72 
L 197.018182 162.72 
L 197.018182 135 
" style="fill:#3b4cc0;stroke:#ffffff;stroke-width:0.2;"/>
    <path clip-path="url(#pca8ba48515)" d="M 268.036364 135 
L 339.054545 135 
L 339.054545 162.72 
L 268.036364 162.72 
L 268.036364 135 
" style="fill:#3b4cc0;stroke:#ffffff;stroke-width:0.2;"/>
    <path clip-path="url(#pca8ba48515)" d="M 339.054545 135 
L 410.072727 135 
L 410.072727 162.72 
L 339.054545 162.72 
L 339.054545 135 
" style="fill:#3b4cc0;stroke:#ffffff;stroke-width:0.2;"/>
    <path clip-path="url(#pca8ba48515)" d="M 410.072727 135 
L 481.090909 135 
L 481.090909 162.72 
L 410.072727 162.72 
L 410.072727 135 
" style="fill:#3b4cc0;stroke:#ffffff;stroke-width:0.2;"/>
    <path clip-path="url(#pca8ba48515)" d="M 126 162.72 
L 197.018182 162.72 
L 197.018182 190.44 
L 126 190.44 
L 126 162.72 
" style="fill:#dddcdc;stroke:#ffffff;stroke-width:0.2;"/>
    <path clip-path="url(#pca8ba48515)" d="M 197.018182 162.72 
L 268.036364 162.72 
L 268.036364 190.44 
L 197.018182 190.44 
L 197.018182 162.72 
" style="fill:#dddcdc;stroke:#ffffff;stroke-width:0.2;"/>
    <path clip-path="url(#pca8ba48515)" d="M 268.036364 162.72 
L 339.054545 162.72 
L 339.054545 190.44 
L 268.036364 190.44 
L 268.036364 162.72 
" style="fill:#3b4cc0;stroke:#ffffff;stroke-width:0.2;"/>
    <path clip-path="url(#pca8ba48515)" d="M 339.054545 162.72 
L 410.072727 162.72 
L 410.072727 190.44 
L 339.054545 190.44 
L 339.054545 162.72 
" style="fill:#3b4cc0;stroke:#ffffff;stroke-width:0.2;"/>
    <path clip-path="url(#pca8ba48515)" d="M 410.072727 162.72 
L 481.090909 162.72 
L 481.090909 190.44 
L 410.072727 190.44 
L 410.072727 162.72 
" style="fill:#3b4cc0;stroke:#ffffff;stroke-width:0.2;"/>
    <path clip-path="url(#pca8ba48515)" d="M 126 190.44 
L 197.018182 190.44 
L 197.018182 218.16 
L 126 218.16 
L 126 190.44 
" style="fill:#dddcdc;stroke:#ffffff;stroke-width:0.2;"/>
    <path clip-path="url(#pca8ba48515)" d="M 197.018182 190.44 
L 268.036364 190.44 
L 268.036364 218.16 
L 197.018182 218.16 
L 197.018182 190.44 
" style="fill:#dddcdc;stroke:#ffffff;stroke-width:0.2;"/>
    <path clip-path="url(#pca8ba48515)" d="M 268.036364 190.44 
L 339.054545 190.44 
L 339.054545 218.16 
L 268.036364 218.16 
L 268.036364 190.44 
" style="fill:#3b4cc0;stroke:#ffffff;stroke-width:0.2;"/>
    <path clip-path="url(#pca8ba48515)" d="M 339.054545 190.44 
L 410.072727 190.44 
L 410.072727 218.16 
L 339.054545 218.16 
L 339.054545 190.44 
" style="fill:#3b4cc0;stroke:#ffffff;stroke-width:0.2;"/>
    <path clip-path="url(#pca8ba48515)" d="M 410.072727 190.44 
L 481.090909 190.44 
L 481.090909 218.16 
L 410.072727 218.16 
L 410.072727 190.44 
" style="fill:#3b4cc0;stroke:#ffffff;stroke-width:0.2;"/>
    <path clip-path="url(#pca8ba48515)" d="M 126 218.16 
L 197.018182 218.16 
L 197.018182 245.88 
L 126 245.88 
L 126 218.16 
" style="fill:#dddcdc;stroke:#ffffff;stroke-width:0.2;"/>
    <path clip-path="url(#pca8ba48515)" d="M 197.018182 218.16 
L 268.036364 218.16 
L 268.036364 245.88 
L 197.018182 245.88 
L 197.018182 218.16 
" style="fill:#dddcdc;stroke:#ffffff;stroke-width:0.2;"/>
    <path clip-path="url(#pca8ba48515)" d="M 268.036364 218.16 
L 339.054545 218.16 
L 339.054545 245.88 
L 268.036364 245.88 
L 268.036364 218.16 
" style="fill:#3b4cc0;stroke:#ffffff;stroke-width:0.2;"/>
    <path clip-path="url(#pca8ba48515)" d="M 339.054545 218.16 
L 410.072727 218.16 
L 410.072727 245.88 
L 339.054545 245.88 
L 339.054545 218.16 
" style="fill:#3b4cc0;stroke:#ffffff;stroke-width:0.2;"/>
    <path clip-path="url(#pca8ba48515)" d="M 410.072727 218.16 
L 481.090909 218.16 
L 481.090909 245.88 
L 410.072727 245.88 
L 410.072727 218.16 
" style="fill:#dddcdc;stroke:#ffffff;stroke-width:0.2;"/>
    <path clip-path="url(#pca8ba48515)" d="M 126 245.88 
L 197.018182 245.88 
L 197.018182 273.6 
L 126 273.6 
L 126 245.88 
" style="fill:#dddcdc;stroke:#ffffff;stroke-width:0.2;"/>
    <path clip-path="url(#pca8ba48515)" d="M 197.018182 245.88 
L 268.036364 245.88 
L 268.036364 273.6 
L 197.018182 273.6 
L 197.018182 245.88 
" style="fill:#3b4cc0;stroke:#ffffff;stroke-width:0.2;"/>
    <path clip-path="url(#pca8ba48515)" d="M 268.036364 245.88 
L 339.054545 245.88 
L 339.054545 273.6 
L 268.036364 273.6 
L 268.036364 245.88 
" style="fill:#3b4cc0;stroke:#ffffff;stroke-width:0.2;"/>
    <path clip-path="url(#pca8ba48515)" d="M 339.054545 245.88 
L 410.072727 245.88 
L 410.072727 273.6 
L 339.054545 273.6 
L 339.054545 245.88 
" style="fill:#3b4cc0;stroke:#ffffff;stroke-width:0.2;"/>
    <path clip-path="url(#pca8ba48515)" d="M 410.072727 245.88 
L 481.090909 245.88 
L 481.090909 273.6 
L 410.072727 273.6 
L 410.072727 245.88 
" style="fill:#dddcdc;stroke:#ffffff;stroke-width:0.2;"/>
    <path clip-path="url(#pca8ba48515)" d="M 126 273.6 
L 197.018182 273.6 
L 197.018182 301.32 
L 126 301.32 
L 126 273.6 
" style="fill:#dddcdc;stroke:#ffffff;stroke-width:0.2;"/>
    <path clip-path="url(#pca8ba48515)" d="M 197.018182 273.6 
L 268.036364 273.6 
L 268.036364 301.32 
L 197.018182 301.32 
L 197.018182 273.6 
" style="fill:#dddcdc;stroke:#ffffff;stroke-width:0.2;"/>
    <path clip-path="url(#pca8ba48515)" d="M 268.036364 273.6 
L 339.054545 273.6 
L 339.054545 301.32 
L 268.036364 301.32 
L 268.036364 273.6 
" style="fill:#3b4cc0;stroke:#ffffff;stroke-width:0.2;"/>
    <path clip-path="url(#pca8ba48515)" d="M 339.054545 273.6 
L 410.072727 273.6 
L 410.072727 301.32 
L 339.054545 301.32 
L 339.054545 273.6 
" style="fill:#3b4cc0;stroke:#ffffff;stroke-width:0.2;"/>
    <path clip-path="url(#pca8ba48515)" d="M 410.072727 273.6 
L 481.090909 273.6 
L 481.090909 301.32 
L 410.072727 301.32 
L 410.072727 273.6 
" style="fill:#dddcdc;stroke:#ffffff;stroke-width:0.2;"/>
    <path clip-path="url(#pca8ba48515)" d="M 126 301.32 
L 197.018182 301.32 
L 197.018182 329.04 
L 126 329.04 
L 126 301.32 
" style="fill:#dddcdc;stroke:#ffffff;stroke-width:0.2;"/>
    <path clip-path="url(#pca8ba48515)" d="M 197.018182 301.32 
L 268.036364 301.32 
L 268.036364 329.04 
L 197.018182 329.04 
L 197.018182 301.32 
" style="fill:#dddcdc;stroke:#ffffff;stroke-width:0.2;"/>
    <path clip-path="url(#pca8ba48515)" d="M 268.036364 301.32 
L 339.054545 301.32 
L 339.054545 329.04 
L 268.036364 329.04 
L 268.036364 301.32 
" style="fill:#3b4cc0;stroke:#ffffff;stroke-width:0.2;"/>
    <path clip-path="url(#pca8ba48515)" d="M 339.054545 301.32 
L 410.072727 301.32 
L 410.072727 329.04 
L 339.054545 329.04 
L 339.054545 301.32 
" style="fill:#3b4cc0;stroke:#ffffff;stroke-width:0.2;"/>
    <path clip-path="url(#pca8ba48515)" d="M 410.072727 301.32 
L 481.090909 301.32 
L 481.090909 329.04 
L 410.072727 329.04 
L 410.072727 301.32 
" style="fill:#3b4cc0;stroke:#ffffff;stroke-width:0.2;"/>
    <path clip-path="url(#pca8ba48515)" d="M 126 329.04 
L 197.018182 329.04 
L 197.018182 356.76 
L 126 356.76 
L 126 329.04 
" style="fill:#dddcdc;stroke:#ffffff;stroke-width:0.2;"/>
    <path clip-path="url(#pca8ba48515)" d="M 197.018182 329.04 
L 268.036364 329.04 
L 268.036364 356.76 
L 197.018182 356.76 
L 197.018182 329.04 
" style="fill:#b40426;stroke:#ffffff;stroke-width:0.2;"/>
    <path clip-path="url(#pca8ba48515)" d="M 268.036364 329.04 
L 339.054545 329.04 
L 339.054545 356.76 
L 268.036364 356.76 
L 268.036364 329.04 
" style="fill:#3b4cc0;stroke:#ffffff;stroke-width:0.2;"/>
    <path clip-path="url(#pca8ba48515)" d="M 339.054545 329.04 
L 410.072727 329.04 
L 410.072727 356.76 
L 339.054545 356.76 
L 339.054545 329.04 
" style="fill:#3b4cc0;stroke:#ffffff;stroke-width:0.2;"/>
    <path clip-path="url(#pca8ba48515)" d="M 410.072727 329.04 
L 481.090909 329.04 
L 481.090909 356.76 
L 410.072727 356.76 
L 410.072727 329.04 
" style="fill:#3b4cc0;stroke:#ffffff;stroke-width:0.2;"/>
    <path clip-path="url(#pca8ba48515)" d="M 126 356.76 
L 197.018182 356.76 
L 197.018182 384.48 
L 126 384.48 
L 126 356.76 
" style="fill:#b40426;stroke:#ffffff;stroke-width:0.2;"/>
    <path clip-path="url(#pca8ba48515)" d="M 197.018182 356.76 
L 268.036364 356.76 
L 268.036364 384.48 
L 197.018182 384.48 
L 197.018182 356.76 
" style="fill:#3b4cc0;stroke:#ffffff;stroke-width:0.2;"/>
    <path clip-path="url(#pca8ba48515)" d="M 268.036364 356.76 
L 339.054545 356.76 
L 339.054545 384.48 
L 268.036364 384.48 
L 268.036364 356.76 
" style="fill:#3b4cc0;stroke:#ffffff;stroke-width:0.2;"/>
    <path clip-path="url(#pca8ba48515)" d="M 339.054545 356.76 
L 410.072727 356.76 
L 410.072727 384.48 
L 339.054545 384.48 
L 339.054545 356.76 
" style="fill:#3b4cc0;stroke:#ffffff;stroke-width:0.2;"/>
    <path clip-path="url(#pca8ba48515)" d="M 410.072727 356.76 
L 481.090909 356.76 
L 481.090909 384.48 
L 410.072727 384.48 
L 410.072727 356.76 
" style="fill:#3b4cc0;stroke:#ffffff;stroke-width:0.2;"/>
   </g>
   <g id="matplotlib.axis_1">
    <g id="xtick_1">
     <g id="line2d_1">
      <defs>
       <path d="M 0 0 
L 0 3.5 
" id="m0fc5fd581e" style="stroke:#000000;stroke-width:0.8;"/>
      </defs>
      <g>
       <use style="stroke:#000000;stroke-width:0.8;" x="161.509091" xlink:href="#m0fc5fd581e" y="384.48"/>
      </g>
     </g>
     <g id="text_1">
      <!-- 129 -->
      <g transform="translate(164.268466 410.5675)rotate(-90)scale(0.1 -0.1)">
       <defs>
        <path d="M 12.40625 8.296875 
L 28.515625 8.296875 
L 28.515625 63.921875 
L 10.984375 60.40625 
L 10.984375 69.390625 
L 28.421875 72.90625 
L 38.28125 72.90625 
L 38.28125 8.296875 
L 54.390625 8.296875 
L 54.390625 0 
L 12.40625 0 
z
" id="DejaVuSans-49"/>
        <path d="M 19.1875 8.296875 
L 53.609375 8.296875 
L 53.609375 0 
L 7.328125 0 
L 7.328125 8.296875 
Q 12.9375 14.109375 22.625 23.890625 
Q 32.328125 33.6875 34.8125 36.53125 
Q 39.546875 41.84375 41.421875 45.53125 
Q 43.3125 49.21875 43.3125 52.78125 
Q 43.3125 58.59375 39.234375 62.25 
Q 35.15625 65.921875 28.609375 65.921875 
Q 23.96875 65.921875 18.8125 64.3125 
Q 13.671875 62.703125 7.8125 59.421875 
L 7.8125 69.390625 
Q 13.765625 71.78125 18.9375 73 
Q 24.125 74.21875 28.421875 74.21875 
Q 39.75 74.21875 46.484375 68.546875 
Q 53.21875 62.890625 53.21875 53.421875 
Q 53.21875 48.921875 51.53125 44.890625 
Q 49.859375 40.875 45.40625 35.40625 
Q 44.1875 33.984375 37.640625 27.21875 
Q 31.109375 20.453125 19.1875 8.296875 
z
" id="DejaVuSans-50"/>
        <path d="M 10.984375 1.515625 
L 10.984375 10.5 
Q 14.703125 8.734375 18.5 7.8125 
Q 22.3125 6.890625 25.984375 6.890625 
Q 35.75 6.890625 40.890625 13.453125 
Q 46.046875 20.015625 46.78125 33.40625 
Q 43.953125 29.203125 39.59375 26.953125 
Q 35.25 24.703125 29.984375 24.703125 
Q 19.046875 24.703125 12.671875 31.3125 
Q 6.296875 37.9375 6.296875 49.421875 
Q 6.296875 60.640625 12.9375 67.421875 
Q 19.578125 74.21875 30.609375 74.21875 
Q 43.265625 74.21875 49.921875 64.515625 
Q 56.59375 54.828125 56.59375 36.375 
Q 56.59375 19.140625 48.40625 8.859375 
Q 40.234375 -1.421875 26.421875 -1.421875 
Q 22.703125 -1.421875 18.890625 -0.6875 
Q 15.09375 0.046875 10.984375 1.515625 
z
M 30.609375 32.421875 
Q 37.25 32.421875 41.125 36.953125 
Q 45.015625 41.5 45.015625 49.421875 
Q 45.015625 57.28125 41.125 61.84375 
Q 37.25 66.40625 30.609375 66.40625 
Q 23.96875 66.40625 20.09375 61.84375 
Q 16.21875 57.28125 16.21875 49.421875 
Q 16.21875 41.5 20.09375 36.953125 
Q 23.96875 32.421875 30.609375 32.421875 
z
" id="DejaVuSans-57"/>
       </defs>
       <use xlink:href="#DejaVuSans-49"/>
       <use x="63.623047" xlink:href="#DejaVuSans-50"/>
       <use x="127.246094" xlink:href="#DejaVuSans-57"/>
      </g>
     </g>
    </g>
    <g id="xtick_2">
     <g id="line2d_2">
      <g>
       <use style="stroke:#000000;stroke-width:0.8;" x="232.527273" xlink:href="#m0fc5fd581e" y="384.48"/>
      </g>
     </g>
     <g id="text_2">
      <!-- 276 -->
      <g transform="translate(235.286648 410.5675)rotate(-90)scale(0.1 -0.1)">
       <defs>
        <path d="M 8.203125 72.90625 
L 55.078125 72.90625 
L 55.078125 68.703125 
L 28.609375 0 
L 18.3125 0 
L 43.21875 64.59375 
L 8.203125 64.59375 
z
" id="DejaVuSans-55"/>
        <path d="M 33.015625 40.375 
Q 26.375 40.375 22.484375 35.828125 
Q 18.609375 31.296875 18.609375 23.390625 
Q 18.609375 15.53125 22.484375 10.953125 
Q 26.375 6.390625 33.015625 6.390625 
Q 39.65625 6.390625 43.53125 10.953125 
Q 47.40625 15.53125 47.40625 23.390625 
Q 47.40625 31.296875 43.53125 35.828125 
Q 39.65625 40.375 33.015625 40.375 
z
M 52.59375 71.296875 
L 52.59375 62.3125 
Q 48.875 64.0625 45.09375 64.984375 
Q 41.3125 65.921875 37.59375 65.921875 
Q 27.828125 65.921875 22.671875 59.328125 
Q 17.53125 52.734375 16.796875 39.40625 
Q 19.671875 43.65625 24.015625 45.921875 
Q 28.375 48.1875 33.59375 48.1875 
Q 44.578125 48.1875 50.953125 41.515625 
Q 57.328125 34.859375 57.328125 23.390625 
Q 57.328125 12.15625 50.6875 5.359375 
Q 44.046875 -1.421875 33.015625 -1.421875 
Q 20.359375 -1.421875 13.671875 8.265625 
Q 6.984375 17.96875 6.984375 36.375 
Q 6.984375 53.65625 15.1875 63.9375 
Q 23.390625 74.21875 37.203125 74.21875 
Q 40.921875 74.21875 44.703125 73.484375 
Q 48.484375 72.75 52.59375 71.296875 
z
" id="DejaVuSans-54"/>
       </defs>
       <use xlink:href="#DejaVuSans-50"/>
       <use x="63.623047" xlink:href="#DejaVuSans-55"/>
       <use x="127.246094" xlink:href="#DejaVuSans-54"/>
      </g>
     </g>
    </g>
    <g id="xtick_3">
     <g id="line2d_3">
      <g>
       <use style="stroke:#000000;stroke-width:0.8;" x="303.545455" xlink:href="#m0fc5fd581e" y="384.48"/>
      </g>
     </g>
     <g id="text_3">
      <!-- 279 -->
      <g transform="translate(306.30483 410.5675)rotate(-90)scale(0.1 -0.1)">
       <use xlink:href="#DejaVuSans-50"/>
       <use x="63.623047" xlink:href="#DejaVuSans-55"/>
       <use x="127.246094" xlink:href="#DejaVuSans-57"/>
      </g>
     </g>
    </g>
    <g id="xtick_4">
     <g id="line2d_4">
      <g>
       <use style="stroke:#000000;stroke-width:0.8;" x="374.563636" xlink:href="#m0fc5fd581e" y="384.48"/>
      </g>
     </g>
     <g id="text_4">
      <!-- 293 -->
      <g transform="translate(377.323011 410.5675)rotate(-90)scale(0.1 -0.1)">
       <defs>
        <path d="M 40.578125 39.3125 
Q 47.65625 37.796875 51.625 33 
Q 55.609375 28.21875 55.609375 21.1875 
Q 55.609375 10.40625 48.1875 4.484375 
Q 40.765625 -1.421875 27.09375 -1.421875 
Q 22.515625 -1.421875 17.65625 -0.515625 
Q 12.796875 0.390625 7.625 2.203125 
L 7.625 11.71875 
Q 11.71875 9.328125 16.59375 8.109375 
Q 21.484375 6.890625 26.8125 6.890625 
Q 36.078125 6.890625 40.9375 10.546875 
Q 45.796875 14.203125 45.796875 21.1875 
Q 45.796875 27.640625 41.28125 31.265625 
Q 36.765625 34.90625 28.71875 34.90625 
L 20.21875 34.90625 
L 20.21875 43.015625 
L 29.109375 43.015625 
Q 36.375 43.015625 40.234375 45.921875 
Q 44.09375 48.828125 44.09375 54.296875 
Q 44.09375 59.90625 40.109375 62.90625 
Q 36.140625 65.921875 28.71875 65.921875 
Q 24.65625 65.921875 20.015625 65.03125 
Q 15.375 64.15625 9.8125 62.3125 
L 9.8125 71.09375 
Q 15.4375 72.65625 20.34375 73.4375 
Q 25.25 74.21875 29.59375 74.21875 
Q 40.828125 74.21875 47.359375 69.109375 
Q 53.90625 64.015625 53.90625 55.328125 
Q 53.90625 49.265625 50.4375 45.09375 
Q 46.96875 40.921875 40.578125 39.3125 
z
" id="DejaVuSans-51"/>
       </defs>
       <use xlink:href="#DejaVuSans-50"/>
       <use x="63.623047" xlink:href="#DejaVuSans-57"/>
       <use x="127.246094" xlink:href="#DejaVuSans-51"/>
      </g>
     </g>
    </g>
    <g id="xtick_5">
     <g id="line2d_5">
      <g>
       <use style="stroke:#000000;stroke-width:0.8;" x="445.581818" xlink:href="#m0fc5fd581e" y="384.48"/>
      </g>
     </g>
     <g id="text_5">
      <!-- 294 -->
      <g transform="translate(448.341193 410.5675)rotate(-90)scale(0.1 -0.1)">
       <defs>
        <path d="M 37.796875 64.3125 
L 12.890625 25.390625 
L 37.796875 25.390625 
z
M 35.203125 72.90625 
L 47.609375 72.90625 
L 47.609375 25.390625 
L 58.015625 25.390625 
L 58.015625 17.1875 
L 47.609375 17.1875 
L 47.609375 0 
L 37.796875 0 
L 37.796875 17.1875 
L 4.890625 17.1875 
L 4.890625 26.703125 
z
" id="DejaVuSans-52"/>
       </defs>
       <use xlink:href="#DejaVuSans-50"/>
       <use x="63.623047" xlink:href="#DejaVuSans-57"/>
       <use x="127.246094" xlink:href="#DejaVuSans-52"/>
      </g>
     </g>
    </g>
   </g>
   <g id="matplotlib.axis_2">
    <g id="ytick_1">
     <g id="line2d_6">
      <defs>
       <path d="M 0 0 
L -3.5 0 
" id="md275434975" style="stroke:#000000;stroke-width:0.8;"/>
      </defs>
      <g>
       <use style="stroke:#000000;stroke-width:0.8;" x="126" xlink:href="#md275434975" y="65.7"/>
      </g>
     </g>
     <g id="text_6">
      <!-- G1 -->
      <g transform="translate(104.889062 69.499219)scale(0.1 -0.1)">
       <defs>
        <path d="M 59.515625 10.40625 
L 59.515625 29.984375 
L 43.40625 29.984375 
L 43.40625 38.09375 
L 69.28125 38.09375 
L 69.28125 6.78125 
Q 63.578125 2.734375 56.6875 0.65625 
Q 49.8125 -1.421875 42 -1.421875 
Q 24.90625 -1.421875 15.25 8.5625 
Q 5.609375 18.5625 5.609375 36.375 
Q 5.609375 54.25 15.25 64.234375 
Q 24.90625 74.21875 42 74.21875 
Q 49.125 74.21875 55.546875 72.453125 
Q 61.96875 70.703125 67.390625 67.28125 
L 67.390625 56.78125 
Q 61.921875 61.421875 55.765625 63.765625 
Q 49.609375 66.109375 42.828125 66.109375 
Q 29.4375 66.109375 22.71875 58.640625 
Q 16.015625 51.171875 16.015625 36.375 
Q 16.015625 21.625 22.71875 14.15625 
Q 29.4375 6.6875 42.828125 6.6875 
Q 48.046875 6.6875 52.140625 7.59375 
Q 56.25 8.5 59.515625 10.40625 
z
" id="DejaVuSans-71"/>
       </defs>
       <use xlink:href="#DejaVuSans-71"/>
       <use x="77.490234" xlink:href="#DejaVuSans-49"/>
      </g>
     </g>
    </g>
    <g id="ytick_2">
     <g id="line2d_7">
      <g>
       <use style="stroke:#000000;stroke-width:0.8;" x="126" xlink:href="#md275434975" y="93.42"/>
      </g>
     </g>
     <g id="text_7">
      <!-- G2 -->
      <g transform="translate(104.889062 97.219219)scale(0.1 -0.1)">
       <use xlink:href="#DejaVuSans-71"/>
       <use x="77.490234" xlink:href="#DejaVuSans-50"/>
      </g>
     </g>
    </g>
    <g id="ytick_3">
     <g id="line2d_8">
      <g>
       <use style="stroke:#000000;stroke-width:0.8;" x="126" xlink:href="#md275434975" y="121.14"/>
      </g>
     </g>
     <g id="text_8">
      <!-- G3 -->
      <g transform="translate(104.889062 124.939219)scale(0.1 -0.1)">
       <use xlink:href="#DejaVuSans-71"/>
       <use x="77.490234" xlink:href="#DejaVuSans-51"/>
      </g>
     </g>
    </g>
    <g id="ytick_4">
     <g id="line2d_9">
      <g>
       <use style="stroke:#000000;stroke-width:0.8;" x="126" xlink:href="#md275434975" y="148.86"/>
      </g>
     </g>
     <g id="text_9">
      <!-- G4 -->
      <g transform="translate(104.889062 152.659219)scale(0.1 -0.1)">
       <use xlink:href="#DejaVuSans-71"/>
       <use x="77.490234" xlink:href="#DejaVuSans-52"/>
      </g>
     </g>
    </g>
    <g id="ytick_5">
     <g id="line2d_10">
      <g>
       <use style="stroke:#000000;stroke-width:0.8;" x="126" xlink:href="#md275434975" y="176.58"/>
      </g>
     </g>
     <g id="text_10">
      <!-- G5 -->
      <g transform="translate(104.889062 180.379219)scale(0.1 -0.1)">
       <defs>
        <path d="M 10.796875 72.90625 
L 49.515625 72.90625 
L 49.515625 64.59375 
L 19.828125 64.59375 
L 19.828125 46.734375 
Q 21.96875 47.46875 24.109375 47.828125 
Q 26.265625 48.1875 28.421875 48.1875 
Q 40.625 48.1875 47.75 41.5 
Q 54.890625 34.8125 54.890625 23.390625 
Q 54.890625 11.625 47.5625 5.09375 
Q 40.234375 -1.421875 26.90625 -1.421875 
Q 22.3125 -1.421875 17.546875 -0.640625 
Q 12.796875 0.140625 7.71875 1.703125 
L 7.71875 11.625 
Q 12.109375 9.234375 16.796875 8.0625 
Q 21.484375 6.890625 26.703125 6.890625 
Q 35.15625 6.890625 40.078125 11.328125 
Q 45.015625 15.765625 45.015625 23.390625 
Q 45.015625 31 40.078125 35.4375 
Q 35.15625 39.890625 26.703125 39.890625 
Q 22.75 39.890625 18.8125 39.015625 
Q 14.890625 38.140625 10.796875 36.28125 
z
" id="DejaVuSans-53"/>
       </defs>
       <use xlink:href="#DejaVuSans-71"/>
       <use x="77.490234" xlink:href="#DejaVuSans-53"/>
      </g>
     </g>
    </g>
    <g id="ytick_6">
     <g id="line2d_11">
      <g>
       <use style="stroke:#000000;stroke-width:0.8;" x="126" xlink:href="#md275434975" y="204.3"/>
      </g>
     </g>
     <g id="text_11">
      <!-- G6 -->
      <g transform="translate(104.889062 208.099219)scale(0.1 -0.1)">
       <use xlink:href="#DejaVuSans-71"/>
       <use x="77.490234" xlink:href="#DejaVuSans-54"/>
      </g>
     </g>
    </g>
    <g id="ytick_7">
     <g id="line2d_12">
      <g>
       <use style="stroke:#000000;stroke-width:0.8;" x="126" xlink:href="#md275434975" y="232.02"/>
      </g>
     </g>
     <g id="text_12">
      <!-- G7 -->
      <g transform="translate(104.889062 235.819219)scale(0.1 -0.1)">
       <use xlink:href="#DejaVuSans-71"/>
       <use x="77.490234" xlink:href="#DejaVuSans-55"/>
      </g>
     </g>
    </g>
    <g id="ytick_8">
     <g id="line2d_13">
      <g>
       <use style="stroke:#000000;stroke-width:0.8;" x="126" xlink:href="#md275434975" y="259.74"/>
      </g>
     </g>
     <g id="text_13">
      <!-- G8 -->
      <g transform="translate(104.889062 263.539219)scale(0.1 -0.1)">
       <defs>
        <path d="M 31.78125 34.625 
Q 24.75 34.625 20.71875 30.859375 
Q 16.703125 27.09375 16.703125 20.515625 
Q 16.703125 13.921875 20.71875 10.15625 
Q 24.75 6.390625 31.78125 6.390625 
Q 38.8125 6.390625 42.859375 10.171875 
Q 46.921875 13.96875 46.921875 20.515625 
Q 46.921875 27.09375 42.890625 30.859375 
Q 38.875 34.625 31.78125 34.625 
z
M 21.921875 38.8125 
Q 15.578125 40.375 12.03125 44.71875 
Q 8.5 49.078125 8.5 55.328125 
Q 8.5 64.0625 14.71875 69.140625 
Q 20.953125 74.21875 31.78125 74.21875 
Q 42.671875 74.21875 48.875 69.140625 
Q 55.078125 64.0625 55.078125 55.328125 
Q 55.078125 49.078125 51.53125 44.71875 
Q 48 40.375 41.703125 38.8125 
Q 48.828125 37.15625 52.796875 32.3125 
Q 56.78125 27.484375 56.78125 20.515625 
Q 56.78125 9.90625 50.3125 4.234375 
Q 43.84375 -1.421875 31.78125 -1.421875 
Q 19.734375 -1.421875 13.25 4.234375 
Q 6.78125 9.90625 6.78125 20.515625 
Q 6.78125 27.484375 10.78125 32.3125 
Q 14.796875 37.15625 21.921875 38.8125 
z
M 18.3125 54.390625 
Q 18.3125 48.734375 21.84375 45.5625 
Q 25.390625 42.390625 31.78125 42.390625 
Q 38.140625 42.390625 41.71875 45.5625 
Q 45.3125 48.734375 45.3125 54.390625 
Q 45.3125 60.0625 41.71875 63.234375 
Q 38.140625 66.40625 31.78125 66.40625 
Q 25.390625 66.40625 21.84375 63.234375 
Q 18.3125 60.0625 18.3125 54.390625 
z
" id="DejaVuSans-56"/>
       </defs>
       <use xlink:href="#DejaVuSans-71"/>
       <use x="77.490234" xlink:href="#DejaVuSans-56"/>
      </g>
     </g>
    </g>
    <g id="ytick_9">
     <g id="line2d_14">
      <g>
       <use style="stroke:#000000;stroke-width:0.8;" x="126" xlink:href="#md275434975" y="287.46"/>
      </g>
     </g>
     <g id="text_14">
      <!-- G9 -->
      <g transform="translate(104.889062 291.259219)scale(0.1 -0.1)">
       <use xlink:href="#DejaVuSans-71"/>
       <use x="77.490234" xlink:href="#DejaVuSans-57"/>
      </g>
     </g>
    </g>
    <g id="ytick_10">
     <g id="line2d_15">
      <g>
       <use style="stroke:#000000;stroke-width:0.8;" x="126" xlink:href="#md275434975" y="315.18"/>
      </g>
     </g>
     <g id="text_15">
      <!-- G10 -->
      <g transform="translate(98.526562 318.979219)scale(0.1 -0.1)">
       <defs>
        <path d="M 31.78125 66.40625 
Q 24.171875 66.40625 20.328125 58.90625 
Q 16.5 51.421875 16.5 36.375 
Q 16.5 21.390625 20.328125 13.890625 
Q 24.171875 6.390625 31.78125 6.390625 
Q 39.453125 6.390625 43.28125 13.890625 
Q 47.125 21.390625 47.125 36.375 
Q 47.125 51.421875 43.28125 58.90625 
Q 39.453125 66.40625 31.78125 66.40625 
z
M 31.78125 74.21875 
Q 44.046875 74.21875 50.515625 64.515625 
Q 56.984375 54.828125 56.984375 36.375 
Q 56.984375 17.96875 50.515625 8.265625 
Q 44.046875 -1.421875 31.78125 -1.421875 
Q 19.53125 -1.421875 13.0625 8.265625 
Q 6.59375 17.96875 6.59375 36.375 
Q 6.59375 54.828125 13.0625 64.515625 
Q 19.53125 74.21875 31.78125 74.21875 
z
" id="DejaVuSans-48"/>
       </defs>
       <use xlink:href="#DejaVuSans-71"/>
       <use x="77.490234" xlink:href="#DejaVuSans-49"/>
       <use x="141.113281" xlink:href="#DejaVuSans-48"/>
      </g>
     </g>
    </g>
    <g id="ytick_11">
     <g id="line2d_16">
      <g>
       <use style="stroke:#000000;stroke-width:0.8;" x="126" xlink:href="#md275434975" y="342.9"/>
      </g>
     </g>
     <g id="text_16">
      <!-- G11 -->
      <g transform="translate(98.526562 346.699219)scale(0.1 -0.1)">
       <use xlink:href="#DejaVuSans-71"/>
       <use x="77.490234" xlink:href="#DejaVuSans-49"/>
       <use x="141.113281" xlink:href="#DejaVuSans-49"/>
      </g>
     </g>
    </g>
    <g id="ytick_12">
     <g id="line2d_17">
      <g>
       <use style="stroke:#000000;stroke-width:0.8;" x="126" xlink:href="#md275434975" y="370.62"/>
      </g>
     </g>
     <g id="text_17">
      <!-- G12 -->
      <g transform="translate(98.526562 374.419219)scale(0.1 -0.1)">
       <use xlink:href="#DejaVuSans-71"/>
       <use x="77.490234" xlink:href="#DejaVuSans-49"/>
       <use x="141.113281" xlink:href="#DejaVuSans-50"/>
      </g>
     </g>
    </g>
   </g>
   <g id="text_18">
    <!-- G -->
    <g style="fill:#ffffff;" transform="translate(159.18456 67.355625)scale(0.06 -0.06)">
     <use xlink:href="#DejaVuSans-71"/>
    </g>
   </g>
   <g id="text_19">
    <!-- C/T -->
    <g style="fill:#262626;" transform="translate(227.58946 67.355625)scale(0.06 -0.06)">
     <defs>
      <path d="M 64.40625 67.28125 
L 64.40625 56.890625 
Q 59.421875 61.53125 53.78125 63.8125 
Q 48.140625 66.109375 41.796875 66.109375 
Q 29.296875 66.109375 22.65625 58.46875 
Q 16.015625 50.828125 16.015625 36.375 
Q 16.015625 21.96875 22.65625 14.328125 
Q 29.296875 6.6875 41.796875 6.6875 
Q 48.140625 6.6875 53.78125 8.984375 
Q 59.421875 11.28125 64.40625 15.921875 
L 64.40625 5.609375 
Q 59.234375 2.09375 53.4375 0.328125 
Q 47.65625 -1.421875 41.21875 -1.421875 
Q 24.65625 -1.421875 15.125 8.703125 
Q 5.609375 18.84375 5.609375 36.375 
Q 5.609375 53.953125 15.125 64.078125 
Q 24.65625 74.21875 41.21875 74.21875 
Q 47.75 74.21875 53.53125 72.484375 
Q 59.328125 70.75 64.40625 67.28125 
z
" id="DejaVuSans-67"/>
      <path d="M 25.390625 72.90625 
L 33.6875 72.90625 
L 8.296875 -9.28125 
L 0 -9.28125 
z
" id="DejaVuSans-47"/>
      <path d="M -0.296875 72.90625 
L 61.375 72.90625 
L 61.375 64.59375 
L 35.5 64.59375 
L 35.5 0 
L 25.59375 0 
L 25.59375 64.59375 
L -0.296875 64.59375 
z
" id="DejaVuSans-84"/>
     </defs>
     <use xlink:href="#DejaVuSans-67"/>
     <use x="69.824219" xlink:href="#DejaVuSans-47"/>
     <use x="103.515625" xlink:href="#DejaVuSans-84"/>
    </g>
   </g>
   <g id="text_20">
    <!-- G -->
    <g style="fill:#ffffff;" transform="translate(301.220923 67.355625)scale(0.06 -0.06)">
     <use xlink:href="#DejaVuSans-71"/>
    </g>
   </g>
   <g id="text_21">
    <!-- G -->
    <g style="fill:#ffffff;" transform="translate(372.239105 67.355625)scale(0.06 -0.06)">
     <use xlink:href="#DejaVuSans-71"/>
    </g>
   </g>
   <g id="text_22">
    <!-- A -->
    <g style="fill:#ffffff;" transform="translate(443.529631 67.355625)scale(0.06 -0.06)">
     <defs>
      <path d="M 34.1875 63.1875 
L 20.796875 26.90625 
L 47.609375 26.90625 
z
M 28.609375 72.90625 
L 39.796875 72.90625 
L 67.578125 0 
L 57.328125 0 
L 50.6875 18.703125 
L 17.828125 18.703125 
L 11.1875 0 
L 0.78125 0 
z
" id="DejaVuSans-65"/>
     </defs>
     <use xlink:href="#DejaVuSans-65"/>
    </g>
   </g>
   <g id="text_23">
    <!-- G -->
    <g style="fill:#ffffff;" transform="translate(159.18456 95.075625)scale(0.06 -0.06)">
     <use xlink:href="#DejaVuSans-71"/>
    </g>
   </g>
   <g id="text_24">
    <!-- T -->
    <g style="fill:#ffffff;" transform="translate(230.694929 95.075625)scale(0.06 -0.06)">
     <use xlink:href="#DejaVuSans-84"/>
    </g>
   </g>
   <g id="text_25">
    <!-- G -->
    <g style="fill:#ffffff;" transform="translate(301.220923 95.075625)scale(0.06 -0.06)">
     <use xlink:href="#DejaVuSans-71"/>
    </g>
   </g>
   <g id="text_26">
    <!-- G -->
    <g style="fill:#ffffff;" transform="translate(372.239105 95.075625)scale(0.06 -0.06)">
     <use xlink:href="#DejaVuSans-71"/>
    </g>
   </g>
   <g id="text_27">
    <!-- A -->
    <g style="fill:#ffffff;" transform="translate(443.529631 95.075625)scale(0.06 -0.06)">
     <use xlink:href="#DejaVuSans-65"/>
    </g>
   </g>
   <g id="text_28">
    <!-- G -->
    <g style="fill:#ffffff;" transform="translate(159.18456 122.795625)scale(0.06 -0.06)">
     <use xlink:href="#DejaVuSans-71"/>
    </g>
   </g>
   <g id="text_29">
    <!-- C -->
    <g style="fill:#ffffff;" transform="translate(230.432429 122.795625)scale(0.06 -0.06)">
     <use xlink:href="#DejaVuSans-67"/>
    </g>
   </g>
   <g id="text_30">
    <!-- G -->
    <g style="fill:#ffffff;" transform="translate(301.220923 122.795625)scale(0.06 -0.06)">
     <use xlink:href="#DejaVuSans-71"/>
    </g>
   </g>
   <g id="text_31">
    <!-- G -->
    <g style="fill:#ffffff;" transform="translate(372.239105 122.795625)scale(0.06 -0.06)">
     <use xlink:href="#DejaVuSans-71"/>
    </g>
   </g>
   <g id="text_32">
    <!-- A -->
    <g style="fill:#ffffff;" transform="translate(443.529631 122.795625)scale(0.06 -0.06)">
     <use xlink:href="#DejaVuSans-65"/>
    </g>
   </g>
   <g id="text_33">
    <!-- A/G -->
    <g style="fill:#262626;" transform="translate(156.121747 150.515625)scale(0.06 -0.06)">
     <use xlink:href="#DejaVuSans-65"/>
     <use x="68.408203" xlink:href="#DejaVuSans-47"/>
     <use x="102.099609" xlink:href="#DejaVuSans-71"/>
    </g>
   </g>
   <g id="text_34">
    <!-- T -->
    <g style="fill:#ffffff;" transform="translate(230.694929 150.515625)scale(0.06 -0.06)">
     <use xlink:href="#DejaVuSans-84"/>
    </g>
   </g>
   <g id="text_35">
    <!-- G -->
    <g style="fill:#ffffff;" transform="translate(301.220923 150.515625)scale(0.06 -0.06)">
     <use xlink:href="#DejaVuSans-71"/>
    </g>
   </g>
   <g id="text_36">
    <!-- G -->
    <g style="fill:#ffffff;" transform="translate(372.239105 150.515625)scale(0.06 -0.06)">
     <use xlink:href="#DejaVuSans-71"/>
    </g>
   </g>
   <g id="text_37">
    <!-- A -->
    <g style="fill:#ffffff;" transform="translate(443.529631 150.515625)scale(0.06 -0.06)">
     <use xlink:href="#DejaVuSans-65"/>
    </g>
   </g>
   <g id="text_38">
    <!-- A/G -->
    <g style="fill:#262626;" transform="translate(156.121747 178.235625)scale(0.06 -0.06)">
     <use xlink:href="#DejaVuSans-65"/>
     <use x="68.408203" xlink:href="#DejaVuSans-47"/>
     <use x="102.099609" xlink:href="#DejaVuSans-71"/>
    </g>
   </g>
   <g id="text_39">
    <!-- C/T -->
    <g style="fill:#262626;" transform="translate(227.58946 178.235625)scale(0.06 -0.06)">
     <use xlink:href="#DejaVuSans-67"/>
     <use x="69.824219" xlink:href="#DejaVuSans-47"/>
     <use x="103.515625" xlink:href="#DejaVuSans-84"/>
    </g>
   </g>
   <g id="text_40">
    <!-- G -->
    <g style="fill:#ffffff;" transform="translate(301.220923 178.235625)scale(0.06 -0.06)">
     <use xlink:href="#DejaVuSans-71"/>
    </g>
   </g>
   <g id="text_41">
    <!-- G -->
    <g style="fill:#ffffff;" transform="translate(372.239105 178.235625)scale(0.06 -0.06)">
     <use xlink:href="#DejaVuSans-71"/>
    </g>
   </g>
   <g id="text_42">
    <!-- A -->
    <g style="fill:#ffffff;" transform="translate(443.529631 178.235625)scale(0.06 -0.06)">
     <use xlink:href="#DejaVuSans-65"/>
    </g>
   </g>
   <g id="text_43">
    <!-- A/G/G -->
    <g style="fill:#262626;" transform="translate(152.786591 205.955625)scale(0.06 -0.06)">
     <use xlink:href="#DejaVuSans-65"/>
     <use x="68.408203" xlink:href="#DejaVuSans-47"/>
     <use x="102.099609" xlink:href="#DejaVuSans-71"/>
     <use x="179.589844" xlink:href="#DejaVuSans-47"/>
     <use x="213.28125" xlink:href="#DejaVuSans-71"/>
    </g>
   </g>
   <g id="text_44">
    <!-- C/T/T -->
    <g style="fill:#262626;" transform="translate(224.746491 205.955625)scale(0.06 -0.06)">
     <use xlink:href="#DejaVuSans-67"/>
     <use x="69.824219" xlink:href="#DejaVuSans-47"/>
     <use x="103.515625" xlink:href="#DejaVuSans-84"/>
     <use x="164.599609" xlink:href="#DejaVuSans-47"/>
     <use x="198.291016" xlink:href="#DejaVuSans-84"/>
    </g>
   </g>
   <g id="text_45">
    <!-- G -->
    <g style="fill:#ffffff;" transform="translate(301.220923 205.955625)scale(0.06 -0.06)">
     <use xlink:href="#DejaVuSans-71"/>
    </g>
   </g>
   <g id="text_46">
    <!-- G -->
    <g style="fill:#ffffff;" transform="translate(372.239105 205.955625)scale(0.06 -0.06)">
     <use xlink:href="#DejaVuSans-71"/>
    </g>
   </g>
   <g id="text_47">
    <!-- A -->
    <g style="fill:#ffffff;" transform="translate(443.529631 205.955625)scale(0.06 -0.06)">
     <use xlink:href="#DejaVuSans-65"/>
    </g>
   </g>
   <g id="text_48">
    <!-- A/G/G -->
    <g style="fill:#262626;" transform="translate(152.786591 233.675625)scale(0.06 -0.06)">
     <use xlink:href="#DejaVuSans-65"/>
     <use x="68.408203" xlink:href="#DejaVuSans-47"/>
     <use x="102.099609" xlink:href="#DejaVuSans-71"/>
     <use x="179.589844" xlink:href="#DejaVuSans-47"/>
     <use x="213.28125" xlink:href="#DejaVuSans-71"/>
    </g>
   </g>
   <g id="text_49">
    <!-- C/T/T -->
    <g style="fill:#262626;" transform="translate(224.746491 233.675625)scale(0.06 -0.06)">
     <use xlink:href="#DejaVuSans-67"/>
     <use x="69.824219" xlink:href="#DejaVuSans-47"/>
     <use x="103.515625" xlink:href="#DejaVuSans-84"/>
     <use x="164.599609" xlink:href="#DejaVuSans-47"/>
     <use x="198.291016" xlink:href="#DejaVuSans-84"/>
    </g>
   </g>
   <g id="text_50">
    <!-- G -->
    <g style="fill:#ffffff;" transform="translate(301.220923 233.675625)scale(0.06 -0.06)">
     <use xlink:href="#DejaVuSans-71"/>
    </g>
   </g>
   <g id="text_51">
    <!-- G -->
    <g style="fill:#ffffff;" transform="translate(372.239105 233.675625)scale(0.06 -0.06)">
     <use xlink:href="#DejaVuSans-71"/>
    </g>
   </g>
   <g id="text_52">
    <!-- A/A/G -->
    <g style="fill:#262626;" transform="translate(437.131662 233.675625)scale(0.06 -0.06)">
     <use xlink:href="#DejaVuSans-65"/>
     <use x="68.408203" xlink:href="#DejaVuSans-47"/>
     <use x="102.099609" xlink:href="#DejaVuSans-65"/>
     <use x="170.507812" xlink:href="#DejaVuSans-47"/>
     <use x="204.199219" xlink:href="#DejaVuSans-71"/>
    </g>
   </g>
   <g id="text_53">
    <!-- A/G -->
    <g style="fill:#262626;" transform="translate(156.121747 261.395625)scale(0.06 -0.06)">
     <use xlink:href="#DejaVuSans-65"/>
     <use x="68.408203" xlink:href="#DejaVuSans-47"/>
     <use x="102.099609" xlink:href="#DejaVuSans-71"/>
    </g>
   </g>
   <g id="text_54">
    <!-- T -->
    <g style="fill:#ffffff;" transform="translate(230.694929 261.395625)scale(0.06 -0.06)">
     <use xlink:href="#DejaVuSans-84"/>
    </g>
   </g>
   <g id="text_55">
    <!-- G -->
    <g style="fill:#ffffff;" transform="translate(301.220923 261.395625)scale(0.06 -0.06)">
     <use xlink:href="#DejaVuSans-71"/>
    </g>
   </g>
   <g id="text_56">
    <!-- G -->
    <g style="fill:#ffffff;" transform="translate(372.239105 261.395625)scale(0.06 -0.06)">
     <use xlink:href="#DejaVuSans-71"/>
    </g>
   </g>
   <g id="text_57">
    <!-- A/G -->
    <g style="fill:#262626;" transform="translate(440.194474 261.395625)scale(0.06 -0.06)">
     <use xlink:href="#DejaVuSans-65"/>
     <use x="68.408203" xlink:href="#DejaVuSans-47"/>
     <use x="102.099609" xlink:href="#DejaVuSans-71"/>
    </g>
   </g>
   <g id="text_58">
    <!-- A/G -->
    <g style="fill:#262626;" transform="translate(156.121747 289.115625)scale(0.06 -0.06)">
     <use xlink:href="#DejaVuSans-65"/>
     <use x="68.408203" xlink:href="#DejaVuSans-47"/>
     <use x="102.099609" xlink:href="#DejaVuSans-71"/>
    </g>
   </g>
   <g id="text_59">
    <!-- C/T -->
    <g style="fill:#262626;" transform="translate(227.58946 289.115625)scale(0.06 -0.06)">
     <use xlink:href="#DejaVuSans-67"/>
     <use x="69.824219" xlink:href="#DejaVuSans-47"/>
     <use x="103.515625" xlink:href="#DejaVuSans-84"/>
    </g>
   </g>
   <g id="text_60">
    <!-- G -->
    <g style="fill:#ffffff;" transform="translate(301.220923 289.115625)scale(0.06 -0.06)">
     <use xlink:href="#DejaVuSans-71"/>
    </g>
   </g>
   <g id="text_61">
    <!-- G -->
    <g style="fill:#ffffff;" transform="translate(372.239105 289.115625)scale(0.06 -0.06)">
     <use xlink:href="#DejaVuSans-71"/>
    </g>
   </g>
   <g id="text_62">
    <!-- A/G -->
    <g style="fill:#262626;" transform="translate(440.194474 289.115625)scale(0.06 -0.06)">
     <use xlink:href="#DejaVuSans-65"/>
     <use x="68.408203" xlink:href="#DejaVuSans-47"/>
     <use x="102.099609" xlink:href="#DejaVuSans-71"/>
    </g>
   </g>
   <g id="text_63">
    <!-- A/G -->
    <g style="fill:#262626;" transform="translate(156.121747 316.835625)scale(0.06 -0.06)">
     <use xlink:href="#DejaVuSans-65"/>
     <use x="68.408203" xlink:href="#DejaVuSans-47"/>
     <use x="102.099609" xlink:href="#DejaVuSans-71"/>
    </g>
   </g>
   <g id="text_64">
    <!-- C/T -->
    <g style="fill:#262626;" transform="translate(227.58946 316.835625)scale(0.06 -0.06)">
     <use xlink:href="#DejaVuSans-67"/>
     <use x="69.824219" xlink:href="#DejaVuSans-47"/>
     <use x="103.515625" xlink:href="#DejaVuSans-84"/>
    </g>
   </g>
   <g id="text_65">
    <!-- G -->
    <g style="fill:#ffffff;" transform="translate(301.220923 316.835625)scale(0.06 -0.06)">
     <use xlink:href="#DejaVuSans-71"/>
    </g>
   </g>
   <g id="text_66">
    <!-- G -->
    <g style="fill:#ffffff;" transform="translate(372.239105 316.835625)scale(0.06 -0.06)">
     <use xlink:href="#DejaVuSans-71"/>
    </g>
   </g>
   <g id="text_67">
    <!-- A -->
    <g style="fill:#ffffff;" transform="translate(443.529631 316.835625)scale(0.06 -0.06)">
     <use xlink:href="#DejaVuSans-65"/>
    </g>
   </g>
   <g id="text_68">
    <!-- A/G -->
    <g style="fill:#262626;" transform="translate(156.121747 344.555625)scale(0.06 -0.06)">
     <use xlink:href="#DejaVuSans-65"/>
     <use x="68.408203" xlink:href="#DejaVuSans-47"/>
     <use x="102.099609" xlink:href="#DejaVuSans-71"/>
    </g>
   </g>
   <g id="text_69">
    <!-- C -->
    <g style="fill:#ffffff;" transform="translate(230.432429 344.555625)scale(0.06 -0.06)">
     <use xlink:href="#DejaVuSans-67"/>
    </g>
   </g>
   <g id="text_70">
    <!-- G -->
    <g style="fill:#ffffff;" transform="translate(301.220923 344.555625)scale(0.06 -0.06)">
     <use xlink:href="#DejaVuSans-71"/>
    </g>
   </g>
   <g id="text_71">
    <!-- G -->
    <g style="fill:#ffffff;" transform="translate(372.239105 344.555625)scale(0.06 -0.06)">
     <use xlink:href="#DejaVuSans-71"/>
    </g>
   </g>
   <g id="text_72">
    <!-- A -->
    <g style="fill:#ffffff;" transform="translate(443.529631 344.555625)scale(0.06 -0.06)">
     <use xlink:href="#DejaVuSans-65"/>
    </g>
   </g>
   <g id="text_73">
    <!-- A -->
    <g style="fill:#ffffff;" transform="translate(159.456903 372.275625)scale(0.06 -0.06)">
     <use xlink:href="#DejaVuSans-65"/>
    </g>
   </g>
   <g id="text_74">
    <!-- T -->
    <g style="fill:#ffffff;" transform="translate(230.694929 372.275625)scale(0.06 -0.06)">
     <use xlink:href="#DejaVuSans-84"/>
    </g>
   </g>
   <g id="text_75">
    <!-- G -->
    <g style="fill:#ffffff;" transform="translate(301.220923 372.275625)scale(0.06 -0.06)">
     <use xlink:href="#DejaVuSans-71"/>
    </g>
   </g>
   <g id="text_76">
    <!-- G -->
    <g style="fill:#ffffff;" transform="translate(372.239105 372.275625)scale(0.06 -0.06)">
     <use xlink:href="#DejaVuSans-71"/>
    </g>
   </g>
   <g id="text_77">
    <!-- A -->
    <g style="fill:#ffffff;" transform="translate(443.529631 372.275625)scale(0.06 -0.06)">
     <use xlink:href="#DejaVuSans-65"/>
    </g>
   </g>
  </g>
  <g id="axes_2">
   <g id="patch_3">
    <path d="M 552.109091 384.48 
L 907.2 384.48 
L 907.2 51.84 
L 552.109091 51.84 
z
" style="fill:#ffffff;"/>
   </g>
   <g id="patch_4">
    <path clip-path="url(#p4db3f7b165)" d="M 552.109091 54.612 
L 890.290909 54.612 
L 890.290909 76.788 
L 552.109091 76.788 
z
" style="fill:#227a60;"/>
   </g>
   <g id="patch_5">
    <path clip-path="url(#p4db3f7b165)" d="M 552.109091 82.332 
L 757.131818 82.332 
L 757.131818 104.508 
L 552.109091 104.508 
z
" style="fill:#348664;"/>
   </g>
   <g id="patch_6">
    <path clip-path="url(#p4db3f7b165)" d="M 552.109091 110.052 
L 611.290909 110.052 
L 611.290909 132.228 
L 552.109091 132.228 
z
" style="fill:#479168;"/>
   </g>
   <g id="patch_7">
    <path clip-path="url(#p4db3f7b165)" d="M 552.109091 137.772 
L 609.177273 137.772 
L 609.177273 159.948 
L 552.109091 159.948 
z
" style="fill:#599b6b;"/>
   </g>
   <g id="patch_8">
    <path clip-path="url(#p4db3f7b165)" d="M 552.109091 165.492 
L 581.7 165.492 
L 581.7 187.668 
L 552.109091 187.668 
z
" style="fill:#6ca76f;"/>
   </g>
   <g id="patch_9">
    <path clip-path="url(#p4db3f7b165)" d="M 552.109091 193.212 
L 573.245455 193.212 
L 573.245455 215.388 
L 552.109091 215.388 
z
" style="fill:#7db071;"/>
   </g>
   <g id="patch_10">
    <path clip-path="url(#p4db3f7b165)" d="M 552.109091 220.932 
L 571.131818 220.932 
L 571.131818 243.108 
L 552.109091 243.108 
z
" style="fill:#8cb872;"/>
   </g>
   <g id="patch_11">
    <path clip-path="url(#p4db3f7b165)" d="M 552.109091 248.652 
L 569.018182 248.652 
L 569.018182 270.828 
L 552.109091 270.828 
z
" style="fill:#9cc173;"/>
   </g>
   <g id="patch_12">
    <path clip-path="url(#p4db3f7b165)" d="M 552.109091 276.372 
L 560.563636 276.372 
L 560.563636 298.548 
L 552.109091 298.548 
z
" style="fill:#acca74;"/>
   </g>
   <g id="patch_13">
    <path clip-path="url(#p4db3f7b165)" d="M 552.109091 304.092 
L 560.563636 304.092 
L 560.563636 326.268 
L 552.109091 326.268 
z
" style="fill:#bcd275;"/>
   </g>
   <g id="patch_14">
    <path clip-path="url(#p4db3f7b165)" d="M 552.109091 331.812 
L 556.336364 331.812 
L 556.336364 353.988 
L 552.109091 353.988 
z
" style="fill:#ccdb77;"/>
   </g>
   <g id="patch_15">
    <path clip-path="url(#p4db3f7b165)" d="M 552.109091 359.532 
L 556.336364 359.532 
L 556.336364 381.708 
L 552.109091 381.708 
z
" style="fill:#dce478;"/>
   </g>
   <g id="matplotlib.axis_3">
    <g id="xtick_6">
     <g id="line2d_18">
      <g>
       <use style="stroke:#000000;stroke-width:0.8;" x="552.109091" xlink:href="#m0fc5fd581e" y="384.48"/>
      </g>
     </g>
     <g id="text_78">
      <!-- 0 -->
      <g transform="translate(548.927841 399.078438)scale(0.1 -0.1)">
       <use xlink:href="#DejaVuSans-48"/>
      </g>
     </g>
    </g>
    <g id="xtick_7">
     <g id="line2d_19">
      <g>
       <use style="stroke:#000000;stroke-width:0.8;" x="594.381818" xlink:href="#m0fc5fd581e" y="384.48"/>
      </g>
     </g>
     <g id="text_79">
      <!-- 20 -->
      <g transform="translate(588.019318 399.078438)scale(0.1 -0.1)">
       <use xlink:href="#DejaVuSans-50"/>
       <use x="63.623047" xlink:href="#DejaVuSans-48"/>
      </g>
     </g>
    </g>
    <g id="xtick_8">
     <g id="line2d_20">
      <g>
       <use style="stroke:#000000;stroke-width:0.8;" x="636.654545" xlink:href="#m0fc5fd581e" y="384.48"/>
      </g>
     </g>
     <g id="text_80">
      <!-- 40 -->
      <g transform="translate(630.292045 399.078438)scale(0.1 -0.1)">
       <use xlink:href="#DejaVuSans-52"/>
       <use x="63.623047" xlink:href="#DejaVuSans-48"/>
      </g>
     </g>
    </g>
    <g id="xtick_9">
     <g id="line2d_21">
      <g>
       <use style="stroke:#000000;stroke-width:0.8;" x="678.927273" xlink:href="#m0fc5fd581e" y="384.48"/>
      </g>
     </g>
     <g id="text_81">
      <!-- 60 -->
      <g transform="translate(672.564773 399.078438)scale(0.1 -0.1)">
       <use xlink:href="#DejaVuSans-54"/>
       <use x="63.623047" xlink:href="#DejaVuSans-48"/>
      </g>
     </g>
    </g>
    <g id="xtick_10">
     <g id="line2d_22">
      <g>
       <use style="stroke:#000000;stroke-width:0.8;" x="721.2" xlink:href="#m0fc5fd581e" y="384.48"/>
      </g>
     </g>
     <g id="text_82">
      <!-- 80 -->
      <g transform="translate(714.8375 399.078438)scale(0.1 -0.1)">
       <use xlink:href="#DejaVuSans-56"/>
       <use x="63.623047" xlink:href="#DejaVuSans-48"/>
      </g>
     </g>
    </g>
    <g id="xtick_11">
     <g id="line2d_23">
      <g>
       <use style="stroke:#000000;stroke-width:0.8;" x="763.472727" xlink:href="#m0fc5fd581e" y="384.48"/>
      </g>
     </g>
     <g id="text_83">
      <!-- 100 -->
      <g transform="translate(753.928977 399.078438)scale(0.1 -0.1)">
       <use xlink:href="#DejaVuSans-49"/>
       <use x="63.623047" xlink:href="#DejaVuSans-48"/>
       <use x="127.246094" xlink:href="#DejaVuSans-48"/>
      </g>
     </g>
    </g>
    <g id="xtick_12">
     <g id="line2d_24">
      <g>
       <use style="stroke:#000000;stroke-width:0.8;" x="805.745455" xlink:href="#m0fc5fd581e" y="384.48"/>
      </g>
     </g>
     <g id="text_84">
      <!-- 120 -->
      <g transform="translate(796.201705 399.078438)scale(0.1 -0.1)">
       <use xlink:href="#DejaVuSans-49"/>
       <use x="63.623047" xlink:href="#DejaVuSans-50"/>
       <use x="127.246094" xlink:href="#DejaVuSans-48"/>
      </g>
     </g>
    </g>
    <g id="xtick_13">
     <g id="line2d_25">
      <g>
       <use style="stroke:#000000;stroke-width:0.8;" x="848.018182" xlink:href="#m0fc5fd581e" y="384.48"/>
      </g>
     </g>
     <g id="text_85">
      <!-- 140 -->
      <g transform="translate(838.474432 399.078438)scale(0.1 -0.1)">
       <use xlink:href="#DejaVuSans-49"/>
       <use x="63.623047" xlink:href="#DejaVuSans-52"/>
       <use x="127.246094" xlink:href="#DejaVuSans-48"/>
      </g>
     </g>
    </g>
    <g id="xtick_14">
     <g id="line2d_26">
      <g>
       <use style="stroke:#000000;stroke-width:0.8;" x="890.290909" xlink:href="#m0fc5fd581e" y="384.48"/>
      </g>
     </g>
     <g id="text_86">
      <!-- 160 -->
      <g transform="translate(880.747159 399.078438)scale(0.1 -0.1)">
       <use xlink:href="#DejaVuSans-49"/>
       <use x="63.623047" xlink:href="#DejaVuSans-54"/>
       <use x="127.246094" xlink:href="#DejaVuSans-48"/>
      </g>
     </g>
    </g>
    <g id="text_87">
     <!-- # individuals -->
     <g transform="translate(697.005327 412.756563)scale(0.1 -0.1)">
      <defs>
       <path d="M 51.125 44 
L 36.921875 44 
L 32.8125 27.6875 
L 47.125 27.6875 
z
M 43.796875 71.78125 
L 38.71875 51.515625 
L 52.984375 51.515625 
L 58.109375 71.78125 
L 65.921875 71.78125 
L 60.890625 51.515625 
L 76.125 51.515625 
L 76.125 44 
L 58.984375 44 
L 54.984375 27.6875 
L 70.515625 27.6875 
L 70.515625 20.21875 
L 53.078125 20.21875 
L 48 0 
L 40.1875 0 
L 45.21875 20.21875 
L 30.90625 20.21875 
L 25.875 0 
L 18.015625 0 
L 23.09375 20.21875 
L 7.71875 20.21875 
L 7.71875 27.6875 
L 24.90625 27.6875 
L 29 44 
L 13.28125 44 
L 13.28125 51.515625 
L 30.90625 51.515625 
L 35.890625 71.78125 
z
" id="DejaVuSans-35"/>
       <path id="DejaVuSans-32"/>
       <path d="M 9.421875 54.6875 
L 18.40625 54.6875 
L 18.40625 0 
L 9.421875 0 
z
M 9.421875 75.984375 
L 18.40625 75.984375 
L 18.40625 64.59375 
L 9.421875 64.59375 
z
" id="DejaVuSans-105"/>
       <path d="M 54.890625 33.015625 
L 54.890625 0 
L 45.90625 0 
L 45.90625 32.71875 
Q 45.90625 40.484375 42.875 44.328125 
Q 39.84375 48.1875 33.796875 48.1875 
Q 26.515625 48.1875 22.3125 43.546875 
Q 18.109375 38.921875 18.109375 30.90625 
L 18.109375 0 
L 9.078125 0 
L 9.078125 54.6875 
L 18.109375 54.6875 
L 18.109375 46.1875 
Q 21.34375 51.125 25.703125 53.5625 
Q 30.078125 56 35.796875 56 
Q 45.21875 56 50.046875 50.171875 
Q 54.890625 44.34375 54.890625 33.015625 
z
" id="DejaVuSans-110"/>
       <path d="M 45.40625 46.390625 
L 45.40625 75.984375 
L 54.390625 75.984375 
L 54.390625 0 
L 45.40625 0 
L 45.40625 8.203125 
Q 42.578125 3.328125 38.25 0.953125 
Q 33.9375 -1.421875 27.875 -1.421875 
Q 17.96875 -1.421875 11.734375 6.484375 
Q 5.515625 14.40625 5.515625 27.296875 
Q 5.515625 40.1875 11.734375 48.09375 
Q 17.96875 56 27.875 56 
Q 33.9375 56 38.25 53.625 
Q 42.578125 51.265625 45.40625 46.390625 
z
M 14.796875 27.296875 
Q 14.796875 17.390625 18.875 11.75 
Q 22.953125 6.109375 30.078125 6.109375 
Q 37.203125 6.109375 41.296875 11.75 
Q 45.40625 17.390625 45.40625 27.296875 
Q 45.40625 37.203125 41.296875 42.84375 
Q 37.203125 48.484375 30.078125 48.484375 
Q 22.953125 48.484375 18.875 42.84375 
Q 14.796875 37.203125 14.796875 27.296875 
z
" id="DejaVuSans-100"/>
       <path d="M 2.984375 54.6875 
L 12.5 54.6875 
L 29.59375 8.796875 
L 46.6875 54.6875 
L 56.203125 54.6875 
L 35.6875 0 
L 23.484375 0 
z
" id="DejaVuSans-118"/>
       <path d="M 8.5 21.578125 
L 8.5 54.6875 
L 17.484375 54.6875 
L 17.484375 21.921875 
Q 17.484375 14.15625 20.5 10.265625 
Q 23.53125 6.390625 29.59375 6.390625 
Q 36.859375 6.390625 41.078125 11.03125 
Q 45.3125 15.671875 45.3125 23.6875 
L 45.3125 54.6875 
L 54.296875 54.6875 
L 54.296875 0 
L 45.3125 0 
L 45.3125 8.40625 
Q 42.046875 3.421875 37.71875 1 
Q 33.40625 -1.421875 27.6875 -1.421875 
Q 18.265625 -1.421875 13.375 4.4375 
Q 8.5 10.296875 8.5 21.578125 
z
M 31.109375 56 
z
" id="DejaVuSans-117"/>
       <path d="M 34.28125 27.484375 
Q 23.390625 27.484375 19.1875 25 
Q 14.984375 22.515625 14.984375 16.5 
Q 14.984375 11.71875 18.140625 8.90625 
Q 21.296875 6.109375 26.703125 6.109375 
Q 34.1875 6.109375 38.703125 11.40625 
Q 43.21875 16.703125 43.21875 25.484375 
L 43.21875 27.484375 
z
M 52.203125 31.203125 
L 52.203125 0 
L 43.21875 0 
L 43.21875 8.296875 
Q 40.140625 3.328125 35.546875 0.953125 
Q 30.953125 -1.421875 24.3125 -1.421875 
Q 15.921875 -1.421875 10.953125 3.296875 
Q 6 8.015625 6 15.921875 
Q 6 25.140625 12.171875 29.828125 
Q 18.359375 34.515625 30.609375 34.515625 
L 43.21875 34.515625 
L 43.21875 35.40625 
Q 43.21875 41.609375 39.140625 45 
Q 35.0625 48.390625 27.6875 48.390625 
Q 23 48.390625 18.546875 47.265625 
Q 14.109375 46.140625 10.015625 43.890625 
L 10.015625 52.203125 
Q 14.9375 54.109375 19.578125 55.046875 
Q 24.21875 56 28.609375 56 
Q 40.484375 56 46.34375 49.84375 
Q 52.203125 43.703125 52.203125 31.203125 
z
" id="DejaVuSans-97"/>
       <path d="M 9.421875 75.984375 
L 18.40625 75.984375 
L 18.40625 0 
L 9.421875 0 
z
" id="DejaVuSans-108"/>
       <path d="M 44.28125 53.078125 
L 44.28125 44.578125 
Q 40.484375 46.53125 36.375 47.5 
Q 32.28125 48.484375 27.875 48.484375 
Q 21.1875 48.484375 17.84375 46.4375 
Q 14.5 44.390625 14.5 40.28125 
Q 14.5 37.15625 16.890625 35.375 
Q 19.28125 33.59375 26.515625 31.984375 
L 29.59375 31.296875 
Q 39.15625 29.25 43.1875 25.515625 
Q 47.21875 21.78125 47.21875 15.09375 
Q 47.21875 7.46875 41.1875 3.015625 
Q 35.15625 -1.421875 24.609375 -1.421875 
Q 20.21875 -1.421875 15.453125 -0.5625 
Q 10.6875 0.296875 5.421875 2 
L 5.421875 11.28125 
Q 10.40625 8.6875 15.234375 7.390625 
Q 20.0625 6.109375 24.8125 6.109375 
Q 31.15625 6.109375 34.5625 8.28125 
Q 37.984375 10.453125 37.984375 14.40625 
Q 37.984375 18.0625 35.515625 20.015625 
Q 33.0625 21.96875 24.703125 23.78125 
L 21.578125 24.515625 
Q 13.234375 26.265625 9.515625 29.90625 
Q 5.8125 33.546875 5.8125 39.890625 
Q 5.8125 47.609375 11.28125 51.796875 
Q 16.75 56 26.8125 56 
Q 31.78125 56 36.171875 55.265625 
Q 40.578125 54.546875 44.28125 53.078125 
z
" id="DejaVuSans-115"/>
      </defs>
      <use xlink:href="#DejaVuSans-35"/>
      <use x="83.789062" xlink:href="#DejaVuSans-32"/>
      <use x="115.576172" xlink:href="#DejaVuSans-105"/>
      <use x="143.359375" xlink:href="#DejaVuSans-110"/>
      <use x="206.738281" xlink:href="#DejaVuSans-100"/>
      <use x="270.214844" xlink:href="#DejaVuSans-105"/>
      <use x="297.998047" xlink:href="#DejaVuSans-118"/>
      <use x="357.177734" xlink:href="#DejaVuSans-105"/>
      <use x="384.960938" xlink:href="#DejaVuSans-100"/>
      <use x="448.4375" xlink:href="#DejaVuSans-117"/>
      <use x="511.816406" xlink:href="#DejaVuSans-97"/>
      <use x="573.095703" xlink:href="#DejaVuSans-108"/>
      <use x="600.878906" xlink:href="#DejaVuSans-115"/>
     </g>
    </g>
   </g>
   <g id="matplotlib.axis_4"/>
   <g id="line2d_27">
    <path clip-path="url(#p4db3f7b165)" d="M 0 0 
" style="fill:none;stroke:#424242;stroke-linecap:square;stroke-width:2.7;"/>
   </g>
   <g id="line2d_28">
    <path clip-path="url(#p4db3f7b165)" d="M 0 0 
" style="fill:none;stroke:#424242;stroke-linecap:square;stroke-width:2.7;"/>
   </g>
   <g id="line2d_29">
    <path clip-path="url(#p4db3f7b165)" d="M 0 0 
" style="fill:none;stroke:#424242;stroke-linecap:square;stroke-width:2.7;"/>
   </g>
   <g id="line2d_30">
    <path clip-path="url(#p4db3f7b165)" d="M 0 0 
" style="fill:none;stroke:#424242;stroke-linecap:square;stroke-width:2.7;"/>
   </g>
   <g id="line2d_31">
    <path clip-path="url(#p4db3f7b165)" d="M 0 0 
" style="fill:none;stroke:#424242;stroke-linecap:square;stroke-width:2.7;"/>
   </g>
   <g id="line2d_32">
    <path clip-path="url(#p4db3f7b165)" d="M 0 0 
" style="fill:none;stroke:#424242;stroke-linecap:square;stroke-width:2.7;"/>
   </g>
   <g id="line2d_33">
    <path clip-path="url(#p4db3f7b165)" d="M 0 0 
" style="fill:none;stroke:#424242;stroke-linecap:square;stroke-width:2.7;"/>
   </g>
   <g id="line2d_34">
    <path clip-path="url(#p4db3f7b165)" d="M 0 0 
" style="fill:none;stroke:#424242;stroke-linecap:square;stroke-width:2.7;"/>
   </g>
   <g id="line2d_35">
    <path clip-path="url(#p4db3f7b165)" d="M 0 0 
" style="fill:none;stroke:#424242;stroke-linecap:square;stroke-width:2.7;"/>
   </g>
   <g id="line2d_36">
    <path clip-path="url(#p4db3f7b165)" d="M 0 0 
" style="fill:none;stroke:#424242;stroke-linecap:square;stroke-width:2.7;"/>
   </g>
   <g id="line2d_37">
    <path clip-path="url(#p4db3f7b165)" d="M 0 0 
" style="fill:none;stroke:#424242;stroke-linecap:square;stroke-width:2.7;"/>
   </g>
   <g id="line2d_38">
    <path clip-path="url(#p4db3f7b165)" d="M 0 0 
" style="fill:none;stroke:#424242;stroke-linecap:square;stroke-width:2.7;"/>
   </g>
   <g id="patch_16">
    <path d="M 552.109091 384.48 
L 552.109091 51.84 
" style="fill:none;stroke:#000000;stroke-linecap:square;stroke-linejoin:miter;stroke-width:0.8;"/>
   </g>
   <g id="patch_17">
    <path d="M 907.2 384.48 
L 907.2 51.84 
" style="fill:none;stroke:#000000;stroke-linecap:square;stroke-linejoin:miter;stroke-width:0.8;"/>
   </g>
   <g id="patch_18">
    <path d="M 552.109091 384.48 
L 907.2 384.48 
" style="fill:none;stroke:#000000;stroke-linecap:square;stroke-linejoin:miter;stroke-width:0.8;"/>
   </g>
   <g id="patch_19">
    <path d="M 552.109091 51.84 
L 907.2 51.84 
" style="fill:none;stroke:#000000;stroke-linecap:square;stroke-linejoin:miter;stroke-width:0.8;"/>
   </g>
  </g>
  <g id="text_88">
   <!-- IGHV3-7 -->
   <g transform="translate(479.164688 17.758125)scale(0.12 -0.12)">
    <defs>
     <path d="M 9.8125 72.90625 
L 19.671875 72.90625 
L 19.671875 0 
L 9.8125 0 
z
" id="DejaVuSans-73"/>
     <path d="M 9.8125 72.90625 
L 19.671875 72.90625 
L 19.671875 43.015625 
L 55.515625 43.015625 
L 55.515625 72.90625 
L 65.375 72.90625 
L 65.375 0 
L 55.515625 0 
L 55.515625 34.71875 
L 19.671875 34.71875 
L 19.671875 0 
L 9.8125 0 
z
" id="DejaVuSans-72"/>
     <path d="M 28.609375 0 
L 0.78125 72.90625 
L 11.078125 72.90625 
L 34.1875 11.53125 
L 57.328125 72.90625 
L 67.578125 72.90625 
L 39.796875 0 
z
" id="DejaVuSans-86"/>
     <path d="M 4.890625 31.390625 
L 31.203125 31.390625 
L 31.203125 23.390625 
L 4.890625 23.390625 
z
" id="DejaVuSans-45"/>
    </defs>
    <use xlink:href="#DejaVuSans-73"/>
    <use x="29.492188" xlink:href="#DejaVuSans-71"/>
    <use x="106.982422" xlink:href="#DejaVuSans-72"/>
    <use x="182.177734" xlink:href="#DejaVuSans-86"/>
    <use x="250.585938" xlink:href="#DejaVuSans-51"/>
    <use x="314.208984" xlink:href="#DejaVuSans-45"/>
    <use x="350.292969" xlink:href="#DejaVuSans-55"/>
   </g>
  </g>
 </g>
 <defs>
  <clipPath id="pca8ba48515">
   <rect height="332.64" width="355.090909" x="126" y="51.84"/>
  </clipPath>
  <clipPath id="p4db3f7b165">
   <rect height="332.64" width="355.090909" x="552.109091" y="51.84"/>
  </clipPath>
 </defs>
</svg>
