<?xml version="1.0" encoding="utf-8" standalone="no"?>
<!DOCTYPE svg PUBLIC "-//W3C//DTD SVG 1.1//EN"
  "http://www.w3.org/Graphics/SVG/1.1/DTD/svg11.dtd">
<!-- Created with matplotlib (https://matplotlib.org/) -->
<svg height="432pt" version="1.1" viewBox="0 0 576 432" width="576pt" xmlns="http://www.w3.org/2000/svg" xmlns:xlink="http://www.w3.org/1999/xlink">
 <metadata>
  <rdf:RDF xmlns:cc="http://creativecommons.org/ns#" xmlns:dc="http://purl.org/dc/elements/1.1/" xmlns:rdf="http://www.w3.org/1999/02/22-rdf-syntax-ns#">
   <cc:Work>
    <dc:type rdf:resource="http://purl.org/dc/dcmitype/StillImage"/>
    <dc:date>2021-01-02T10:05:41.336551</dc:date>
    <dc:format>image/svg+xml</dc:format>
    <dc:creator>
     <cc:Agent>
      <dc:title>Matplotlib v3.3.2, https://matplotlib.org/</dc:title>
     </cc:Agent>
    </dc:creator>
   </cc:Work>
  </rdf:RDF>
 </metadata>
 <defs>
  <style type="text/css">*{stroke-linecap:butt;stroke-linejoin:round;}</style>
 </defs>
 <g id="figure_1">
  <g id="patch_1">
   <path d="M 0 432 
L 576 432 
L 576 0 
L 0 0 
z
" style="fill:#ffffff;"/>
  </g>
  <g id="axes_1">
   <g id="patch_2">
    <path d="M 72 384.48 
L 518.4 384.48 
L 518.4 51.84 
L 72 51.84 
z
" style="fill:#ffffff;"/>
   </g>
   <g id="QuadMesh_1">
    <path clip-path="url(#p1b7d0c3530)" d="M 72 51.84 
L 183.6 51.84 
L 183.6 66.302609 
L 72 66.302609 
L 72 51.84 
" style="fill:#17becf;stroke:#ffffff;stroke-width:0.2;"/>
    <path clip-path="url(#p1b7d0c3530)" d="M 183.6 51.84 
L 295.2 51.84 
L 295.2 66.302609 
L 183.6 66.302609 
L 183.6 51.84 
" style="fill:#c7c7c7;stroke:#ffffff;stroke-width:0.2;"/>
    <path clip-path="url(#p1b7d0c3530)" d="M 295.2 51.84 
L 406.8 51.84 
L 406.8 66.302609 
L 295.2 66.302609 
L 295.2 51.84 
" style="fill:#c7c7c7;stroke:#ffffff;stroke-width:0.2;"/>
    <path clip-path="url(#p1b7d0c3530)" d="M 406.8 51.84 
L 518.4 51.84 
L 518.4 66.302609 
L 406.8 66.302609 
L 406.8 51.84 
" style="fill:#c7c7c7;stroke:#ffffff;stroke-width:0.2;"/>
    <path clip-path="url(#p1b7d0c3530)" d="M 72 66.302609 
L 183.6 66.302609 
L 183.6 80.765217 
L 72 80.765217 
L 72 66.302609 
" style="fill:#17becf;stroke:#ffffff;stroke-width:0.2;"/>
    <path clip-path="url(#p1b7d0c3530)" d="M 183.6 66.302609 
L 295.2 66.302609 
L 295.2 80.765217 
L 183.6 80.765217 
L 183.6 66.302609 
" style="fill:#ffbb78;stroke:#ffffff;stroke-width:0.2;"/>
    <path clip-path="url(#p1b7d0c3530)" d="M 295.2 66.302609 
L 406.8 66.302609 
L 406.8 80.765217 
L 295.2 80.765217 
L 295.2 66.302609 
" style="fill:#c7c7c7;stroke:#ffffff;stroke-width:0.2;"/>
    <path clip-path="url(#p1b7d0c3530)" d="M 406.8 66.302609 
L 518.4 66.302609 
L 518.4 80.765217 
L 406.8 80.765217 
L 406.8 66.302609 
" style="fill:#c7c7c7;stroke:#ffffff;stroke-width:0.2;"/>
    <path clip-path="url(#p1b7d0c3530)" d="M 72 80.765217 
L 183.6 80.765217 
L 183.6 95.227826 
L 72 95.227826 
L 72 80.765217 
" style="fill:#17becf;stroke:#ffffff;stroke-width:0.2;"/>
    <path clip-path="url(#p1b7d0c3530)" d="M 183.6 80.765217 
L 295.2 80.765217 
L 295.2 95.227826 
L 183.6 95.227826 
L 183.6 80.765217 
" style="fill:#2ca02c;stroke:#ffffff;stroke-width:0.2;"/>
    <path clip-path="url(#p1b7d0c3530)" d="M 295.2 80.765217 
L 406.8 80.765217 
L 406.8 95.227826 
L 295.2 95.227826 
L 295.2 80.765217 
" style="fill:#c7c7c7;stroke:#ffffff;stroke-width:0.2;"/>
    <path clip-path="url(#p1b7d0c3530)" d="M 406.8 80.765217 
L 518.4 80.765217 
L 518.4 95.227826 
L 406.8 95.227826 
L 406.8 80.765217 
" style="fill:#c7c7c7;stroke:#ffffff;stroke-width:0.2;"/>
    <path clip-path="url(#p1b7d0c3530)" d="M 72 95.227826 
L 183.6 95.227826 
L 183.6 109.690435 
L 72 109.690435 
L 72 95.227826 
" style="fill:#17becf;stroke:#ffffff;stroke-width:0.2;"/>
    <path clip-path="url(#p1b7d0c3530)" d="M 183.6 95.227826 
L 295.2 95.227826 
L 295.2 109.690435 
L 183.6 109.690435 
L 183.6 95.227826 
" style="fill:#aec7e8;stroke:#ffffff;stroke-width:0.2;"/>
    <path clip-path="url(#p1b7d0c3530)" d="M 295.2 95.227826 
L 406.8 95.227826 
L 406.8 109.690435 
L 295.2 109.690435 
L 295.2 95.227826 
" style="fill:#c7c7c7;stroke:#ffffff;stroke-width:0.2;"/>
    <path clip-path="url(#p1b7d0c3530)" d="M 406.8 95.227826 
L 518.4 95.227826 
L 518.4 109.690435 
L 406.8 109.690435 
L 406.8 95.227826 
" style="fill:#c7c7c7;stroke:#ffffff;stroke-width:0.2;"/>
    <path clip-path="url(#p1b7d0c3530)" d="M 72 109.690435 
L 183.6 109.690435 
L 183.6 124.153043 
L 72 124.153043 
L 72 109.690435 
" style="fill:#17becf;stroke:#ffffff;stroke-width:0.2;"/>
    <path clip-path="url(#p1b7d0c3530)" d="M 183.6 109.690435 
L 295.2 109.690435 
L 295.2 124.153043 
L 183.6 124.153043 
L 183.6 109.690435 
" style="fill:#2ca02c;stroke:#ffffff;stroke-width:0.2;"/>
    <path clip-path="url(#p1b7d0c3530)" d="M 295.2 109.690435 
L 406.8 109.690435 
L 406.8 124.153043 
L 295.2 124.153043 
L 295.2 109.690435 
" style="fill:#ffbb78;stroke:#ffffff;stroke-width:0.2;"/>
    <path clip-path="url(#p1b7d0c3530)" d="M 406.8 109.690435 
L 518.4 109.690435 
L 518.4 124.153043 
L 406.8 124.153043 
L 406.8 109.690435 
" style="fill:#c7c7c7;stroke:#ffffff;stroke-width:0.2;"/>
    <path clip-path="url(#p1b7d0c3530)" d="M 72 124.153043 
L 183.6 124.153043 
L 183.6 138.615652 
L 72 138.615652 
L 72 124.153043 
" style="fill:#2ca02c;stroke:#ffffff;stroke-width:0.2;"/>
    <path clip-path="url(#p1b7d0c3530)" d="M 183.6 124.153043 
L 295.2 124.153043 
L 295.2 138.615652 
L 183.6 138.615652 
L 183.6 124.153043 
" style="fill:#ff7f0e;stroke:#ffffff;stroke-width:0.2;"/>
    <path clip-path="url(#p1b7d0c3530)" d="M 295.2 124.153043 
L 406.8 124.153043 
L 406.8 138.615652 
L 295.2 138.615652 
L 295.2 124.153043 
" style="fill:#17becf;stroke:#ffffff;stroke-width:0.2;"/>
    <path clip-path="url(#p1b7d0c3530)" d="M 406.8 124.153043 
L 518.4 124.153043 
L 518.4 138.615652 
L 406.8 138.615652 
L 406.8 124.153043 
" style="fill:#c7c7c7;stroke:#ffffff;stroke-width:0.2;"/>
    <path clip-path="url(#p1b7d0c3530)" d="M 72 138.615652 
L 183.6 138.615652 
L 183.6 153.078261 
L 72 153.078261 
L 72 138.615652 
" style="fill:#17becf;stroke:#ffffff;stroke-width:0.2;"/>
    <path clip-path="url(#p1b7d0c3530)" d="M 183.6 138.615652 
L 295.2 138.615652 
L 295.2 153.078261 
L 183.6 153.078261 
L 183.6 138.615652 
" style="fill:#ffbb78;stroke:#ffffff;stroke-width:0.2;"/>
    <path clip-path="url(#p1b7d0c3530)" d="M 295.2 138.615652 
L 406.8 138.615652 
L 406.8 153.078261 
L 295.2 153.078261 
L 295.2 138.615652 
" style="fill:#ffbb78;stroke:#ffffff;stroke-width:0.2;"/>
    <path clip-path="url(#p1b7d0c3530)" d="M 406.8 138.615652 
L 518.4 138.615652 
L 518.4 153.078261 
L 406.8 153.078261 
L 406.8 138.615652 
" style="fill:#c7c7c7;stroke:#ffffff;stroke-width:0.2;"/>
    <path clip-path="url(#p1b7d0c3530)" d="M 72 153.078261 
L 183.6 153.078261 
L 183.6 167.54087 
L 72 167.54087 
L 72 153.078261 
" style="fill:#2ca02c;stroke:#ffffff;stroke-width:0.2;"/>
    <path clip-path="url(#p1b7d0c3530)" d="M 183.6 153.078261 
L 295.2 153.078261 
L 295.2 167.54087 
L 183.6 167.54087 
L 183.6 153.078261 
" style="fill:#c7c7c7;stroke:#ffffff;stroke-width:0.2;"/>
    <path clip-path="url(#p1b7d0c3530)" d="M 295.2 153.078261 
L 406.8 153.078261 
L 406.8 167.54087 
L 295.2 167.54087 
L 295.2 153.078261 
" style="fill:#c7c7c7;stroke:#ffffff;stroke-width:0.2;"/>
    <path clip-path="url(#p1b7d0c3530)" d="M 406.8 153.078261 
L 518.4 153.078261 
L 518.4 167.54087 
L 406.8 167.54087 
L 406.8 153.078261 
" style="fill:#c7c7c7;stroke:#ffffff;stroke-width:0.2;"/>
    <path clip-path="url(#p1b7d0c3530)" d="M 72 167.54087 
L 183.6 167.54087 
L 183.6 182.003478 
L 72 182.003478 
L 72 167.54087 
" style="fill:#17becf;stroke:#ffffff;stroke-width:0.2;"/>
    <path clip-path="url(#p1b7d0c3530)" d="M 183.6 167.54087 
L 295.2 167.54087 
L 295.2 182.003478 
L 183.6 182.003478 
L 183.6 167.54087 
" style="fill:#ff7f0e;stroke:#ffffff;stroke-width:0.2;"/>
    <path clip-path="url(#p1b7d0c3530)" d="M 295.2 167.54087 
L 406.8 167.54087 
L 406.8 182.003478 
L 295.2 182.003478 
L 295.2 167.54087 
" style="fill:#c7c7c7;stroke:#ffffff;stroke-width:0.2;"/>
    <path clip-path="url(#p1b7d0c3530)" d="M 406.8 167.54087 
L 518.4 167.54087 
L 518.4 182.003478 
L 406.8 182.003478 
L 406.8 167.54087 
" style="fill:#c7c7c7;stroke:#ffffff;stroke-width:0.2;"/>
    <path clip-path="url(#p1b7d0c3530)" d="M 72 182.003478 
L 183.6 182.003478 
L 183.6 196.466087 
L 72 196.466087 
L 72 182.003478 
" style="fill:#ffbb78;stroke:#ffffff;stroke-width:0.2;"/>
    <path clip-path="url(#p1b7d0c3530)" d="M 183.6 182.003478 
L 295.2 182.003478 
L 295.2 196.466087 
L 183.6 196.466087 
L 183.6 182.003478 
" style="fill:#ff7f0e;stroke:#ffffff;stroke-width:0.2;"/>
    <path clip-path="url(#p1b7d0c3530)" d="M 295.2 182.003478 
L 406.8 182.003478 
L 406.8 196.466087 
L 295.2 196.466087 
L 295.2 182.003478 
" style="fill:#17becf;stroke:#ffffff;stroke-width:0.2;"/>
    <path clip-path="url(#p1b7d0c3530)" d="M 406.8 182.003478 
L 518.4 182.003478 
L 518.4 196.466087 
L 406.8 196.466087 
L 406.8 182.003478 
" style="fill:#c7c7c7;stroke:#ffffff;stroke-width:0.2;"/>
    <path clip-path="url(#p1b7d0c3530)" d="M 72 196.466087 
L 183.6 196.466087 
L 183.6 210.928696 
L 72 210.928696 
L 72 196.466087 
" style="fill:#aec7e8;stroke:#ffffff;stroke-width:0.2;"/>
    <path clip-path="url(#p1b7d0c3530)" d="M 183.6 196.466087 
L 295.2 196.466087 
L 295.2 210.928696 
L 183.6 210.928696 
L 183.6 196.466087 
" style="fill:#c7c7c7;stroke:#ffffff;stroke-width:0.2;"/>
    <path clip-path="url(#p1b7d0c3530)" d="M 295.2 196.466087 
L 406.8 196.466087 
L 406.8 210.928696 
L 295.2 210.928696 
L 295.2 196.466087 
" style="fill:#c7c7c7;stroke:#ffffff;stroke-width:0.2;"/>
    <path clip-path="url(#p1b7d0c3530)" d="M 406.8 196.466087 
L 518.4 196.466087 
L 518.4 210.928696 
L 406.8 210.928696 
L 406.8 196.466087 
" style="fill:#c7c7c7;stroke:#ffffff;stroke-width:0.2;"/>
    <path clip-path="url(#p1b7d0c3530)" d="M 72 210.928696 
L 183.6 210.928696 
L 183.6 225.391304 
L 72 225.391304 
L 72 210.928696 
" style="fill:#2ca02c;stroke:#ffffff;stroke-width:0.2;"/>
    <path clip-path="url(#p1b7d0c3530)" d="M 183.6 210.928696 
L 295.2 210.928696 
L 295.2 225.391304 
L 183.6 225.391304 
L 183.6 210.928696 
" style="fill:#ff7f0e;stroke:#ffffff;stroke-width:0.2;"/>
    <path clip-path="url(#p1b7d0c3530)" d="M 295.2 210.928696 
L 406.8 210.928696 
L 406.8 225.391304 
L 295.2 225.391304 
L 295.2 210.928696 
" style="fill:#c7c7c7;stroke:#ffffff;stroke-width:0.2;"/>
    <path clip-path="url(#p1b7d0c3530)" d="M 406.8 210.928696 
L 518.4 210.928696 
L 518.4 225.391304 
L 406.8 225.391304 
L 406.8 210.928696 
" style="fill:#c7c7c7;stroke:#ffffff;stroke-width:0.2;"/>
    <path clip-path="url(#p1b7d0c3530)" d="M 72 225.391304 
L 183.6 225.391304 
L 183.6 239.853913 
L 72 239.853913 
L 72 225.391304 
" style="fill:#17becf;stroke:#ffffff;stroke-width:0.2;"/>
    <path clip-path="url(#p1b7d0c3530)" d="M 183.6 225.391304 
L 295.2 225.391304 
L 295.2 239.853913 
L 183.6 239.853913 
L 183.6 225.391304 
" style="fill:#aec7e8;stroke:#ffffff;stroke-width:0.2;"/>
    <path clip-path="url(#p1b7d0c3530)" d="M 295.2 225.391304 
L 406.8 225.391304 
L 406.8 239.853913 
L 295.2 239.853913 
L 295.2 225.391304 
" style="fill:#ffbb78;stroke:#ffffff;stroke-width:0.2;"/>
    <path clip-path="url(#p1b7d0c3530)" d="M 406.8 225.391304 
L 518.4 225.391304 
L 518.4 239.853913 
L 406.8 239.853913 
L 406.8 225.391304 
" style="fill:#c7c7c7;stroke:#ffffff;stroke-width:0.2;"/>
    <path clip-path="url(#p1b7d0c3530)" d="M 72 239.853913 
L 183.6 239.853913 
L 183.6 254.316522 
L 72 254.316522 
L 72 239.853913 
" style="fill:#ff7f0e;stroke:#ffffff;stroke-width:0.2;"/>
    <path clip-path="url(#p1b7d0c3530)" d="M 183.6 239.853913 
L 295.2 239.853913 
L 295.2 254.316522 
L 183.6 254.316522 
L 183.6 239.853913 
" style="fill:#c7c7c7;stroke:#ffffff;stroke-width:0.2;"/>
    <path clip-path="url(#p1b7d0c3530)" d="M 295.2 239.853913 
L 406.8 239.853913 
L 406.8 254.316522 
L 295.2 254.316522 
L 295.2 239.853913 
" style="fill:#c7c7c7;stroke:#ffffff;stroke-width:0.2;"/>
    <path clip-path="url(#p1b7d0c3530)" d="M 406.8 239.853913 
L 518.4 239.853913 
L 518.4 254.316522 
L 406.8 254.316522 
L 406.8 239.853913 
" style="fill:#c7c7c7;stroke:#ffffff;stroke-width:0.2;"/>
    <path clip-path="url(#p1b7d0c3530)" d="M 72 254.316522 
L 183.6 254.316522 
L 183.6 268.77913 
L 72 268.77913 
L 72 254.316522 
" style="fill:#17becf;stroke:#ffffff;stroke-width:0.2;"/>
    <path clip-path="url(#p1b7d0c3530)" d="M 183.6 254.316522 
L 295.2 254.316522 
L 295.2 268.77913 
L 183.6 268.77913 
L 183.6 254.316522 
" style="fill:#aec7e8;stroke:#ffffff;stroke-width:0.2;"/>
    <path clip-path="url(#p1b7d0c3530)" d="M 295.2 254.316522 
L 406.8 254.316522 
L 406.8 268.77913 
L 295.2 268.77913 
L 295.2 254.316522 
" style="fill:#ff9896;stroke:#ffffff;stroke-width:0.2;"/>
    <path clip-path="url(#p1b7d0c3530)" d="M 406.8 254.316522 
L 518.4 254.316522 
L 518.4 268.77913 
L 406.8 268.77913 
L 406.8 254.316522 
" style="fill:#c7c7c7;stroke:#ffffff;stroke-width:0.2;"/>
    <path clip-path="url(#p1b7d0c3530)" d="M 72 268.77913 
L 183.6 268.77913 
L 183.6 283.241739 
L 72 283.241739 
L 72 268.77913 
" style="fill:#aec7e8;stroke:#ffffff;stroke-width:0.2;"/>
    <path clip-path="url(#p1b7d0c3530)" d="M 183.6 268.77913 
L 295.2 268.77913 
L 295.2 283.241739 
L 183.6 283.241739 
L 183.6 268.77913 
" style="fill:#ff9896;stroke:#ffffff;stroke-width:0.2;"/>
    <path clip-path="url(#p1b7d0c3530)" d="M 295.2 268.77913 
L 406.8 268.77913 
L 406.8 283.241739 
L 295.2 283.241739 
L 295.2 268.77913 
" style="fill:#c7c7c7;stroke:#ffffff;stroke-width:0.2;"/>
    <path clip-path="url(#p1b7d0c3530)" d="M 406.8 268.77913 
L 518.4 268.77913 
L 518.4 283.241739 
L 406.8 283.241739 
L 406.8 268.77913 
" style="fill:#c7c7c7;stroke:#ffffff;stroke-width:0.2;"/>
    <path clip-path="url(#p1b7d0c3530)" d="M 72 283.241739 
L 183.6 283.241739 
L 183.6 297.704348 
L 72 297.704348 
L 72 283.241739 
" style="fill:#ff7f0e;stroke:#ffffff;stroke-width:0.2;"/>
    <path clip-path="url(#p1b7d0c3530)" d="M 183.6 283.241739 
L 295.2 283.241739 
L 295.2 297.704348 
L 183.6 297.704348 
L 183.6 283.241739 
" style="fill:#ff7f0e;stroke:#ffffff;stroke-width:0.2;"/>
    <path clip-path="url(#p1b7d0c3530)" d="M 295.2 283.241739 
L 406.8 283.241739 
L 406.8 297.704348 
L 295.2 297.704348 
L 295.2 283.241739 
" style="fill:#17becf;stroke:#ffffff;stroke-width:0.2;"/>
    <path clip-path="url(#p1b7d0c3530)" d="M 406.8 283.241739 
L 518.4 283.241739 
L 518.4 297.704348 
L 406.8 297.704348 
L 406.8 283.241739 
" style="fill:#ffbb78;stroke:#ffffff;stroke-width:0.2;"/>
    <path clip-path="url(#p1b7d0c3530)" d="M 72 297.704348 
L 183.6 297.704348 
L 183.6 312.166957 
L 72 312.166957 
L 72 297.704348 
" style="fill:#2ca02c;stroke:#ffffff;stroke-width:0.2;"/>
    <path clip-path="url(#p1b7d0c3530)" d="M 183.6 297.704348 
L 295.2 297.704348 
L 295.2 312.166957 
L 183.6 312.166957 
L 183.6 297.704348 
" style="fill:#2ca02c;stroke:#ffffff;stroke-width:0.2;"/>
    <path clip-path="url(#p1b7d0c3530)" d="M 295.2 297.704348 
L 406.8 297.704348 
L 406.8 312.166957 
L 295.2 312.166957 
L 295.2 297.704348 
" style="fill:#17becf;stroke:#ffffff;stroke-width:0.2;"/>
    <path clip-path="url(#p1b7d0c3530)" d="M 406.8 297.704348 
L 518.4 297.704348 
L 518.4 312.166957 
L 406.8 312.166957 
L 406.8 297.704348 
" style="fill:#ff9896;stroke:#ffffff;stroke-width:0.2;"/>
    <path clip-path="url(#p1b7d0c3530)" d="M 72 312.166957 
L 183.6 312.166957 
L 183.6 326.629565 
L 72 326.629565 
L 72 312.166957 
" style="fill:#ff7f0e;stroke:#ffffff;stroke-width:0.2;"/>
    <path clip-path="url(#p1b7d0c3530)" d="M 183.6 312.166957 
L 295.2 312.166957 
L 295.2 326.629565 
L 183.6 326.629565 
L 183.6 312.166957 
" style="fill:#aec7e8;stroke:#ffffff;stroke-width:0.2;"/>
    <path clip-path="url(#p1b7d0c3530)" d="M 295.2 312.166957 
L 406.8 312.166957 
L 406.8 326.629565 
L 295.2 326.629565 
L 295.2 312.166957 
" style="fill:#17becf;stroke:#ffffff;stroke-width:0.2;"/>
    <path clip-path="url(#p1b7d0c3530)" d="M 406.8 312.166957 
L 518.4 312.166957 
L 518.4 326.629565 
L 406.8 326.629565 
L 406.8 312.166957 
" style="fill:#c7c7c7;stroke:#ffffff;stroke-width:0.2;"/>
    <path clip-path="url(#p1b7d0c3530)" d="M 72 326.629565 
L 183.6 326.629565 
L 183.6 341.092174 
L 72 341.092174 
L 72 326.629565 
" style="fill:#2ca02c;stroke:#ffffff;stroke-width:0.2;"/>
    <path clip-path="url(#p1b7d0c3530)" d="M 183.6 326.629565 
L 295.2 326.629565 
L 295.2 341.092174 
L 183.6 341.092174 
L 183.6 326.629565 
" style="fill:#17becf;stroke:#ffffff;stroke-width:0.2;"/>
    <path clip-path="url(#p1b7d0c3530)" d="M 295.2 326.629565 
L 406.8 326.629565 
L 406.8 341.092174 
L 295.2 341.092174 
L 295.2 326.629565 
" style="fill:#ff7f0e;stroke:#ffffff;stroke-width:0.2;"/>
    <path clip-path="url(#p1b7d0c3530)" d="M 406.8 326.629565 
L 518.4 326.629565 
L 518.4 341.092174 
L 406.8 341.092174 
L 406.8 326.629565 
" style="fill:#ff7f0e;stroke:#ffffff;stroke-width:0.2;"/>
    <path clip-path="url(#p1b7d0c3530)" d="M 72 341.092174 
L 183.6 341.092174 
L 183.6 355.554783 
L 72 355.554783 
L 72 341.092174 
" style="fill:#2ca02c;stroke:#ffffff;stroke-width:0.2;"/>
    <path clip-path="url(#p1b7d0c3530)" d="M 183.6 341.092174 
L 295.2 341.092174 
L 295.2 355.554783 
L 183.6 355.554783 
L 183.6 341.092174 
" style="fill:#aec7e8;stroke:#ffffff;stroke-width:0.2;"/>
    <path clip-path="url(#p1b7d0c3530)" d="M 295.2 341.092174 
L 406.8 341.092174 
L 406.8 355.554783 
L 295.2 355.554783 
L 295.2 341.092174 
" style="fill:#c7c7c7;stroke:#ffffff;stroke-width:0.2;"/>
    <path clip-path="url(#p1b7d0c3530)" d="M 406.8 341.092174 
L 518.4 341.092174 
L 518.4 355.554783 
L 406.8 355.554783 
L 406.8 341.092174 
" style="fill:#c7c7c7;stroke:#ffffff;stroke-width:0.2;"/>
    <path clip-path="url(#p1b7d0c3530)" d="M 72 355.554783 
L 183.6 355.554783 
L 183.6 370.017391 
L 72 370.017391 
L 72 355.554783 
" style="fill:#17becf;stroke:#ffffff;stroke-width:0.2;"/>
    <path clip-path="url(#p1b7d0c3530)" d="M 183.6 355.554783 
L 295.2 355.554783 
L 295.2 370.017391 
L 183.6 370.017391 
L 183.6 355.554783 
" style="fill:#17becf;stroke:#ffffff;stroke-width:0.2;"/>
    <path clip-path="url(#p1b7d0c3530)" d="M 295.2 355.554783 
L 406.8 355.554783 
L 406.8 370.017391 
L 295.2 370.017391 
L 295.2 355.554783 
" style="fill:#c7c7c7;stroke:#ffffff;stroke-width:0.2;"/>
    <path clip-path="url(#p1b7d0c3530)" d="M 406.8 355.554783 
L 518.4 355.554783 
L 518.4 370.017391 
L 406.8 370.017391 
L 406.8 355.554783 
" style="fill:#c7c7c7;stroke:#ffffff;stroke-width:0.2;"/>
    <path clip-path="url(#p1b7d0c3530)" d="M 72 370.017391 
L 183.6 370.017391 
L 183.6 384.48 
L 72 384.48 
L 72 370.017391 
" style="fill:#17becf;stroke:#ffffff;stroke-width:0.2;"/>
    <path clip-path="url(#p1b7d0c3530)" d="M 183.6 370.017391 
L 295.2 370.017391 
L 295.2 384.48 
L 183.6 384.48 
L 183.6 370.017391 
" style="fill:#ffbb78;stroke:#ffffff;stroke-width:0.2;"/>
    <path clip-path="url(#p1b7d0c3530)" d="M 295.2 370.017391 
L 406.8 370.017391 
L 406.8 384.48 
L 295.2 384.48 
L 295.2 370.017391 
" style="fill:#ff9896;stroke:#ffffff;stroke-width:0.2;"/>
    <path clip-path="url(#p1b7d0c3530)" d="M 406.8 370.017391 
L 518.4 370.017391 
L 518.4 384.48 
L 406.8 384.48 
L 406.8 370.017391 
" style="fill:#c7c7c7;stroke:#ffffff;stroke-width:0.2;"/>
   </g>
   <g id="matplotlib.axis_1"/>
   <g id="matplotlib.axis_2">
    <g id="ytick_1">
     <g id="line2d_1">
      <defs>
       <path d="M 0 0 
L -3.5 0 
" id="m7435e82892" style="stroke:#000000;stroke-width:0.8;"/>
      </defs>
      <g>
       <use style="stroke:#000000;stroke-width:0.8;" x="72" xlink:href="#m7435e82892" y="59.071304"/>
      </g>
     </g>
     <g id="text_1">
      <!-- G1 - 128 -->
      <g transform="translate(21.8375 62.870523)scale(0.1 -0.1)">
       <defs>
        <path d="M 59.515625 10.40625 
L 59.515625 29.984375 
L 43.40625 29.984375 
L 43.40625 38.09375 
L 69.28125 38.09375 
L 69.28125 6.78125 
Q 63.578125 2.734375 56.6875 0.65625 
Q 49.8125 -1.421875 42 -1.421875 
Q 24.90625 -1.421875 15.25 8.5625 
Q 5.609375 18.5625 5.609375 36.375 
Q 5.609375 54.25 15.25 64.234375 
Q 24.90625 74.21875 42 74.21875 
Q 49.125 74.21875 55.546875 72.453125 
Q 61.96875 70.703125 67.390625 67.28125 
L 67.390625 56.78125 
Q 61.921875 61.421875 55.765625 63.765625 
Q 49.609375 66.109375 42.828125 66.109375 
Q 29.4375 66.109375 22.71875 58.640625 
Q 16.015625 51.171875 16.015625 36.375 
Q 16.015625 21.625 22.71875 14.15625 
Q 29.4375 6.6875 42.828125 6.6875 
Q 48.046875 6.6875 52.140625 7.59375 
Q 56.25 8.5 59.515625 10.40625 
z
" id="DejaVuSans-71"/>
        <path d="M 12.40625 8.296875 
L 28.515625 8.296875 
L 28.515625 63.921875 
L 10.984375 60.40625 
L 10.984375 69.390625 
L 28.421875 72.90625 
L 38.28125 72.90625 
L 38.28125 8.296875 
L 54.390625 8.296875 
L 54.390625 0 
L 12.40625 0 
z
" id="DejaVuSans-49"/>
        <path id="DejaVuSans-32"/>
        <path d="M 4.890625 31.390625 
L 31.203125 31.390625 
L 31.203125 23.390625 
L 4.890625 23.390625 
z
" id="DejaVuSans-45"/>
        <path d="M 19.1875 8.296875 
L 53.609375 8.296875 
L 53.609375 0 
L 7.328125 0 
L 7.328125 8.296875 
Q 12.9375 14.109375 22.625 23.890625 
Q 32.328125 33.6875 34.8125 36.53125 
Q 39.546875 41.84375 41.421875 45.53125 
Q 43.3125 49.21875 43.3125 52.78125 
Q 43.3125 58.59375 39.234375 62.25 
Q 35.15625 65.921875 28.609375 65.921875 
Q 23.96875 65.921875 18.8125 64.3125 
Q 13.671875 62.703125 7.8125 59.421875 
L 7.8125 69.390625 
Q 13.765625 71.78125 18.9375 73 
Q 24.125 74.21875 28.421875 74.21875 
Q 39.75 74.21875 46.484375 68.546875 
Q 53.21875 62.890625 53.21875 53.421875 
Q 53.21875 48.921875 51.53125 44.890625 
Q 49.859375 40.875 45.40625 35.40625 
Q 44.1875 33.984375 37.640625 27.21875 
Q 31.109375 20.453125 19.1875 8.296875 
z
" id="DejaVuSans-50"/>
        <path d="M 31.78125 34.625 
Q 24.75 34.625 20.71875 30.859375 
Q 16.703125 27.09375 16.703125 20.515625 
Q 16.703125 13.921875 20.71875 10.15625 
Q 24.75 6.390625 31.78125 6.390625 
Q 38.8125 6.390625 42.859375 10.171875 
Q 46.921875 13.96875 46.921875 20.515625 
Q 46.921875 27.09375 42.890625 30.859375 
Q 38.875 34.625 31.78125 34.625 
z
M 21.921875 38.8125 
Q 15.578125 40.375 12.03125 44.71875 
Q 8.5 49.078125 8.5 55.328125 
Q 8.5 64.0625 14.71875 69.140625 
Q 20.953125 74.21875 31.78125 74.21875 
Q 42.671875 74.21875 48.875 69.140625 
Q 55.078125 64.0625 55.078125 55.328125 
Q 55.078125 49.078125 51.53125 44.71875 
Q 48 40.375 41.703125 38.8125 
Q 48.828125 37.15625 52.796875 32.3125 
Q 56.78125 27.484375 56.78125 20.515625 
Q 56.78125 9.90625 50.3125 4.234375 
Q 43.84375 -1.421875 31.78125 -1.421875 
Q 19.734375 -1.421875 13.25 4.234375 
Q 6.78125 9.90625 6.78125 20.515625 
Q 6.78125 27.484375 10.78125 32.3125 
Q 14.796875 37.15625 21.921875 38.8125 
z
M 18.3125 54.390625 
Q 18.3125 48.734375 21.84375 45.5625 
Q 25.390625 42.390625 31.78125 42.390625 
Q 38.140625 42.390625 41.71875 45.5625 
Q 45.3125 48.734375 45.3125 54.390625 
Q 45.3125 60.0625 41.71875 63.234375 
Q 38.140625 66.40625 31.78125 66.40625 
Q 25.390625 66.40625 21.84375 63.234375 
Q 18.3125 60.0625 18.3125 54.390625 
z
" id="DejaVuSans-56"/>
       </defs>
       <use xlink:href="#DejaVuSans-71"/>
       <use x="77.490234" xlink:href="#DejaVuSans-49"/>
       <use x="141.113281" xlink:href="#DejaVuSans-32"/>
       <use x="172.900391" xlink:href="#DejaVuSans-45"/>
       <use x="208.984375" xlink:href="#DejaVuSans-32"/>
       <use x="240.771484" xlink:href="#DejaVuSans-49"/>
       <use x="304.394531" xlink:href="#DejaVuSans-50"/>
       <use x="368.017578" xlink:href="#DejaVuSans-56"/>
      </g>
     </g>
    </g>
    <g id="ytick_2">
     <g id="line2d_2">
      <g>
       <use style="stroke:#000000;stroke-width:0.8;" x="72" xlink:href="#m7435e82892" y="73.533913"/>
      </g>
     </g>
     <g id="text_2">
      <!-- G2 - 36 -->
      <g transform="translate(28.2 77.333132)scale(0.1 -0.1)">
       <defs>
        <path d="M 40.578125 39.3125 
Q 47.65625 37.796875 51.625 33 
Q 55.609375 28.21875 55.609375 21.1875 
Q 55.609375 10.40625 48.1875 4.484375 
Q 40.765625 -1.421875 27.09375 -1.421875 
Q 22.515625 -1.421875 17.65625 -0.515625 
Q 12.796875 0.390625 7.625 2.203125 
L 7.625 11.71875 
Q 11.71875 9.328125 16.59375 8.109375 
Q 21.484375 6.890625 26.8125 6.890625 
Q 36.078125 6.890625 40.9375 10.546875 
Q 45.796875 14.203125 45.796875 21.1875 
Q 45.796875 27.640625 41.28125 31.265625 
Q 36.765625 34.90625 28.71875 34.90625 
L 20.21875 34.90625 
L 20.21875 43.015625 
L 29.109375 43.015625 
Q 36.375 43.015625 40.234375 45.921875 
Q 44.09375 48.828125 44.09375 54.296875 
Q 44.09375 59.90625 40.109375 62.90625 
Q 36.140625 65.921875 28.71875 65.921875 
Q 24.65625 65.921875 20.015625 65.03125 
Q 15.375 64.15625 9.8125 62.3125 
L 9.8125 71.09375 
Q 15.4375 72.65625 20.34375 73.4375 
Q 25.25 74.21875 29.59375 74.21875 
Q 40.828125 74.21875 47.359375 69.109375 
Q 53.90625 64.015625 53.90625 55.328125 
Q 53.90625 49.265625 50.4375 45.09375 
Q 46.96875 40.921875 40.578125 39.3125 
z
" id="DejaVuSans-51"/>
        <path d="M 33.015625 40.375 
Q 26.375 40.375 22.484375 35.828125 
Q 18.609375 31.296875 18.609375 23.390625 
Q 18.609375 15.53125 22.484375 10.953125 
Q 26.375 6.390625 33.015625 6.390625 
Q 39.65625 6.390625 43.53125 10.953125 
Q 47.40625 15.53125 47.40625 23.390625 
Q 47.40625 31.296875 43.53125 35.828125 
Q 39.65625 40.375 33.015625 40.375 
z
M 52.59375 71.296875 
L 52.59375 62.3125 
Q 48.875 64.0625 45.09375 64.984375 
Q 41.3125 65.921875 37.59375 65.921875 
Q 27.828125 65.921875 22.671875 59.328125 
Q 17.53125 52.734375 16.796875 39.40625 
Q 19.671875 43.65625 24.015625 45.921875 
Q 28.375 48.1875 33.59375 48.1875 
Q 44.578125 48.1875 50.953125 41.515625 
Q 57.328125 34.859375 57.328125 23.390625 
Q 57.328125 12.15625 50.6875 5.359375 
Q 44.046875 -1.421875 33.015625 -1.421875 
Q 20.359375 -1.421875 13.671875 8.265625 
Q 6.984375 17.96875 6.984375 36.375 
Q 6.984375 53.65625 15.1875 63.9375 
Q 23.390625 74.21875 37.203125 74.21875 
Q 40.921875 74.21875 44.703125 73.484375 
Q 48.484375 72.75 52.59375 71.296875 
z
" id="DejaVuSans-54"/>
       </defs>
       <use xlink:href="#DejaVuSans-71"/>
       <use x="77.490234" xlink:href="#DejaVuSans-50"/>
       <use x="141.113281" xlink:href="#DejaVuSans-32"/>
       <use x="172.900391" xlink:href="#DejaVuSans-45"/>
       <use x="208.984375" xlink:href="#DejaVuSans-32"/>
       <use x="240.771484" xlink:href="#DejaVuSans-51"/>
       <use x="304.394531" xlink:href="#DejaVuSans-54"/>
      </g>
     </g>
    </g>
    <g id="ytick_3">
     <g id="line2d_3">
      <g>
       <use style="stroke:#000000;stroke-width:0.8;" x="72" xlink:href="#m7435e82892" y="87.996522"/>
      </g>
     </g>
     <g id="text_3">
      <!-- G3 - 28 -->
      <g transform="translate(28.2 91.79574)scale(0.1 -0.1)">
       <use xlink:href="#DejaVuSans-71"/>
       <use x="77.490234" xlink:href="#DejaVuSans-51"/>
       <use x="141.113281" xlink:href="#DejaVuSans-32"/>
       <use x="172.900391" xlink:href="#DejaVuSans-45"/>
       <use x="208.984375" xlink:href="#DejaVuSans-32"/>
       <use x="240.771484" xlink:href="#DejaVuSans-50"/>
       <use x="304.394531" xlink:href="#DejaVuSans-56"/>
      </g>
     </g>
    </g>
    <g id="ytick_4">
     <g id="line2d_4">
      <g>
       <use style="stroke:#000000;stroke-width:0.8;" x="72" xlink:href="#m7435e82892" y="102.45913"/>
      </g>
     </g>
     <g id="text_4">
      <!-- G4 - 22 -->
      <g transform="translate(28.2 106.258349)scale(0.1 -0.1)">
       <defs>
        <path d="M 37.796875 64.3125 
L 12.890625 25.390625 
L 37.796875 25.390625 
z
M 35.203125 72.90625 
L 47.609375 72.90625 
L 47.609375 25.390625 
L 58.015625 25.390625 
L 58.015625 17.1875 
L 47.609375 17.1875 
L 47.609375 0 
L 37.796875 0 
L 37.796875 17.1875 
L 4.890625 17.1875 
L 4.890625 26.703125 
z
" id="DejaVuSans-52"/>
       </defs>
       <use xlink:href="#DejaVuSans-71"/>
       <use x="77.490234" xlink:href="#DejaVuSans-52"/>
       <use x="141.113281" xlink:href="#DejaVuSans-32"/>
       <use x="172.900391" xlink:href="#DejaVuSans-45"/>
       <use x="208.984375" xlink:href="#DejaVuSans-32"/>
       <use x="240.771484" xlink:href="#DejaVuSans-50"/>
       <use x="304.394531" xlink:href="#DejaVuSans-50"/>
      </g>
     </g>
    </g>
    <g id="ytick_5">
     <g id="line2d_5">
      <g>
       <use style="stroke:#000000;stroke-width:0.8;" x="72" xlink:href="#m7435e82892" y="116.921739"/>
      </g>
     </g>
     <g id="text_5">
      <!-- G5 - 22 -->
      <g transform="translate(28.2 120.720958)scale(0.1 -0.1)">
       <defs>
        <path d="M 10.796875 72.90625 
L 49.515625 72.90625 
L 49.515625 64.59375 
L 19.828125 64.59375 
L 19.828125 46.734375 
Q 21.96875 47.46875 24.109375 47.828125 
Q 26.265625 48.1875 28.421875 48.1875 
Q 40.625 48.1875 47.75 41.5 
Q 54.890625 34.8125 54.890625 23.390625 
Q 54.890625 11.625 47.5625 5.09375 
Q 40.234375 -1.421875 26.90625 -1.421875 
Q 22.3125 -1.421875 17.546875 -0.640625 
Q 12.796875 0.140625 7.71875 1.703125 
L 7.71875 11.625 
Q 12.109375 9.234375 16.796875 8.0625 
Q 21.484375 6.890625 26.703125 6.890625 
Q 35.15625 6.890625 40.078125 11.328125 
Q 45.015625 15.765625 45.015625 23.390625 
Q 45.015625 31 40.078125 35.4375 
Q 35.15625 39.890625 26.703125 39.890625 
Q 22.75 39.890625 18.8125 39.015625 
Q 14.890625 38.140625 10.796875 36.28125 
z
" id="DejaVuSans-53"/>
       </defs>
       <use xlink:href="#DejaVuSans-71"/>
       <use x="77.490234" xlink:href="#DejaVuSans-53"/>
       <use x="141.113281" xlink:href="#DejaVuSans-32"/>
       <use x="172.900391" xlink:href="#DejaVuSans-45"/>
       <use x="208.984375" xlink:href="#DejaVuSans-32"/>
       <use x="240.771484" xlink:href="#DejaVuSans-50"/>
       <use x="304.394531" xlink:href="#DejaVuSans-50"/>
      </g>
     </g>
    </g>
    <g id="ytick_6">
     <g id="line2d_6">
      <g>
       <use style="stroke:#000000;stroke-width:0.8;" x="72" xlink:href="#m7435e82892" y="131.384348"/>
      </g>
     </g>
     <g id="text_6">
      <!-- G6 - 19 -->
      <g transform="translate(28.2 135.183567)scale(0.1 -0.1)">
       <defs>
        <path d="M 10.984375 1.515625 
L 10.984375 10.5 
Q 14.703125 8.734375 18.5 7.8125 
Q 22.3125 6.890625 25.984375 6.890625 
Q 35.75 6.890625 40.890625 13.453125 
Q 46.046875 20.015625 46.78125 33.40625 
Q 43.953125 29.203125 39.59375 26.953125 
Q 35.25 24.703125 29.984375 24.703125 
Q 19.046875 24.703125 12.671875 31.3125 
Q 6.296875 37.9375 6.296875 49.421875 
Q 6.296875 60.640625 12.9375 67.421875 
Q 19.578125 74.21875 30.609375 74.21875 
Q 43.265625 74.21875 49.921875 64.515625 
Q 56.59375 54.828125 56.59375 36.375 
Q 56.59375 19.140625 48.40625 8.859375 
Q 40.234375 -1.421875 26.421875 -1.421875 
Q 22.703125 -1.421875 18.890625 -0.6875 
Q 15.09375 0.046875 10.984375 1.515625 
z
M 30.609375 32.421875 
Q 37.25 32.421875 41.125 36.953125 
Q 45.015625 41.5 45.015625 49.421875 
Q 45.015625 57.28125 41.125 61.84375 
Q 37.25 66.40625 30.609375 66.40625 
Q 23.96875 66.40625 20.09375 61.84375 
Q 16.21875 57.28125 16.21875 49.421875 
Q 16.21875 41.5 20.09375 36.953125 
Q 23.96875 32.421875 30.609375 32.421875 
z
" id="DejaVuSans-57"/>
       </defs>
       <use xlink:href="#DejaVuSans-71"/>
       <use x="77.490234" xlink:href="#DejaVuSans-54"/>
       <use x="141.113281" xlink:href="#DejaVuSans-32"/>
       <use x="172.900391" xlink:href="#DejaVuSans-45"/>
       <use x="208.984375" xlink:href="#DejaVuSans-32"/>
       <use x="240.771484" xlink:href="#DejaVuSans-49"/>
       <use x="304.394531" xlink:href="#DejaVuSans-57"/>
      </g>
     </g>
    </g>
    <g id="ytick_7">
     <g id="line2d_7">
      <g>
       <use style="stroke:#000000;stroke-width:0.8;" x="72" xlink:href="#m7435e82892" y="145.846957"/>
      </g>
     </g>
     <g id="text_7">
      <!-- G7 - 19 -->
      <g transform="translate(28.2 149.646175)scale(0.1 -0.1)">
       <defs>
        <path d="M 8.203125 72.90625 
L 55.078125 72.90625 
L 55.078125 68.703125 
L 28.609375 0 
L 18.3125 0 
L 43.21875 64.59375 
L 8.203125 64.59375 
z
" id="DejaVuSans-55"/>
       </defs>
       <use xlink:href="#DejaVuSans-71"/>
       <use x="77.490234" xlink:href="#DejaVuSans-55"/>
       <use x="141.113281" xlink:href="#DejaVuSans-32"/>
       <use x="172.900391" xlink:href="#DejaVuSans-45"/>
       <use x="208.984375" xlink:href="#DejaVuSans-32"/>
       <use x="240.771484" xlink:href="#DejaVuSans-49"/>
       <use x="304.394531" xlink:href="#DejaVuSans-57"/>
      </g>
     </g>
    </g>
    <g id="ytick_8">
     <g id="line2d_8">
      <g>
       <use style="stroke:#000000;stroke-width:0.8;" x="72" xlink:href="#m7435e82892" y="160.309565"/>
      </g>
     </g>
     <g id="text_8">
      <!-- G8 - 11 -->
      <g transform="translate(28.2 164.108784)scale(0.1 -0.1)">
       <use xlink:href="#DejaVuSans-71"/>
       <use x="77.490234" xlink:href="#DejaVuSans-56"/>
       <use x="141.113281" xlink:href="#DejaVuSans-32"/>
       <use x="172.900391" xlink:href="#DejaVuSans-45"/>
       <use x="208.984375" xlink:href="#DejaVuSans-32"/>
       <use x="240.771484" xlink:href="#DejaVuSans-49"/>
       <use x="304.394531" xlink:href="#DejaVuSans-49"/>
      </g>
     </g>
    </g>
    <g id="ytick_9">
     <g id="line2d_9">
      <g>
       <use style="stroke:#000000;stroke-width:0.8;" x="72" xlink:href="#m7435e82892" y="174.772174"/>
      </g>
     </g>
     <g id="text_9">
      <!-- G9 - 11 -->
      <g transform="translate(28.2 178.571393)scale(0.1 -0.1)">
       <use xlink:href="#DejaVuSans-71"/>
       <use x="77.490234" xlink:href="#DejaVuSans-57"/>
       <use x="141.113281" xlink:href="#DejaVuSans-32"/>
       <use x="172.900391" xlink:href="#DejaVuSans-45"/>
       <use x="208.984375" xlink:href="#DejaVuSans-32"/>
       <use x="240.771484" xlink:href="#DejaVuSans-49"/>
       <use x="304.394531" xlink:href="#DejaVuSans-49"/>
      </g>
     </g>
    </g>
    <g id="ytick_10">
     <g id="line2d_10">
      <g>
       <use style="stroke:#000000;stroke-width:0.8;" x="72" xlink:href="#m7435e82892" y="189.234783"/>
      </g>
     </g>
     <g id="text_10">
      <!-- G10 - 7 -->
      <g transform="translate(28.2 193.034001)scale(0.1 -0.1)">
       <defs>
        <path d="M 31.78125 66.40625 
Q 24.171875 66.40625 20.328125 58.90625 
Q 16.5 51.421875 16.5 36.375 
Q 16.5 21.390625 20.328125 13.890625 
Q 24.171875 6.390625 31.78125 6.390625 
Q 39.453125 6.390625 43.28125 13.890625 
Q 47.125 21.390625 47.125 36.375 
Q 47.125 51.421875 43.28125 58.90625 
Q 39.453125 66.40625 31.78125 66.40625 
z
M 31.78125 74.21875 
Q 44.046875 74.21875 50.515625 64.515625 
Q 56.984375 54.828125 56.984375 36.375 
Q 56.984375 17.96875 50.515625 8.265625 
Q 44.046875 -1.421875 31.78125 -1.421875 
Q 19.53125 -1.421875 13.0625 8.265625 
Q 6.59375 17.96875 6.59375 36.375 
Q 6.59375 54.828125 13.0625 64.515625 
Q 19.53125 74.21875 31.78125 74.21875 
z
" id="DejaVuSans-48"/>
       </defs>
       <use xlink:href="#DejaVuSans-71"/>
       <use x="77.490234" xlink:href="#DejaVuSans-49"/>
       <use x="141.113281" xlink:href="#DejaVuSans-48"/>
       <use x="204.736328" xlink:href="#DejaVuSans-32"/>
       <use x="236.523438" xlink:href="#DejaVuSans-45"/>
       <use x="272.607422" xlink:href="#DejaVuSans-32"/>
       <use x="304.394531" xlink:href="#DejaVuSans-55"/>
      </g>
     </g>
    </g>
    <g id="ytick_11">
     <g id="line2d_11">
      <g>
       <use style="stroke:#000000;stroke-width:0.8;" x="72" xlink:href="#m7435e82892" y="203.697391"/>
      </g>
     </g>
     <g id="text_11">
      <!-- G11 - 6 -->
      <g transform="translate(28.2 207.49661)scale(0.1 -0.1)">
       <use xlink:href="#DejaVuSans-71"/>
       <use x="77.490234" xlink:href="#DejaVuSans-49"/>
       <use x="141.113281" xlink:href="#DejaVuSans-49"/>
       <use x="204.736328" xlink:href="#DejaVuSans-32"/>
       <use x="236.523438" xlink:href="#DejaVuSans-45"/>
       <use x="272.607422" xlink:href="#DejaVuSans-32"/>
       <use x="304.394531" xlink:href="#DejaVuSans-54"/>
      </g>
     </g>
    </g>
    <g id="ytick_12">
     <g id="line2d_12">
      <g>
       <use style="stroke:#000000;stroke-width:0.8;" x="72" xlink:href="#m7435e82892" y="218.16"/>
      </g>
     </g>
     <g id="text_12">
      <!-- G12 - 5 -->
      <g transform="translate(28.2 221.959219)scale(0.1 -0.1)">
       <use xlink:href="#DejaVuSans-71"/>
       <use x="77.490234" xlink:href="#DejaVuSans-49"/>
       <use x="141.113281" xlink:href="#DejaVuSans-50"/>
       <use x="204.736328" xlink:href="#DejaVuSans-32"/>
       <use x="236.523438" xlink:href="#DejaVuSans-45"/>
       <use x="272.607422" xlink:href="#DejaVuSans-32"/>
       <use x="304.394531" xlink:href="#DejaVuSans-53"/>
      </g>
     </g>
    </g>
    <g id="ytick_13">
     <g id="line2d_13">
      <g>
       <use style="stroke:#000000;stroke-width:0.8;" x="72" xlink:href="#m7435e82892" y="232.622609"/>
      </g>
     </g>
     <g id="text_13">
      <!-- G13 - 4 -->
      <g transform="translate(28.2 236.421827)scale(0.1 -0.1)">
       <use xlink:href="#DejaVuSans-71"/>
       <use x="77.490234" xlink:href="#DejaVuSans-49"/>
       <use x="141.113281" xlink:href="#DejaVuSans-51"/>
       <use x="204.736328" xlink:href="#DejaVuSans-32"/>
       <use x="236.523438" xlink:href="#DejaVuSans-45"/>
       <use x="272.607422" xlink:href="#DejaVuSans-32"/>
       <use x="304.394531" xlink:href="#DejaVuSans-52"/>
      </g>
     </g>
    </g>
    <g id="ytick_14">
     <g id="line2d_14">
      <g>
       <use style="stroke:#000000;stroke-width:0.8;" x="72" xlink:href="#m7435e82892" y="247.085217"/>
      </g>
     </g>
     <g id="text_14">
      <!-- G14 - 3 -->
      <g transform="translate(28.2 250.884436)scale(0.1 -0.1)">
       <use xlink:href="#DejaVuSans-71"/>
       <use x="77.490234" xlink:href="#DejaVuSans-49"/>
       <use x="141.113281" xlink:href="#DejaVuSans-52"/>
       <use x="204.736328" xlink:href="#DejaVuSans-32"/>
       <use x="236.523438" xlink:href="#DejaVuSans-45"/>
       <use x="272.607422" xlink:href="#DejaVuSans-32"/>
       <use x="304.394531" xlink:href="#DejaVuSans-51"/>
      </g>
     </g>
    </g>
    <g id="ytick_15">
     <g id="line2d_15">
      <g>
       <use style="stroke:#000000;stroke-width:0.8;" x="72" xlink:href="#m7435e82892" y="261.547826"/>
      </g>
     </g>
     <g id="text_15">
      <!-- G15 - 3 -->
      <g transform="translate(28.2 265.347045)scale(0.1 -0.1)">
       <use xlink:href="#DejaVuSans-71"/>
       <use x="77.490234" xlink:href="#DejaVuSans-49"/>
       <use x="141.113281" xlink:href="#DejaVuSans-53"/>
       <use x="204.736328" xlink:href="#DejaVuSans-32"/>
       <use x="236.523438" xlink:href="#DejaVuSans-45"/>
       <use x="272.607422" xlink:href="#DejaVuSans-32"/>
       <use x="304.394531" xlink:href="#DejaVuSans-51"/>
      </g>
     </g>
    </g>
    <g id="ytick_16">
     <g id="line2d_16">
      <g>
       <use style="stroke:#000000;stroke-width:0.8;" x="72" xlink:href="#m7435e82892" y="276.010435"/>
      </g>
     </g>
     <g id="text_16">
      <!-- G16 - 2 -->
      <g transform="translate(28.2 279.809654)scale(0.1 -0.1)">
       <use xlink:href="#DejaVuSans-71"/>
       <use x="77.490234" xlink:href="#DejaVuSans-49"/>
       <use x="141.113281" xlink:href="#DejaVuSans-54"/>
       <use x="204.736328" xlink:href="#DejaVuSans-32"/>
       <use x="236.523438" xlink:href="#DejaVuSans-45"/>
       <use x="272.607422" xlink:href="#DejaVuSans-32"/>
       <use x="304.394531" xlink:href="#DejaVuSans-50"/>
      </g>
     </g>
    </g>
    <g id="ytick_17">
     <g id="line2d_17">
      <g>
       <use style="stroke:#000000;stroke-width:0.8;" x="72" xlink:href="#m7435e82892" y="290.473043"/>
      </g>
     </g>
     <g id="text_17">
      <!-- G17 - 2 -->
      <g transform="translate(28.2 294.272262)scale(0.1 -0.1)">
       <use xlink:href="#DejaVuSans-71"/>
       <use x="77.490234" xlink:href="#DejaVuSans-49"/>
       <use x="141.113281" xlink:href="#DejaVuSans-55"/>
       <use x="204.736328" xlink:href="#DejaVuSans-32"/>
       <use x="236.523438" xlink:href="#DejaVuSans-45"/>
       <use x="272.607422" xlink:href="#DejaVuSans-32"/>
       <use x="304.394531" xlink:href="#DejaVuSans-50"/>
      </g>
     </g>
    </g>
    <g id="ytick_18">
     <g id="line2d_18">
      <g>
       <use style="stroke:#000000;stroke-width:0.8;" x="72" xlink:href="#m7435e82892" y="304.935652"/>
      </g>
     </g>
     <g id="text_18">
      <!-- G18 - 2 -->
      <g transform="translate(28.2 308.734871)scale(0.1 -0.1)">
       <use xlink:href="#DejaVuSans-71"/>
       <use x="77.490234" xlink:href="#DejaVuSans-49"/>
       <use x="141.113281" xlink:href="#DejaVuSans-56"/>
       <use x="204.736328" xlink:href="#DejaVuSans-32"/>
       <use x="236.523438" xlink:href="#DejaVuSans-45"/>
       <use x="272.607422" xlink:href="#DejaVuSans-32"/>
       <use x="304.394531" xlink:href="#DejaVuSans-50"/>
      </g>
     </g>
    </g>
    <g id="ytick_19">
     <g id="line2d_19">
      <g>
       <use style="stroke:#000000;stroke-width:0.8;" x="72" xlink:href="#m7435e82892" y="319.398261"/>
      </g>
     </g>
     <g id="text_19">
      <!-- G19 - 2 -->
      <g transform="translate(28.2 323.19748)scale(0.1 -0.1)">
       <use xlink:href="#DejaVuSans-71"/>
       <use x="77.490234" xlink:href="#DejaVuSans-49"/>
       <use x="141.113281" xlink:href="#DejaVuSans-57"/>
       <use x="204.736328" xlink:href="#DejaVuSans-32"/>
       <use x="236.523438" xlink:href="#DejaVuSans-45"/>
       <use x="272.607422" xlink:href="#DejaVuSans-32"/>
       <use x="304.394531" xlink:href="#DejaVuSans-50"/>
      </g>
     </g>
    </g>
    <g id="ytick_20">
     <g id="line2d_20">
      <g>
       <use style="stroke:#000000;stroke-width:0.8;" x="72" xlink:href="#m7435e82892" y="333.86087"/>
      </g>
     </g>
     <g id="text_20">
      <!-- G20 - 2 -->
      <g transform="translate(28.2 337.660088)scale(0.1 -0.1)">
       <use xlink:href="#DejaVuSans-71"/>
       <use x="77.490234" xlink:href="#DejaVuSans-50"/>
       <use x="141.113281" xlink:href="#DejaVuSans-48"/>
       <use x="204.736328" xlink:href="#DejaVuSans-32"/>
       <use x="236.523438" xlink:href="#DejaVuSans-45"/>
       <use x="272.607422" xlink:href="#DejaVuSans-32"/>
       <use x="304.394531" xlink:href="#DejaVuSans-50"/>
      </g>
     </g>
    </g>
    <g id="ytick_21">
     <g id="line2d_21">
      <g>
       <use style="stroke:#000000;stroke-width:0.8;" x="72" xlink:href="#m7435e82892" y="348.323478"/>
      </g>
     </g>
     <g id="text_21">
      <!-- G21 - 2 -->
      <g transform="translate(28.2 352.122697)scale(0.1 -0.1)">
       <use xlink:href="#DejaVuSans-71"/>
       <use x="77.490234" xlink:href="#DejaVuSans-50"/>
       <use x="141.113281" xlink:href="#DejaVuSans-49"/>
       <use x="204.736328" xlink:href="#DejaVuSans-32"/>
       <use x="236.523438" xlink:href="#DejaVuSans-45"/>
       <use x="272.607422" xlink:href="#DejaVuSans-32"/>
       <use x="304.394531" xlink:href="#DejaVuSans-50"/>
      </g>
     </g>
    </g>
    <g id="ytick_22">
     <g id="line2d_22">
      <g>
       <use style="stroke:#000000;stroke-width:0.8;" x="72" xlink:href="#m7435e82892" y="362.786087"/>
      </g>
     </g>
     <g id="text_22">
      <!-- G22 - 2 -->
      <g transform="translate(28.2 366.585306)scale(0.1 -0.1)">
       <use xlink:href="#DejaVuSans-71"/>
       <use x="77.490234" xlink:href="#DejaVuSans-50"/>
       <use x="141.113281" xlink:href="#DejaVuSans-50"/>
       <use x="204.736328" xlink:href="#DejaVuSans-32"/>
       <use x="236.523438" xlink:href="#DejaVuSans-45"/>
       <use x="272.607422" xlink:href="#DejaVuSans-32"/>
       <use x="304.394531" xlink:href="#DejaVuSans-50"/>
      </g>
     </g>
    </g>
    <g id="ytick_23">
     <g id="line2d_23">
      <g>
       <use style="stroke:#000000;stroke-width:0.8;" x="72" xlink:href="#m7435e82892" y="377.248696"/>
      </g>
     </g>
     <g id="text_23">
      <!-- G23 - 2 -->
      <g transform="translate(28.2 381.047914)scale(0.1 -0.1)">
       <use xlink:href="#DejaVuSans-71"/>
       <use x="77.490234" xlink:href="#DejaVuSans-50"/>
       <use x="141.113281" xlink:href="#DejaVuSans-51"/>
       <use x="204.736328" xlink:href="#DejaVuSans-32"/>
       <use x="236.523438" xlink:href="#DejaVuSans-45"/>
       <use x="272.607422" xlink:href="#DejaVuSans-32"/>
       <use x="304.394531" xlink:href="#DejaVuSans-50"/>
      </g>
     </g>
    </g>
   </g>
   <g id="text_24">
    <!-- 18 -->
    <g style="fill:#262626;" transform="translate(120.165 62.382554)scale(0.12 -0.12)">
     <use xlink:href="#DejaVuSans-49"/>
     <use x="63.623047" xlink:href="#DejaVuSans-56"/>
    </g>
   </g>
   <g id="text_25">
    <!-- 18 -->
    <g style="fill:#262626;" transform="translate(120.165 76.845163)scale(0.12 -0.12)">
     <use xlink:href="#DejaVuSans-49"/>
     <use x="63.623047" xlink:href="#DejaVuSans-56"/>
    </g>
   </g>
   <g id="text_26">
    <!-- 3 -->
    <g style="fill:#262626;" transform="translate(235.5825 76.845163)scale(0.12 -0.12)">
     <use xlink:href="#DejaVuSans-51"/>
    </g>
   </g>
   <g id="text_27">
    <!-- 18 -->
    <g style="fill:#262626;" transform="translate(120.165 91.307772)scale(0.12 -0.12)">
     <use xlink:href="#DejaVuSans-49"/>
     <use x="63.623047" xlink:href="#DejaVuSans-56"/>
    </g>
   </g>
   <g id="text_28">
    <!-- 4 -->
    <g style="fill:#ffffff;" transform="translate(235.5825 91.307772)scale(0.12 -0.12)">
     <use xlink:href="#DejaVuSans-52"/>
    </g>
   </g>
   <g id="text_29">
    <!-- 18 -->
    <g style="fill:#262626;" transform="translate(120.165 105.77038)scale(0.12 -0.12)">
     <use xlink:href="#DejaVuSans-49"/>
     <use x="63.623047" xlink:href="#DejaVuSans-56"/>
    </g>
   </g>
   <g id="text_30">
    <!-- 1 -->
    <g style="fill:#262626;" transform="translate(235.5825 105.77038)scale(0.12 -0.12)">
     <use xlink:href="#DejaVuSans-49"/>
    </g>
   </g>
   <g id="text_31">
    <!-- 18 -->
    <g style="fill:#262626;" transform="translate(120.165 120.232989)scale(0.12 -0.12)">
     <use xlink:href="#DejaVuSans-49"/>
     <use x="63.623047" xlink:href="#DejaVuSans-56"/>
    </g>
   </g>
   <g id="text_32">
    <!-- 4 -->
    <g style="fill:#ffffff;" transform="translate(235.5825 120.232989)scale(0.12 -0.12)">
     <use xlink:href="#DejaVuSans-52"/>
    </g>
   </g>
   <g id="text_33">
    <!-- 3 -->
    <g style="fill:#262626;" transform="translate(347.1825 120.232989)scale(0.12 -0.12)">
     <use xlink:href="#DejaVuSans-51"/>
    </g>
   </g>
   <g id="text_34">
    <!-- 4 -->
    <g style="fill:#ffffff;" transform="translate(123.9825 134.695598)scale(0.12 -0.12)">
     <use xlink:href="#DejaVuSans-52"/>
    </g>
   </g>
   <g id="text_35">
    <!-- 2 -->
    <g style="fill:#ffffff;" transform="translate(235.5825 134.695598)scale(0.12 -0.12)">
     <use xlink:href="#DejaVuSans-50"/>
    </g>
   </g>
   <g id="text_36">
    <!-- 18 -->
    <g style="fill:#262626;" transform="translate(343.365 134.695598)scale(0.12 -0.12)">
     <use xlink:href="#DejaVuSans-49"/>
     <use x="63.623047" xlink:href="#DejaVuSans-56"/>
    </g>
   </g>
   <g id="text_37">
    <!-- 18 -->
    <g style="fill:#262626;" transform="translate(120.165 149.158207)scale(0.12 -0.12)">
     <use xlink:href="#DejaVuSans-49"/>
     <use x="63.623047" xlink:href="#DejaVuSans-56"/>
    </g>
   </g>
   <g id="text_38">
    <!-- 3 -->
    <g style="fill:#262626;" transform="translate(235.5825 149.158207)scale(0.12 -0.12)">
     <use xlink:href="#DejaVuSans-51"/>
    </g>
   </g>
   <g id="text_39">
    <!-- 3_263:C -->
    <g style="fill:#262626;" transform="translate(326.519063 148.885394)scale(0.12 -0.12)">
     <defs>
      <path d="M 50.984375 -16.609375 
L 50.984375 -23.578125 
L -0.984375 -23.578125 
L -0.984375 -16.609375 
z
" id="DejaVuSans-95"/>
      <path d="M 11.71875 12.40625 
L 22.015625 12.40625 
L 22.015625 0 
L 11.71875 0 
z
M 11.71875 51.703125 
L 22.015625 51.703125 
L 22.015625 39.3125 
L 11.71875 39.3125 
z
" id="DejaVuSans-58"/>
      <path d="M 64.40625 67.28125 
L 64.40625 56.890625 
Q 59.421875 61.53125 53.78125 63.8125 
Q 48.140625 66.109375 41.796875 66.109375 
Q 29.296875 66.109375 22.65625 58.46875 
Q 16.015625 50.828125 16.015625 36.375 
Q 16.015625 21.96875 22.65625 14.328125 
Q 29.296875 6.6875 41.796875 6.6875 
Q 48.140625 6.6875 53.78125 8.984375 
Q 59.421875 11.28125 64.40625 15.921875 
L 64.40625 5.609375 
Q 59.234375 2.09375 53.4375 0.328125 
Q 47.65625 -1.421875 41.21875 -1.421875 
Q 24.65625 -1.421875 15.125 8.703125 
Q 5.609375 18.84375 5.609375 36.375 
Q 5.609375 53.953125 15.125 64.078125 
Q 24.65625 74.21875 41.21875 74.21875 
Q 47.75 74.21875 53.53125 72.484375 
Q 59.328125 70.75 64.40625 67.28125 
z
" id="DejaVuSans-67"/>
     </defs>
     <use xlink:href="#DejaVuSans-51"/>
     <use x="63.623047" xlink:href="#DejaVuSans-95"/>
     <use x="113.623047" xlink:href="#DejaVuSans-50"/>
     <use x="177.246094" xlink:href="#DejaVuSans-54"/>
     <use x="240.869141" xlink:href="#DejaVuSans-51"/>
     <use x="304.492188" xlink:href="#DejaVuSans-58"/>
     <use x="338.183594" xlink:href="#DejaVuSans-67"/>
    </g>
   </g>
   <g id="text_40">
    <!-- 4 -->
    <g style="fill:#ffffff;" transform="translate(123.9825 163.620815)scale(0.12 -0.12)">
     <use xlink:href="#DejaVuSans-52"/>
    </g>
   </g>
   <g id="text_41">
    <!-- 18 -->
    <g style="fill:#262626;" transform="translate(120.165 178.083424)scale(0.12 -0.12)">
     <use xlink:href="#DejaVuSans-49"/>
     <use x="63.623047" xlink:href="#DejaVuSans-56"/>
    </g>
   </g>
   <g id="text_42">
    <!-- 2 -->
    <g style="fill:#ffffff;" transform="translate(235.5825 178.083424)scale(0.12 -0.12)">
     <use xlink:href="#DejaVuSans-50"/>
    </g>
   </g>
   <g id="text_43">
    <!-- 3 -->
    <g style="fill:#262626;" transform="translate(123.9825 192.546033)scale(0.12 -0.12)">
     <use xlink:href="#DejaVuSans-51"/>
    </g>
   </g>
   <g id="text_44">
    <!-- 2 -->
    <g style="fill:#ffffff;" transform="translate(235.5825 192.546033)scale(0.12 -0.12)">
     <use xlink:href="#DejaVuSans-50"/>
    </g>
   </g>
   <g id="text_45">
    <!-- 18 -->
    <g style="fill:#262626;" transform="translate(343.365 192.546033)scale(0.12 -0.12)">
     <use xlink:href="#DejaVuSans-49"/>
     <use x="63.623047" xlink:href="#DejaVuSans-56"/>
    </g>
   </g>
   <g id="text_46">
    <!-- 1 -->
    <g style="fill:#262626;" transform="translate(123.9825 207.008641)scale(0.12 -0.12)">
     <use xlink:href="#DejaVuSans-49"/>
    </g>
   </g>
   <g id="text_47">
    <!-- 4 -->
    <g style="fill:#ffffff;" transform="translate(123.9825 221.47125)scale(0.12 -0.12)">
     <use xlink:href="#DejaVuSans-52"/>
    </g>
   </g>
   <g id="text_48">
    <!-- 2 -->
    <g style="fill:#ffffff;" transform="translate(235.5825 221.47125)scale(0.12 -0.12)">
     <use xlink:href="#DejaVuSans-50"/>
    </g>
   </g>
   <g id="text_49">
    <!-- 18 -->
    <g style="fill:#262626;" transform="translate(120.165 235.933859)scale(0.12 -0.12)">
     <use xlink:href="#DejaVuSans-49"/>
     <use x="63.623047" xlink:href="#DejaVuSans-56"/>
    </g>
   </g>
   <g id="text_50">
    <!-- 1 -->
    <g style="fill:#262626;" transform="translate(235.5825 235.933859)scale(0.12 -0.12)">
     <use xlink:href="#DejaVuSans-49"/>
    </g>
   </g>
   <g id="text_51">
    <!-- 3 -->
    <g style="fill:#262626;" transform="translate(347.1825 235.933859)scale(0.12 -0.12)">
     <use xlink:href="#DejaVuSans-51"/>
    </g>
   </g>
   <g id="text_52">
    <!-- 2 -->
    <g style="fill:#ffffff;" transform="translate(123.9825 250.396467)scale(0.12 -0.12)">
     <use xlink:href="#DejaVuSans-50"/>
    </g>
   </g>
   <g id="text_53">
    <!-- 18 -->
    <g style="fill:#262626;" transform="translate(120.165 264.859076)scale(0.12 -0.12)">
     <use xlink:href="#DejaVuSans-49"/>
     <use x="63.623047" xlink:href="#DejaVuSans-56"/>
    </g>
   </g>
   <g id="text_54">
    <!-- 1 -->
    <g style="fill:#262626;" transform="translate(235.5825 264.859076)scale(0.12 -0.12)">
     <use xlink:href="#DejaVuSans-49"/>
    </g>
   </g>
   <g id="text_55">
    <!-- 7 -->
    <g style="fill:#262626;" transform="translate(347.1825 264.859076)scale(0.12 -0.12)">
     <use xlink:href="#DejaVuSans-55"/>
    </g>
   </g>
   <g id="text_56">
    <!-- 1 -->
    <g style="fill:#262626;" transform="translate(123.9825 279.321685)scale(0.12 -0.12)">
     <use xlink:href="#DejaVuSans-49"/>
    </g>
   </g>
   <g id="text_57">
    <!-- 7 -->
    <g style="fill:#262626;" transform="translate(235.5825 279.321685)scale(0.12 -0.12)">
     <use xlink:href="#DejaVuSans-55"/>
    </g>
   </g>
   <g id="text_58">
    <!-- 2 -->
    <g style="fill:#ffffff;" transform="translate(123.9825 293.784293)scale(0.12 -0.12)">
     <use xlink:href="#DejaVuSans-50"/>
    </g>
   </g>
   <g id="text_59">
    <!-- 2_292:G -->
    <g style="fill:#ffffff;" transform="translate(214.459687 293.511481)scale(0.12 -0.12)">
     <use xlink:href="#DejaVuSans-50"/>
     <use x="63.623047" xlink:href="#DejaVuSans-95"/>
     <use x="113.623047" xlink:href="#DejaVuSans-50"/>
     <use x="177.246094" xlink:href="#DejaVuSans-57"/>
     <use x="240.869141" xlink:href="#DejaVuSans-50"/>
     <use x="304.492188" xlink:href="#DejaVuSans-58"/>
     <use x="338.183594" xlink:href="#DejaVuSans-71"/>
    </g>
   </g>
   <g id="text_60">
    <!-- 18 -->
    <g style="fill:#262626;" transform="translate(343.365 293.784293)scale(0.12 -0.12)">
     <use xlink:href="#DejaVuSans-49"/>
     <use x="63.623047" xlink:href="#DejaVuSans-56"/>
    </g>
   </g>
   <g id="text_61">
    <!-- 3 -->
    <g style="fill:#262626;" transform="translate(458.7825 293.784293)scale(0.12 -0.12)">
     <use xlink:href="#DejaVuSans-51"/>
    </g>
   </g>
   <g id="text_62">
    <!-- 4_15:C,23:A -->
    <g style="fill:#ffffff;" transform="translate(91.469063 307.97409)scale(0.12 -0.12)">
     <defs>
      <path d="M 11.71875 12.40625 
L 22.015625 12.40625 
L 22.015625 4 
L 14.015625 -11.625 
L 7.71875 -11.625 
L 11.71875 4 
z
" id="DejaVuSans-44"/>
      <path d="M 34.1875 63.1875 
L 20.796875 26.90625 
L 47.609375 26.90625 
z
M 28.609375 72.90625 
L 39.796875 72.90625 
L 67.578125 0 
L 57.328125 0 
L 50.6875 18.703125 
L 17.828125 18.703125 
L 11.1875 0 
L 0.78125 0 
z
" id="DejaVuSans-65"/>
     </defs>
     <use xlink:href="#DejaVuSans-52"/>
     <use x="63.623047" xlink:href="#DejaVuSans-95"/>
     <use x="113.623047" xlink:href="#DejaVuSans-49"/>
     <use x="177.246094" xlink:href="#DejaVuSans-53"/>
     <use x="240.869141" xlink:href="#DejaVuSans-58"/>
     <use x="274.560547" xlink:href="#DejaVuSans-67"/>
     <use x="344.384766" xlink:href="#DejaVuSans-44"/>
     <use x="376.171875" xlink:href="#DejaVuSans-50"/>
     <use x="439.794922" xlink:href="#DejaVuSans-51"/>
     <use x="503.417969" xlink:href="#DejaVuSans-58"/>
     <use x="537.109375" xlink:href="#DejaVuSans-65"/>
    </g>
   </g>
   <g id="text_63">
    <!-- 4 -->
    <g style="fill:#ffffff;" transform="translate(235.5825 308.246902)scale(0.12 -0.12)">
     <use xlink:href="#DejaVuSans-52"/>
    </g>
   </g>
   <g id="text_64">
    <!-- 18_154:G,155:G -->
    <g style="fill:#262626;" transform="translate(302.2125 307.97409)scale(0.12 -0.12)">
     <use xlink:href="#DejaVuSans-49"/>
     <use x="63.623047" xlink:href="#DejaVuSans-56"/>
     <use x="127.246094" xlink:href="#DejaVuSans-95"/>
     <use x="177.246094" xlink:href="#DejaVuSans-49"/>
     <use x="240.869141" xlink:href="#DejaVuSans-53"/>
     <use x="304.492188" xlink:href="#DejaVuSans-52"/>
     <use x="368.115234" xlink:href="#DejaVuSans-58"/>
     <use x="401.806641" xlink:href="#DejaVuSans-71"/>
     <use x="479.296875" xlink:href="#DejaVuSans-44"/>
     <use x="511.083984" xlink:href="#DejaVuSans-49"/>
     <use x="574.707031" xlink:href="#DejaVuSans-53"/>
     <use x="638.330078" xlink:href="#DejaVuSans-53"/>
     <use x="701.953125" xlink:href="#DejaVuSans-58"/>
     <use x="735.644531" xlink:href="#DejaVuSans-71"/>
    </g>
   </g>
   <g id="text_65">
    <!-- 7_134:G -->
    <g style="fill:#262626;" transform="translate(437.659687 307.97409)scale(0.12 -0.12)">
     <use xlink:href="#DejaVuSans-55"/>
     <use x="63.623047" xlink:href="#DejaVuSans-95"/>
     <use x="113.623047" xlink:href="#DejaVuSans-49"/>
     <use x="177.246094" xlink:href="#DejaVuSans-51"/>
     <use x="240.869141" xlink:href="#DejaVuSans-52"/>
     <use x="304.492188" xlink:href="#DejaVuSans-58"/>
     <use x="338.183594" xlink:href="#DejaVuSans-71"/>
    </g>
   </g>
   <g id="text_66">
    <!-- 2 -->
    <g style="fill:#ffffff;" transform="translate(123.9825 322.709511)scale(0.12 -0.12)">
     <use xlink:href="#DejaVuSans-50"/>
    </g>
   </g>
   <g id="text_67">
    <!-- 1 -->
    <g style="fill:#262626;" transform="translate(235.5825 322.709511)scale(0.12 -0.12)">
     <use xlink:href="#DejaVuSans-49"/>
    </g>
   </g>
   <g id="text_68">
    <!-- 18 -->
    <g style="fill:#262626;" transform="translate(343.365 322.709511)scale(0.12 -0.12)">
     <use xlink:href="#DejaVuSans-49"/>
     <use x="63.623047" xlink:href="#DejaVuSans-56"/>
    </g>
   </g>
   <g id="text_69">
    <!-- 4 -->
    <g style="fill:#ffffff;" transform="translate(123.9825 337.17212)scale(0.12 -0.12)">
     <use xlink:href="#DejaVuSans-52"/>
    </g>
   </g>
   <g id="text_70">
    <!-- 18 -->
    <g style="fill:#262626;" transform="translate(231.765 337.17212)scale(0.12 -0.12)">
     <use xlink:href="#DejaVuSans-49"/>
     <use x="63.623047" xlink:href="#DejaVuSans-56"/>
    </g>
   </g>
   <g id="text_71">
    <!-- 2 -->
    <g style="fill:#ffffff;" transform="translate(347.1825 337.17212)scale(0.12 -0.12)">
     <use xlink:href="#DejaVuSans-50"/>
    </g>
   </g>
   <g id="text_72">
    <!-- 2_292:G -->
    <g style="fill:#ffffff;" transform="translate(437.659687 336.899307)scale(0.12 -0.12)">
     <use xlink:href="#DejaVuSans-50"/>
     <use x="63.623047" xlink:href="#DejaVuSans-95"/>
     <use x="113.623047" xlink:href="#DejaVuSans-50"/>
     <use x="177.246094" xlink:href="#DejaVuSans-57"/>
     <use x="240.869141" xlink:href="#DejaVuSans-50"/>
     <use x="304.492188" xlink:href="#DejaVuSans-58"/>
     <use x="338.183594" xlink:href="#DejaVuSans-71"/>
    </g>
   </g>
   <g id="text_73">
    <!-- 4 -->
    <g style="fill:#ffffff;" transform="translate(123.9825 351.634728)scale(0.12 -0.12)">
     <use xlink:href="#DejaVuSans-52"/>
    </g>
   </g>
   <g id="text_74">
    <!-- 1 -->
    <g style="fill:#262626;" transform="translate(235.5825 351.634728)scale(0.12 -0.12)">
     <use xlink:href="#DejaVuSans-49"/>
    </g>
   </g>
   <g id="text_75">
    <!-- 18 -->
    <g style="fill:#262626;" transform="translate(120.165 366.097337)scale(0.12 -0.12)">
     <use xlink:href="#DejaVuSans-49"/>
     <use x="63.623047" xlink:href="#DejaVuSans-56"/>
    </g>
   </g>
   <g id="text_76">
    <!-- 18_142:G -->
    <g style="fill:#262626;" transform="translate(210.642187 365.824524)scale(0.12 -0.12)">
     <use xlink:href="#DejaVuSans-49"/>
     <use x="63.623047" xlink:href="#DejaVuSans-56"/>
     <use x="127.246094" xlink:href="#DejaVuSans-95"/>
     <use x="177.246094" xlink:href="#DejaVuSans-49"/>
     <use x="240.869141" xlink:href="#DejaVuSans-52"/>
     <use x="304.492188" xlink:href="#DejaVuSans-50"/>
     <use x="368.115234" xlink:href="#DejaVuSans-58"/>
     <use x="401.806641" xlink:href="#DejaVuSans-71"/>
    </g>
   </g>
   <g id="text_77">
    <!-- 18 -->
    <g style="fill:#262626;" transform="translate(120.165 380.559946)scale(0.12 -0.12)">
     <use xlink:href="#DejaVuSans-49"/>
     <use x="63.623047" xlink:href="#DejaVuSans-56"/>
    </g>
   </g>
   <g id="text_78">
    <!-- 3 -->
    <g style="fill:#262626;" transform="translate(235.5825 380.559946)scale(0.12 -0.12)">
     <use xlink:href="#DejaVuSans-51"/>
    </g>
   </g>
   <g id="text_79">
    <!-- 7 -->
    <g style="fill:#262626;" transform="translate(347.1825 380.559946)scale(0.12 -0.12)">
     <use xlink:href="#DejaVuSans-55"/>
    </g>
   </g>
   <g id="text_80">
    <!-- IGHV3-30 -->
    <g transform="translate(266.547188 45.84)scale(0.12 -0.12)">
     <defs>
      <path d="M 9.8125 72.90625 
L 19.671875 72.90625 
L 19.671875 0 
L 9.8125 0 
z
" id="DejaVuSans-73"/>
      <path d="M 9.8125 72.90625 
L 19.671875 72.90625 
L 19.671875 43.015625 
L 55.515625 43.015625 
L 55.515625 72.90625 
L 65.375 72.90625 
L 65.375 0 
L 55.515625 0 
L 55.515625 34.71875 
L 19.671875 34.71875 
L 19.671875 0 
L 9.8125 0 
z
" id="DejaVuSans-72"/>
      <path d="M 28.609375 0 
L 0.78125 72.90625 
L 11.078125 72.90625 
L 34.1875 11.53125 
L 57.328125 72.90625 
L 67.578125 72.90625 
L 39.796875 0 
z
" id="DejaVuSans-86"/>
     </defs>
     <use xlink:href="#DejaVuSans-73"/>
     <use x="29.492188" xlink:href="#DejaVuSans-71"/>
     <use x="106.982422" xlink:href="#DejaVuSans-72"/>
     <use x="182.177734" xlink:href="#DejaVuSans-86"/>
     <use x="250.585938" xlink:href="#DejaVuSans-51"/>
     <use x="314.208984" xlink:href="#DejaVuSans-45"/>
     <use x="350.292969" xlink:href="#DejaVuSans-51"/>
     <use x="413.916016" xlink:href="#DejaVuSans-48"/>
    </g>
   </g>
  </g>
 </g>
 <defs>
  <clipPath id="p1b7d0c3530">
   <rect height="332.64" width="446.4" x="72" y="51.84"/>
  </clipPath>
 </defs>
</svg>
