<?xml version="1.0" encoding="utf-8" standalone="no"?>
<!DOCTYPE svg PUBLIC "-//W3C//DTD SVG 1.1//EN"
  "http://www.w3.org/Graphics/SVG/1.1/DTD/svg11.dtd">
<!-- Created with matplotlib (https://matplotlib.org/) -->
<svg height="432pt" version="1.1" viewBox="0 0 576 432" width="576pt" xmlns="http://www.w3.org/2000/svg" xmlns:xlink="http://www.w3.org/1999/xlink">
 <metadata>
  <rdf:RDF xmlns:cc="http://creativecommons.org/ns#" xmlns:dc="http://purl.org/dc/elements/1.1/" xmlns:rdf="http://www.w3.org/1999/02/22-rdf-syntax-ns#">
   <cc:Work>
    <dc:type rdf:resource="http://purl.org/dc/dcmitype/StillImage"/>
    <dc:date>2021-01-02T10:02:17.136497</dc:date>
    <dc:format>image/svg+xml</dc:format>
    <dc:creator>
     <cc:Agent>
      <dc:title>Matplotlib v3.3.2, https://matplotlib.org/</dc:title>
     </cc:Agent>
    </dc:creator>
   </cc:Work>
  </rdf:RDF>
 </metadata>
 <defs>
  <style type="text/css">*{stroke-linecap:butt;stroke-linejoin:round;}</style>
 </defs>
 <g id="figure_1">
  <g id="patch_1">
   <path d="M 0 432 
L 576 432 
L 576 0 
L 0 0 
z
" style="fill:#ffffff;"/>
  </g>
  <g id="axes_1">
   <g id="patch_2">
    <path d="M 72 384.48 
L 518.4 384.48 
L 518.4 51.84 
L 72 51.84 
z
" style="fill:#ffffff;"/>
   </g>
   <g id="QuadMesh_1">
    <path clip-path="url(#p7b146c9939)" d="M 72 51.84 
L 220.8 51.84 
L 220.8 135 
L 72 135 
L 72 51.84 
" style="fill:#aec7e8;stroke:#ffffff;stroke-width:0.2;"/>
    <path clip-path="url(#p7b146c9939)" d="M 220.8 51.84 
L 369.6 51.84 
L 369.6 135 
L 220.8 135 
L 220.8 51.84 
" style="fill:#c7c7c7;stroke:#ffffff;stroke-width:0.2;"/>
    <path clip-path="url(#p7b146c9939)" d="M 369.6 51.84 
L 518.4 51.84 
L 518.4 135 
L 369.6 135 
L 369.6 51.84 
" style="fill:#c7c7c7;stroke:#ffffff;stroke-width:0.2;"/>
    <path clip-path="url(#p7b146c9939)" d="M 72 135 
L 220.8 135 
L 220.8 218.16 
L 72 218.16 
L 72 135 
" style="fill:#aec7e8;stroke:#ffffff;stroke-width:0.2;"/>
    <path clip-path="url(#p7b146c9939)" d="M 220.8 135 
L 369.6 135 
L 369.6 218.16 
L 220.8 218.16 
L 220.8 135 
" style="fill:#aec7e8;stroke:#ffffff;stroke-width:0.2;"/>
    <path clip-path="url(#p7b146c9939)" d="M 369.6 135 
L 518.4 135 
L 518.4 218.16 
L 369.6 218.16 
L 369.6 135 
" style="fill:#c7c7c7;stroke:#ffffff;stroke-width:0.2;"/>
    <path clip-path="url(#p7b146c9939)" d="M 72 218.16 
L 220.8 218.16 
L 220.8 301.32 
L 72 301.32 
L 72 218.16 
" style="fill:#aec7e8;stroke:#ffffff;stroke-width:0.2;"/>
    <path clip-path="url(#p7b146c9939)" d="M 220.8 218.16 
L 369.6 218.16 
L 369.6 301.32 
L 220.8 301.32 
L 220.8 218.16 
" style="fill:#aec7e8;stroke:#ffffff;stroke-width:0.2;"/>
    <path clip-path="url(#p7b146c9939)" d="M 369.6 218.16 
L 518.4 218.16 
L 518.4 301.32 
L 369.6 301.32 
L 369.6 218.16 
" style="fill:#c7c7c7;stroke:#ffffff;stroke-width:0.2;"/>
    <path clip-path="url(#p7b146c9939)" d="M 72 301.32 
L 220.8 301.32 
L 220.8 384.48 
L 72 384.48 
L 72 301.32 
" style="fill:#aec7e8;stroke:#ffffff;stroke-width:0.2;"/>
    <path clip-path="url(#p7b146c9939)" d="M 220.8 301.32 
L 369.6 301.32 
L 369.6 384.48 
L 220.8 384.48 
L 220.8 301.32 
" style="fill:#aec7e8;stroke:#ffffff;stroke-width:0.2;"/>
    <path clip-path="url(#p7b146c9939)" d="M 369.6 301.32 
L 518.4 301.32 
L 518.4 384.48 
L 369.6 384.48 
L 369.6 301.32 
" style="fill:#aec7e8;stroke:#ffffff;stroke-width:0.2;"/>
   </g>
   <g id="matplotlib.axis_1"/>
   <g id="matplotlib.axis_2">
    <g id="ytick_1">
     <g id="line2d_1">
      <defs>
       <path d="M 0 0 
L -3.5 0 
" id="m2dd7e08b53" style="stroke:#000000;stroke-width:0.8;"/>
      </defs>
      <g>
       <use style="stroke:#000000;stroke-width:0.8;" x="72" xlink:href="#m2dd7e08b53" y="93.42"/>
      </g>
     </g>
     <g id="text_1">
      <!-- G1 - 322 -->
      <g transform="translate(21.8375 97.219219)scale(0.1 -0.1)">
       <defs>
        <path d="M 59.515625 10.40625 
L 59.515625 29.984375 
L 43.40625 29.984375 
L 43.40625 38.09375 
L 69.28125 38.09375 
L 69.28125 6.78125 
Q 63.578125 2.734375 56.6875 0.65625 
Q 49.8125 -1.421875 42 -1.421875 
Q 24.90625 -1.421875 15.25 8.5625 
Q 5.609375 18.5625 5.609375 36.375 
Q 5.609375 54.25 15.25 64.234375 
Q 24.90625 74.21875 42 74.21875 
Q 49.125 74.21875 55.546875 72.453125 
Q 61.96875 70.703125 67.390625 67.28125 
L 67.390625 56.78125 
Q 61.921875 61.421875 55.765625 63.765625 
Q 49.609375 66.109375 42.828125 66.109375 
Q 29.4375 66.109375 22.71875 58.640625 
Q 16.015625 51.171875 16.015625 36.375 
Q 16.015625 21.625 22.71875 14.15625 
Q 29.4375 6.6875 42.828125 6.6875 
Q 48.046875 6.6875 52.140625 7.59375 
Q 56.25 8.5 59.515625 10.40625 
z
" id="DejaVuSans-71"/>
        <path d="M 12.40625 8.296875 
L 28.515625 8.296875 
L 28.515625 63.921875 
L 10.984375 60.40625 
L 10.984375 69.390625 
L 28.421875 72.90625 
L 38.28125 72.90625 
L 38.28125 8.296875 
L 54.390625 8.296875 
L 54.390625 0 
L 12.40625 0 
z
" id="DejaVuSans-49"/>
        <path id="DejaVuSans-32"/>
        <path d="M 4.890625 31.390625 
L 31.203125 31.390625 
L 31.203125 23.390625 
L 4.890625 23.390625 
z
" id="DejaVuSans-45"/>
        <path d="M 40.578125 39.3125 
Q 47.65625 37.796875 51.625 33 
Q 55.609375 28.21875 55.609375 21.1875 
Q 55.609375 10.40625 48.1875 4.484375 
Q 40.765625 -1.421875 27.09375 -1.421875 
Q 22.515625 -1.421875 17.65625 -0.515625 
Q 12.796875 0.390625 7.625 2.203125 
L 7.625 11.71875 
Q 11.71875 9.328125 16.59375 8.109375 
Q 21.484375 6.890625 26.8125 6.890625 
Q 36.078125 6.890625 40.9375 10.546875 
Q 45.796875 14.203125 45.796875 21.1875 
Q 45.796875 27.640625 41.28125 31.265625 
Q 36.765625 34.90625 28.71875 34.90625 
L 20.21875 34.90625 
L 20.21875 43.015625 
L 29.109375 43.015625 
Q 36.375 43.015625 40.234375 45.921875 
Q 44.09375 48.828125 44.09375 54.296875 
Q 44.09375 59.90625 40.109375 62.90625 
Q 36.140625 65.921875 28.71875 65.921875 
Q 24.65625 65.921875 20.015625 65.03125 
Q 15.375 64.15625 9.8125 62.3125 
L 9.8125 71.09375 
Q 15.4375 72.65625 20.34375 73.4375 
Q 25.25 74.21875 29.59375 74.21875 
Q 40.828125 74.21875 47.359375 69.109375 
Q 53.90625 64.015625 53.90625 55.328125 
Q 53.90625 49.265625 50.4375 45.09375 
Q 46.96875 40.921875 40.578125 39.3125 
z
" id="DejaVuSans-51"/>
        <path d="M 19.1875 8.296875 
L 53.609375 8.296875 
L 53.609375 0 
L 7.328125 0 
L 7.328125 8.296875 
Q 12.9375 14.109375 22.625 23.890625 
Q 32.328125 33.6875 34.8125 36.53125 
Q 39.546875 41.84375 41.421875 45.53125 
Q 43.3125 49.21875 43.3125 52.78125 
Q 43.3125 58.59375 39.234375 62.25 
Q 35.15625 65.921875 28.609375 65.921875 
Q 23.96875 65.921875 18.8125 64.3125 
Q 13.671875 62.703125 7.8125 59.421875 
L 7.8125 69.390625 
Q 13.765625 71.78125 18.9375 73 
Q 24.125 74.21875 28.421875 74.21875 
Q 39.75 74.21875 46.484375 68.546875 
Q 53.21875 62.890625 53.21875 53.421875 
Q 53.21875 48.921875 51.53125 44.890625 
Q 49.859375 40.875 45.40625 35.40625 
Q 44.1875 33.984375 37.640625 27.21875 
Q 31.109375 20.453125 19.1875 8.296875 
z
" id="DejaVuSans-50"/>
       </defs>
       <use xlink:href="#DejaVuSans-71"/>
       <use x="77.490234" xlink:href="#DejaVuSans-49"/>
       <use x="141.113281" xlink:href="#DejaVuSans-32"/>
       <use x="172.900391" xlink:href="#DejaVuSans-45"/>
       <use x="208.984375" xlink:href="#DejaVuSans-32"/>
       <use x="240.771484" xlink:href="#DejaVuSans-51"/>
       <use x="304.394531" xlink:href="#DejaVuSans-50"/>
       <use x="368.017578" xlink:href="#DejaVuSans-50"/>
      </g>
     </g>
    </g>
    <g id="ytick_2">
     <g id="line2d_2">
      <g>
       <use style="stroke:#000000;stroke-width:0.8;" x="72" xlink:href="#m2dd7e08b53" y="176.58"/>
      </g>
     </g>
     <g id="text_2">
      <!-- G2 - 23 -->
      <g transform="translate(28.2 180.379219)scale(0.1 -0.1)">
       <use xlink:href="#DejaVuSans-71"/>
       <use x="77.490234" xlink:href="#DejaVuSans-50"/>
       <use x="141.113281" xlink:href="#DejaVuSans-32"/>
       <use x="172.900391" xlink:href="#DejaVuSans-45"/>
       <use x="208.984375" xlink:href="#DejaVuSans-32"/>
       <use x="240.771484" xlink:href="#DejaVuSans-50"/>
       <use x="304.394531" xlink:href="#DejaVuSans-51"/>
      </g>
     </g>
    </g>
    <g id="ytick_3">
     <g id="line2d_3">
      <g>
       <use style="stroke:#000000;stroke-width:0.8;" x="72" xlink:href="#m2dd7e08b53" y="259.74"/>
      </g>
     </g>
     <g id="text_3">
      <!-- G3 - 20 -->
      <g transform="translate(28.2 263.539219)scale(0.1 -0.1)">
       <defs>
        <path d="M 31.78125 66.40625 
Q 24.171875 66.40625 20.328125 58.90625 
Q 16.5 51.421875 16.5 36.375 
Q 16.5 21.390625 20.328125 13.890625 
Q 24.171875 6.390625 31.78125 6.390625 
Q 39.453125 6.390625 43.28125 13.890625 
Q 47.125 21.390625 47.125 36.375 
Q 47.125 51.421875 43.28125 58.90625 
Q 39.453125 66.40625 31.78125 66.40625 
z
M 31.78125 74.21875 
Q 44.046875 74.21875 50.515625 64.515625 
Q 56.984375 54.828125 56.984375 36.375 
Q 56.984375 17.96875 50.515625 8.265625 
Q 44.046875 -1.421875 31.78125 -1.421875 
Q 19.53125 -1.421875 13.0625 8.265625 
Q 6.59375 17.96875 6.59375 36.375 
Q 6.59375 54.828125 13.0625 64.515625 
Q 19.53125 74.21875 31.78125 74.21875 
z
" id="DejaVuSans-48"/>
       </defs>
       <use xlink:href="#DejaVuSans-71"/>
       <use x="77.490234" xlink:href="#DejaVuSans-51"/>
       <use x="141.113281" xlink:href="#DejaVuSans-32"/>
       <use x="172.900391" xlink:href="#DejaVuSans-45"/>
       <use x="208.984375" xlink:href="#DejaVuSans-32"/>
       <use x="240.771484" xlink:href="#DejaVuSans-50"/>
       <use x="304.394531" xlink:href="#DejaVuSans-48"/>
      </g>
     </g>
    </g>
    <g id="ytick_4">
     <g id="line2d_4">
      <g>
       <use style="stroke:#000000;stroke-width:0.8;" x="72" xlink:href="#m2dd7e08b53" y="342.9"/>
      </g>
     </g>
     <g id="text_4">
      <!-- G4 - 2 -->
      <g transform="translate(34.5625 346.699219)scale(0.1 -0.1)">
       <defs>
        <path d="M 37.796875 64.3125 
L 12.890625 25.390625 
L 37.796875 25.390625 
z
M 35.203125 72.90625 
L 47.609375 72.90625 
L 47.609375 25.390625 
L 58.015625 25.390625 
L 58.015625 17.1875 
L 47.609375 17.1875 
L 47.609375 0 
L 37.796875 0 
L 37.796875 17.1875 
L 4.890625 17.1875 
L 4.890625 26.703125 
z
" id="DejaVuSans-52"/>
       </defs>
       <use xlink:href="#DejaVuSans-71"/>
       <use x="77.490234" xlink:href="#DejaVuSans-52"/>
       <use x="141.113281" xlink:href="#DejaVuSans-32"/>
       <use x="172.900391" xlink:href="#DejaVuSans-45"/>
       <use x="208.984375" xlink:href="#DejaVuSans-32"/>
       <use x="240.771484" xlink:href="#DejaVuSans-50"/>
      </g>
     </g>
    </g>
   </g>
   <g id="text_5">
    <!-- 1 -->
    <g style="fill:#262626;" transform="translate(142.5825 96.73125)scale(0.12 -0.12)">
     <use xlink:href="#DejaVuSans-49"/>
    </g>
   </g>
   <g id="text_6">
    <!-- 1 -->
    <g style="fill:#262626;" transform="translate(142.5825 179.89125)scale(0.12 -0.12)">
     <use xlink:href="#DejaVuSans-49"/>
    </g>
   </g>
   <g id="text_7">
    <!-- 1_290:G,292:G -->
    <g style="fill:#262626;" transform="translate(250.23 179.618437)scale(0.12 -0.12)">
     <defs>
      <path d="M 50.984375 -16.609375 
L 50.984375 -23.578125 
L -0.984375 -23.578125 
L -0.984375 -16.609375 
z
" id="DejaVuSans-95"/>
      <path d="M 10.984375 1.515625 
L 10.984375 10.5 
Q 14.703125 8.734375 18.5 7.8125 
Q 22.3125 6.890625 25.984375 6.890625 
Q 35.75 6.890625 40.890625 13.453125 
Q 46.046875 20.015625 46.78125 33.40625 
Q 43.953125 29.203125 39.59375 26.953125 
Q 35.25 24.703125 29.984375 24.703125 
Q 19.046875 24.703125 12.671875 31.3125 
Q 6.296875 37.9375 6.296875 49.421875 
Q 6.296875 60.640625 12.9375 67.421875 
Q 19.578125 74.21875 30.609375 74.21875 
Q 43.265625 74.21875 49.921875 64.515625 
Q 56.59375 54.828125 56.59375 36.375 
Q 56.59375 19.140625 48.40625 8.859375 
Q 40.234375 -1.421875 26.421875 -1.421875 
Q 22.703125 -1.421875 18.890625 -0.6875 
Q 15.09375 0.046875 10.984375 1.515625 
z
M 30.609375 32.421875 
Q 37.25 32.421875 41.125 36.953125 
Q 45.015625 41.5 45.015625 49.421875 
Q 45.015625 57.28125 41.125 61.84375 
Q 37.25 66.40625 30.609375 66.40625 
Q 23.96875 66.40625 20.09375 61.84375 
Q 16.21875 57.28125 16.21875 49.421875 
Q 16.21875 41.5 20.09375 36.953125 
Q 23.96875 32.421875 30.609375 32.421875 
z
" id="DejaVuSans-57"/>
      <path d="M 11.71875 12.40625 
L 22.015625 12.40625 
L 22.015625 0 
L 11.71875 0 
z
M 11.71875 51.703125 
L 22.015625 51.703125 
L 22.015625 39.3125 
L 11.71875 39.3125 
z
" id="DejaVuSans-58"/>
      <path d="M 11.71875 12.40625 
L 22.015625 12.40625 
L 22.015625 4 
L 14.015625 -11.625 
L 7.71875 -11.625 
L 11.71875 4 
z
" id="DejaVuSans-44"/>
     </defs>
     <use xlink:href="#DejaVuSans-49"/>
     <use x="63.623047" xlink:href="#DejaVuSans-95"/>
     <use x="113.623047" xlink:href="#DejaVuSans-50"/>
     <use x="177.246094" xlink:href="#DejaVuSans-57"/>
     <use x="240.869141" xlink:href="#DejaVuSans-48"/>
     <use x="304.492188" xlink:href="#DejaVuSans-58"/>
     <use x="338.183594" xlink:href="#DejaVuSans-71"/>
     <use x="415.673828" xlink:href="#DejaVuSans-44"/>
     <use x="447.460938" xlink:href="#DejaVuSans-50"/>
     <use x="511.083984" xlink:href="#DejaVuSans-57"/>
     <use x="574.707031" xlink:href="#DejaVuSans-50"/>
     <use x="638.330078" xlink:href="#DejaVuSans-58"/>
     <use x="672.021484" xlink:href="#DejaVuSans-71"/>
    </g>
   </g>
   <g id="text_8">
    <!-- 1 -->
    <g style="fill:#262626;" transform="translate(142.5825 263.05125)scale(0.12 -0.12)">
     <use xlink:href="#DejaVuSans-49"/>
    </g>
   </g>
   <g id="text_9">
    <!-- 1_293:C -->
    <g style="fill:#262626;" transform="translate(270.719063 262.778437)scale(0.12 -0.12)">
     <defs>
      <path d="M 64.40625 67.28125 
L 64.40625 56.890625 
Q 59.421875 61.53125 53.78125 63.8125 
Q 48.140625 66.109375 41.796875 66.109375 
Q 29.296875 66.109375 22.65625 58.46875 
Q 16.015625 50.828125 16.015625 36.375 
Q 16.015625 21.96875 22.65625 14.328125 
Q 29.296875 6.6875 41.796875 6.6875 
Q 48.140625 6.6875 53.78125 8.984375 
Q 59.421875 11.28125 64.40625 15.921875 
L 64.40625 5.609375 
Q 59.234375 2.09375 53.4375 0.328125 
Q 47.65625 -1.421875 41.21875 -1.421875 
Q 24.65625 -1.421875 15.125 8.703125 
Q 5.609375 18.84375 5.609375 36.375 
Q 5.609375 53.953125 15.125 64.078125 
Q 24.65625 74.21875 41.21875 74.21875 
Q 47.75 74.21875 53.53125 72.484375 
Q 59.328125 70.75 64.40625 67.28125 
z
" id="DejaVuSans-67"/>
     </defs>
     <use xlink:href="#DejaVuSans-49"/>
     <use x="63.623047" xlink:href="#DejaVuSans-95"/>
     <use x="113.623047" xlink:href="#DejaVuSans-50"/>
     <use x="177.246094" xlink:href="#DejaVuSans-57"/>
     <use x="240.869141" xlink:href="#DejaVuSans-51"/>
     <use x="304.492188" xlink:href="#DejaVuSans-58"/>
     <use x="338.183594" xlink:href="#DejaVuSans-67"/>
    </g>
   </g>
   <g id="text_10">
    <!-- 1 -->
    <g style="fill:#262626;" transform="translate(142.5825 346.21125)scale(0.12 -0.12)">
     <use xlink:href="#DejaVuSans-49"/>
    </g>
   </g>
   <g id="text_11">
    <!-- 1_290:G,292:G -->
    <g style="fill:#262626;" transform="translate(250.23 345.938438)scale(0.12 -0.12)">
     <use xlink:href="#DejaVuSans-49"/>
     <use x="63.623047" xlink:href="#DejaVuSans-95"/>
     <use x="113.623047" xlink:href="#DejaVuSans-50"/>
     <use x="177.246094" xlink:href="#DejaVuSans-57"/>
     <use x="240.869141" xlink:href="#DejaVuSans-48"/>
     <use x="304.492188" xlink:href="#DejaVuSans-58"/>
     <use x="338.183594" xlink:href="#DejaVuSans-71"/>
     <use x="415.673828" xlink:href="#DejaVuSans-44"/>
     <use x="447.460938" xlink:href="#DejaVuSans-50"/>
     <use x="511.083984" xlink:href="#DejaVuSans-57"/>
     <use x="574.707031" xlink:href="#DejaVuSans-50"/>
     <use x="638.330078" xlink:href="#DejaVuSans-58"/>
     <use x="672.021484" xlink:href="#DejaVuSans-71"/>
    </g>
   </g>
   <g id="text_12">
    <!-- 1_293:C -->
    <g style="fill:#262626;" transform="translate(419.519062 345.938438)scale(0.12 -0.12)">
     <use xlink:href="#DejaVuSans-49"/>
     <use x="63.623047" xlink:href="#DejaVuSans-95"/>
     <use x="113.623047" xlink:href="#DejaVuSans-50"/>
     <use x="177.246094" xlink:href="#DejaVuSans-57"/>
     <use x="240.869141" xlink:href="#DejaVuSans-51"/>
     <use x="304.492188" xlink:href="#DejaVuSans-58"/>
     <use x="338.183594" xlink:href="#DejaVuSans-67"/>
    </g>
   </g>
   <g id="text_13">
    <!-- IGHV1-24 -->
    <g transform="translate(266.547188 45.84)scale(0.12 -0.12)">
     <defs>
      <path d="M 9.8125 72.90625 
L 19.671875 72.90625 
L 19.671875 0 
L 9.8125 0 
z
" id="DejaVuSans-73"/>
      <path d="M 9.8125 72.90625 
L 19.671875 72.90625 
L 19.671875 43.015625 
L 55.515625 43.015625 
L 55.515625 72.90625 
L 65.375 72.90625 
L 65.375 0 
L 55.515625 0 
L 55.515625 34.71875 
L 19.671875 34.71875 
L 19.671875 0 
L 9.8125 0 
z
" id="DejaVuSans-72"/>
      <path d="M 28.609375 0 
L 0.78125 72.90625 
L 11.078125 72.90625 
L 34.1875 11.53125 
L 57.328125 72.90625 
L 67.578125 72.90625 
L 39.796875 0 
z
" id="DejaVuSans-86"/>
     </defs>
     <use xlink:href="#DejaVuSans-73"/>
     <use x="29.492188" xlink:href="#DejaVuSans-71"/>
     <use x="106.982422" xlink:href="#DejaVuSans-72"/>
     <use x="182.177734" xlink:href="#DejaVuSans-86"/>
     <use x="250.585938" xlink:href="#DejaVuSans-49"/>
     <use x="314.208984" xlink:href="#DejaVuSans-45"/>
     <use x="350.292969" xlink:href="#DejaVuSans-50"/>
     <use x="413.916016" xlink:href="#DejaVuSans-52"/>
    </g>
   </g>
  </g>
 </g>
 <defs>
  <clipPath id="p7b146c9939">
   <rect height="332.64" width="446.4" x="72" y="51.84"/>
  </clipPath>
 </defs>
</svg>
